<?xml version="1.0" encoding="UTF-8"?>
<svg id="illu" xmlns="http://www.w3.org/2000/svg" viewBox="0 0 674.14 178.78">
  <defs>
    <style>
      .cls-1 {
        fill: #c16357;
      }

      .cls-2 {
        fill: none;
        stroke: #5863f8;
        stroke-linecap: round;
        stroke-width: 2px;
      }
    </style>
  </defs>
  <path class="cls-1" d="M266.04,13.01c-.55,0-1.12-.1-1.69-.29-.56-.2-1.09-.46-1.58-.76l.2-1.98c.02-.22.11-.38.27-.49.16-.12.32-.16.5-.11.19.05.34.17.43.38.48.96.92,1.66,1.31,2.09.4.43.78.65,1.15.65.32,0,.61-.17.85-.52.24-.35.46-.89.67-1.64l2.72-10.17h2.05l-2.3,8.66c-.37,1.45-.95,2.51-1.73,3.19-.78.66-1.73.99-2.84.99ZM275.11,13.01c-.71,0-1.3-.19-1.76-.58-.47-.4-.78-.94-.94-1.62-.14-.7-.1-1.46.13-2.3.24-.88.65-1.7,1.22-2.48.59-.78,1.28-1.4,2.07-1.87.8-.48,1.63-.72,2.48-.72.73,0,1.33.17,1.78.52.46.34.59.82.41,1.46-.14.5-.45.95-.92,1.33-.47.37-1.04.71-1.73,1.01-.67.29-1.61.64-2.81,1.06l-1.15.4.13-.54,1.17-.41c.97-.34,1.76-.72,2.36-1.15.6-.44.97-.95,1.12-1.53.12-.42.09-.79-.09-1.1-.18-.31-.5-.47-.95-.47s-.91.17-1.31.52c-.41.35-.76.78-1.04,1.3-.29.5-.5,1.02-.65,1.55-.2.68-.29,1.37-.27,2.05.02.67.18,1.23.47,1.67.29.43.71.65,1.28.65.41,0,.88-.13,1.42-.4.54-.28,1.1-.67,1.69-1.19l.2.32c-.66.78-1.36,1.4-2.09,1.85-.73.44-1.47.67-2.21.67ZM291.09,13.01c-.19,0-.34-.08-.45-.23s-.13-.35-.07-.59l1.62-5.47c.22-.68.29-1.17.23-1.46-.05-.3-.17-.45-.36-.45-.3,0-.83.44-1.58,1.33-.76.88-1.75,2.36-2.99,4.45l-.59,2.2h-1.93l1.69-6.32c.07-.26.17-.56.31-.88.14-.32.28-.59.4-.79l.92.4c-1.49.42-2.71.92-3.67,1.51l-.2-.32,3.83-2.75c.17-.12.33-.18.49-.18.18,0,.31.07.4.22.1.14.11.33.05.56l-.88,3.33c-.17.64-.43,1.39-.79,2.25l-.11-.02c1.15-1.86,2.23-3.38,3.24-4.55,1.01-1.19,1.91-1.78,2.72-1.78.48,0,.8.26.97.79.18.53.11,1.36-.22,2.5l-.97,3.31c-.08.28-.2.56-.34.86-.14.3-.29.58-.43.83l-.94-.41c1.49-.42,2.72-.92,3.69-1.51l.2.32-3.8,2.74c-.13.1-.28.14-.43.14ZM298.67,13.01c-.71,0-1.3-.19-1.76-.58-.47-.4-.78-.94-.94-1.62-.14-.7-.1-1.46.13-2.3.24-.88.65-1.7,1.22-2.48.59-.78,1.28-1.4,2.07-1.87.8-.48,1.63-.72,2.48-.72.73,0,1.33.17,1.78.52.46.34.59.82.41,1.46-.14.5-.45.95-.92,1.33-.47.37-1.04.71-1.73,1.01-.67.29-1.61.64-2.81,1.06l-1.15.4.13-.54,1.17-.41c.97-.34,1.76-.72,2.36-1.15.6-.44.97-.95,1.12-1.53.12-.42.09-.79-.09-1.1-.18-.31-.5-.47-.95-.47s-.91.17-1.31.52c-.41.35-.76.78-1.04,1.3-.29.5-.5,1.02-.65,1.55-.2.68-.29,1.37-.27,2.05.02.67.18,1.23.47,1.67.29.43.71.65,1.28.65.41,0,.88-.13,1.42-.4.54-.28,1.1-.67,1.69-1.19l.2.32c-.66.78-1.36,1.4-2.09,1.85-.73.44-1.47.67-2.21.67ZM311.17,13.01c-.83,0-1.49-.22-2-.67-.5-.44-.82-1.03-.94-1.76-.12-.74-.04-1.55.25-2.43.3-.89.76-1.69,1.37-2.39.61-.72,1.31-1.28,2.09-1.69.78-.42,1.55-.63,2.32-.63.46,0,.89.07,1.31.22.43.14.76.34.99.59l-.22,1.6c-.04.18-.12.32-.25.41-.12.08-.26.11-.41.07-.16-.04-.27-.14-.34-.31-.35-.62-.71-1.07-1.1-1.35-.38-.28-.77-.41-1.17-.41s-.79.12-1.15.36c-.36.23-.68.54-.95.94-.26.38-.47.82-.63,1.3-.23.73-.31,1.47-.23,2.21.07.74.3,1.36.68,1.85.4.48.93.72,1.6.72.52,0,1.04-.13,1.58-.4.54-.28,1.08-.64,1.62-1.1l.22.32c-.72.79-1.47,1.42-2.25,1.87-.78.44-1.58.67-2.39.67ZM319.71,13.01c-.78,0-1.42-.2-1.91-.59-.48-.41-.79-.96-.94-1.66-.13-.71-.08-1.49.14-2.36.23-.86.62-1.68,1.19-2.45.58-.77,1.24-1.38,2-1.84.77-.46,1.55-.68,2.36-.68s1.38.21,1.84.63c.47.42.76.99.88,1.71.13.71.08,1.49-.14,2.34-.24.9-.64,1.73-1.19,2.48-.55.74-1.2,1.33-1.94,1.76-.73.43-1.49.65-2.29.65ZM320.97,12.17c.37,0,.72-.12,1.04-.36.34-.25.62-.57.85-.95.24-.4.42-.81.54-1.24.19-.72.23-1.5.11-2.34-.12-.84-.38-1.54-.79-2.11-.41-.56-.91-.85-1.51-.85-.36,0-.71.13-1.04.38-.34.24-.62.56-.86.95-.23.4-.4.81-.52,1.24-.18.72-.21,1.5-.09,2.34.12.83.38,1.52.77,2.09.41.56.91.85,1.51.85ZM337.22,13.01c-.19,0-.34-.08-.45-.23s-.13-.35-.05-.59l1.6-5.4c.2-.7.3-1.2.29-1.51-.01-.32-.09-.49-.23-.49-.18,0-.45.18-.81.54-.35.35-.82.95-1.4,1.82-.58.86-1.27,2.01-2.07,3.44l-.59,2.2h-1.91l1.6-5.99c.13-.49.22-.88.25-1.17.04-.3.03-.51-.02-.63-.04-.13-.1-.2-.18-.2-.18,0-.45.18-.81.54-.35.35-.82.96-1.4,1.84-.58.86-1.27,2.01-2.07,3.44l-.59,2.18h-1.93l1.69-6.32c.07-.26.17-.56.31-.88.14-.32.28-.59.4-.79l.92.4c-1.49.42-2.71.92-3.67,1.51l-.2-.32,3.83-2.75c.17-.12.33-.18.49-.18.18,0,.31.07.4.22.1.14.11.33.05.56l-.88,3.33c-.16.55-.4,1.25-.72,2.09l-.11-.02c1.07-1.84,2.06-3.32,2.99-4.46.94-1.14,1.78-1.71,2.54-1.71.43,0,.73.26.88.77.17.5.1,1.34-.22,2.52l-.23.81c-.16.59-.39,1.28-.7,2.09l-.13-.02c1.07-1.84,2.06-3.32,2.99-4.46.94-1.14,1.78-1.71,2.54-1.71.44,0,.75.26.92.77.17.52.08,1.36-.27,2.52l-.97,3.31c-.08.28-.2.56-.34.86-.14.3-.29.58-.43.83l-.92-.41c1.49-.42,2.71-.92,3.67-1.51l.2.32-3.8,2.74c-.13.1-.28.14-.43.14ZM343.93,6.46c.07-.26.17-.56.31-.88.14-.32.28-.59.4-.79l.92.4c-1.49.42-2.71.92-3.67,1.51l-.2-.32,3.83-2.75c.17-.12.33-.18.49-.18.18,0,.31.07.4.22.1.14.11.33.05.56l-.61,2.29c-.1.37-.23.77-.4,1.21-.16.42-.31.77-.45,1.06l-.2.22c.62-1.26,1.25-2.3,1.89-3.13.64-.84,1.22-1.45,1.75-1.84.54-.38,1.03-.58,1.46-.58.47,0,.85.19,1.15.56.31.37.5.88.56,1.53.06.65-.01,1.37-.22,2.16-.28,1.02-.73,1.94-1.35,2.75-.62.82-1.31,1.45-2.07,1.91-.74.44-1.44.67-2.09.67-.61,0-1.08-.21-1.4-.63-.31-.42-.44-1-.38-1.75l.45.61-1.4,5.22h-1.89l2.68-10.01ZM346.47,12.38c.64,0,1.22-.29,1.76-.88.55-.6.96-1.38,1.22-2.34.17-.66.25-1.33.25-2s-.08-1.22-.25-1.66c-.16-.43-.38-.65-.68-.65-.32,0-.73.26-1.22.77-.49.5-.99,1.14-1.49,1.91-.49.77-.9,1.51-1.22,2.23-.07.42-.06.83.04,1.24.11.4.29.73.56.99.28.25.62.38,1.04.38ZM354.28,6.46c.07-.26.17-.56.31-.88.14-.32.28-.59.4-.79l.92.4c-1.49.42-2.71.92-3.67,1.51l-.2-.32,3.83-2.75c.17-.12.33-.18.49-.18.18,0,.31.07.4.22.1.14.11.33.05.56l-.88,3.37c-.17.6-.48,1.45-.94,2.54l-.11.07c.8-1.51,1.49-2.72,2.07-3.62.58-.91,1.18-1.66,1.82-2.25.65-.59,1.28-.86,1.91-.81l-.16,1.33c-.04.25-.13.44-.27.58-.14.13-.36.25-.65.34-.77.22-1.53.73-2.29,1.55-.74.8-1.48,1.91-2.21,3.31l-.58,2.16h-1.93l1.69-6.32ZM362.77,13.01c-.71,0-1.3-.19-1.76-.58-.47-.4-.78-.94-.94-1.62-.14-.7-.1-1.46.13-2.3.24-.88.65-1.7,1.22-2.48.59-.78,1.28-1.4,2.07-1.87.8-.48,1.63-.72,2.48-.72.73,0,1.33.17,1.78.52.46.34.59.82.41,1.46-.14.5-.45.95-.92,1.33-.47.37-1.04.71-1.73,1.01-.67.29-1.61.64-2.81,1.06l-1.15.4.13-.54,1.17-.41c.97-.34,1.76-.72,2.36-1.15.6-.44.97-.95,1.12-1.53.12-.42.09-.79-.09-1.1-.18-.31-.5-.47-.95-.47s-.91.17-1.31.52c-.41.35-.76.78-1.04,1.3-.29.5-.5,1.02-.65,1.55-.2.68-.29,1.37-.27,2.05.02.67.18,1.23.47,1.67.29.43.71.65,1.28.65.41,0,.88-.13,1.42-.4.54-.28,1.1-.67,1.69-1.19l.2.32c-.66.78-1.36,1.4-2.09,1.85-.73.44-1.47.67-2.21.67ZM374.97,13.01c-.19,0-.34-.08-.45-.23s-.13-.35-.07-.59l1.62-5.47c.22-.68.29-1.17.23-1.46-.05-.3-.17-.45-.36-.45-.3,0-.83.44-1.58,1.33-.76.88-1.75,2.36-2.99,4.45l-.59,2.2h-1.93l1.69-6.32c.07-.26.17-.56.31-.88.14-.32.28-.59.4-.79l.92.4c-1.49.42-2.71.92-3.67,1.51l-.2-.32,3.83-2.75c.17-.12.33-.18.49-.18.18,0,.31.07.4.22.1.14.11.33.05.56l-.88,3.33c-.17.64-.43,1.39-.79,2.25l-.11-.02c1.15-1.86,2.23-3.38,3.24-4.55,1.01-1.19,1.91-1.78,2.72-1.78.48,0,.8.26.97.79.18.53.11,1.36-.22,2.5l-.97,3.31c-.08.28-.2.56-.34.86-.14.3-.29.58-.43.83l-.94-.41c1.49-.42,2.72-.92,3.69-1.51l.2.32-3.8,2.74c-.13.1-.28.14-.43.14ZM381.43,13.01c-.47,0-.86-.19-1.17-.56-.3-.37-.49-.88-.56-1.53-.06-.65.02-1.37.23-2.16.28-1.02.72-1.94,1.33-2.75.62-.82,1.31-1.45,2.07-1.89.76-.46,1.46-.68,2.11-.68.61,0,1.08.21,1.4.63.32.42.45,1,.38,1.75l-.43-.61,1.08-4.09,1.26.45-3.31.07.05-.34c1.14-.22,2.17-.6,3.08-1.15.14-.1.29-.14.43-.14.18,0,.32.07.41.22.11.14.13.32.05.54l-2.47,9.25c-.08.31-.19.62-.32.94-.12.3-.25.56-.4.79l-.92-.41c1.49-.42,2.71-.92,3.67-1.51l.2.32-3.78,2.74c-.14.1-.29.14-.43.14-.19,0-.34-.08-.45-.23s-.13-.35-.07-.59l.63-2.23c.13-.43.26-.85.4-1.26.14-.42.28-.76.4-1.01l.22-.22c-.62,1.26-1.25,2.31-1.89,3.15-.64.83-1.22,1.43-1.75,1.82-.53.38-1.01.58-1.46.58ZM382.55,11.59c.32,0,.73-.25,1.22-.76.49-.52.98-1.16,1.48-1.93.5-.77.92-1.51,1.24-2.23.06-.42.04-.83-.05-1.22-.1-.41-.28-.74-.56-.99-.26-.26-.6-.4-1.01-.4-.65,0-1.25.3-1.8.9-.54.59-.94,1.36-1.21,2.32-.17.66-.25,1.33-.25,2s.08,1.22.25,1.66c.17.43.4.65.68.65ZM393.48,13.01c-.72,0-1.42-.14-2.09-.43-.67-.3-1.24-.67-1.71-1.12l.18-1.31c.02-.18.09-.31.2-.4.11-.1.23-.13.38-.11.16.01.29.08.41.22.6.66,1.27,1.19,2,1.58.73.4,1.37.59,1.91.59.29,0,.54-.06.76-.18.23-.13.37-.3.43-.5.05-.2,0-.43-.14-.67-.13-.24-.37-.5-.72-.79-.34-.3-.8-.65-1.39-1.06-.94-.67-1.58-1.27-1.94-1.8-.36-.54-.46-1.12-.29-1.75.16-.64.49-1.1,1.01-1.4.53-.3,1.18-.45,1.94-.45.52,0,1.02.07,1.51.2.5.13,1.04.32,1.6.58l-.16,1.26c-.05.28-.17.45-.38.52-.2.06-.4-.01-.59-.22-.49-.52-1.01-.94-1.55-1.28-.54-.34-1.01-.5-1.4-.5-.25,0-.47.06-.65.18-.18.11-.29.25-.32.41-.06.22-.02.45.13.7.14.25.37.52.68.81.32.29.73.61,1.21.97.7.49,1.21.92,1.55,1.3.35.37.58.74.68,1.12.12.36.13.77.02,1.22-.19.72-.58,1.28-1.15,1.69-.56.41-1.27.61-2.11.61ZM403.98,6.46c.07-.26.17-.56.31-.88.14-.32.28-.59.4-.79l.92.4c-1.49.42-2.71.92-3.67,1.51l-.2-.32,3.83-2.75c.17-.12.33-.18.49-.18.18,0,.31.07.4.22.1.14.11.33.05.56l-.61,2.29c-.1.37-.23.77-.4,1.21-.16.42-.31.77-.45,1.06l-.2.22c.62-1.26,1.25-2.3,1.89-3.13.64-.84,1.22-1.45,1.75-1.84.54-.38,1.03-.58,1.46-.58.47,0,.85.19,1.15.56.31.37.5.88.56,1.53.06.65-.01,1.37-.22,2.16-.28,1.02-.73,1.94-1.35,2.75-.62.82-1.31,1.45-2.07,1.91-.74.44-1.44.67-2.09.67-.61,0-1.08-.21-1.4-.63-.31-.42-.44-1-.38-1.75l.45.61-1.4,5.22h-1.89l2.68-10.01ZM406.51,12.38c.64,0,1.22-.29,1.76-.88.55-.6.96-1.38,1.22-2.34.17-.66.25-1.33.25-2s-.08-1.22-.25-1.66c-.16-.43-.38-.65-.68-.65-.32,0-.73.26-1.22.77-.49.5-.99,1.14-1.49,1.91-.49.77-.9,1.51-1.22,2.23-.07.42-.06.83.04,1.24.11.4.29.73.56.99.28.25.62.38,1.04.38ZM413.78,13.01c-.48,0-.87-.19-1.17-.56-.3-.37-.49-.88-.56-1.53-.07-.65,0-1.37.22-2.16.28-1.02.72-1.94,1.33-2.75.62-.82,1.31-1.45,2.07-1.89.76-.46,1.46-.68,2.11-.68s1.12.22,1.48.65c.37.42.52,1,.45,1.73l-.58.13.92-2.27h1.51l-.86,2.7-1.08,3.67c-.08.28-.2.57-.34.88-.14.3-.29.57-.43.81l-.94-.41c1.49-.42,2.71-.92,3.67-1.51l.2.32-3.78,2.74c-.14.1-.29.14-.43.14-.19,0-.35-.08-.47-.23-.12-.17-.14-.37-.05-.59l.68-2.05c.2-.64.43-1.22.67-1.76.1-.24.2-.47.31-.68l.16-.22c-.62,1.26-1.25,2.31-1.89,3.15-.62.83-1.21,1.43-1.75,1.82-.53.38-1.01.58-1.44.58ZM414.89,11.59c.31,0,.71-.25,1.21-.76.49-.52.98-1.16,1.48-1.93.5-.77.92-1.51,1.24-2.23.06-.42.04-.83-.05-1.22-.1-.41-.28-.74-.56-.99-.26-.26-.6-.4-1.01-.4-.65,0-1.25.3-1.8.9-.54.59-.94,1.36-1.21,2.32-.17.66-.25,1.33-.25,2s.08,1.22.25,1.66c.17.43.4.65.7.65ZM425.63,13.01c-.72,0-1.42-.14-2.09-.43-.67-.3-1.24-.67-1.71-1.12l.18-1.31c.02-.18.09-.31.2-.4.11-.1.23-.13.38-.11.16.01.29.08.41.22.6.66,1.27,1.19,2,1.58.73.4,1.37.59,1.91.59.29,0,.54-.06.76-.18.23-.13.37-.3.43-.5.05-.2,0-.43-.14-.67-.13-.24-.37-.5-.72-.79-.34-.3-.8-.65-1.39-1.06-.94-.67-1.58-1.27-1.94-1.8-.36-.54-.46-1.12-.29-1.75.16-.64.49-1.1,1.01-1.4.53-.3,1.18-.45,1.94-.45.52,0,1.02.07,1.51.2.5.13,1.04.32,1.6.58l-.16,1.26c-.05.28-.17.45-.38.52-.2.06-.4-.01-.59-.22-.49-.52-1.01-.94-1.55-1.28-.54-.34-1.01-.5-1.4-.5-.25,0-.47.06-.65.18-.18.11-.29.25-.32.41-.06.22-.02.45.13.7.14.25.37.52.68.81.32.29.73.61,1.21.97.7.49,1.21.92,1.55,1.3.35.37.58.74.68,1.12.12.36.13.77.02,1.22-.19.72-.58,1.28-1.15,1.69-.56.41-1.27.61-2.11.61ZM283.55,28.46c.07-.26.17-.56.31-.88.14-.32.28-.59.4-.79l.92.4c-1.49.42-2.71.92-3.67,1.51l-.2-.32,3.83-2.75c.17-.12.33-.18.49-.18.18,0,.31.07.4.22.1.14.11.33.05.56l-.61,2.29c-.1.37-.23.77-.4,1.21-.16.42-.31.77-.45,1.06l-.2.22c.62-1.26,1.25-2.3,1.89-3.13.64-.84,1.22-1.45,1.75-1.84.54-.38,1.03-.58,1.46-.58.47,0,.85.19,1.15.56.31.37.5.88.56,1.53.06.65-.01,1.37-.22,2.16-.28,1.02-.73,1.94-1.35,2.75-.62.82-1.31,1.45-2.07,1.91-.74.44-1.44.67-2.09.67-.61,0-1.08-.21-1.4-.63-.31-.42-.44-1-.38-1.75l.45.61-1.4,5.22h-1.89l2.68-10.01ZM286.09,34.38c.64,0,1.22-.29,1.76-.88.55-.6.96-1.38,1.22-2.34.17-.66.25-1.33.25-2s-.08-1.22-.25-1.66c-.16-.43-.38-.65-.68-.65-.32,0-.73.26-1.22.77-.49.5-.99,1.14-1.49,1.91-.49.77-.9,1.51-1.22,2.23-.07.42-.06.83.04,1.24.11.4.29.73.56.99.28.25.62.38,1.04.38ZM294.61,35.01c-.78,0-1.42-.2-1.91-.59-.48-.41-.79-.96-.94-1.66-.13-.71-.08-1.49.14-2.36.23-.86.62-1.68,1.19-2.45.58-.77,1.24-1.38,2-1.84.77-.46,1.55-.68,2.36-.68s1.38.21,1.84.63c.47.42.76.99.88,1.71.13.71.08,1.49-.14,2.34-.24.9-.64,1.73-1.19,2.48-.55.74-1.2,1.33-1.94,1.76-.73.43-1.49.65-2.29.65ZM295.87,34.17c.37,0,.72-.12,1.04-.36.34-.25.62-.57.85-.95.24-.4.42-.81.54-1.24.19-.72.23-1.5.11-2.34-.12-.84-.38-1.54-.79-2.11-.41-.56-.91-.85-1.51-.85-.36,0-.71.13-1.04.38-.34.24-.62.56-.86.95-.23.4-.4.81-.52,1.24-.18.72-.21,1.5-.09,2.34.12.83.38,1.52.77,2.09.41.56.91.85,1.51.85ZM302.86,35.01c-.48,0-.8-.25-.97-.76-.17-.52-.1-1.36.22-2.54l.86-3.26c.07-.26.17-.56.31-.88.14-.32.28-.59.4-.79l.92.4c-1.49.42-2.71.92-3.67,1.51l-.2-.32,3.83-2.75c.17-.12.33-.18.49-.18.18,0,.31.07.4.22.1.14.11.33.05.56l-1.48,5.53c-.18.7-.25,1.19-.22,1.48.05.29.17.43.36.43.3,0,.85-.47,1.64-1.42.79-.95,1.85-2.54,3.19-4.79l.63-1.76h1.62l-1.69,6.34c-.08.31-.19.62-.32.94-.12.3-.25.56-.38.79l-.92-.41c1.49-.42,2.71-.92,3.67-1.51l.2.32-3.8,2.74c-.13.1-.27.14-.41.14-.19,0-.34-.08-.45-.23s-.14-.35-.09-.59l.88-3.28c.17-.64.43-1.39.79-2.25l.11.02c-1.15,1.86-2.23,3.38-3.24,4.57-1.01,1.18-1.91,1.76-2.72,1.76ZM314.4,28.46c.07-.26.17-.56.31-.88.14-.32.28-.59.4-.79l.92.4c-1.49.42-2.71.92-3.67,1.51l-.2-.32,3.83-2.75c.17-.12.33-.18.49-.18.18,0,.31.07.4.22.1.14.11.33.05.56l-.88,3.37c-.17.6-.48,1.45-.94,2.54l-.11.07c.8-1.51,1.49-2.72,2.07-3.62.58-.91,1.18-1.66,1.82-2.25.65-.59,1.28-.86,1.91-.81l-.16,1.33c-.04.25-.13.44-.27.58-.14.13-.36.25-.65.34-.77.22-1.53.73-2.29,1.55-.74.8-1.48,1.91-2.21,3.31l-.58,2.16h-1.93l1.69-6.32ZM325.82,31.95c.1-.37.22-.77.38-1.19.17-.42.32-.78.45-1.08l.22-.22c-.62,1.26-1.25,2.31-1.89,3.15-.62.83-1.21,1.43-1.75,1.82-.53.38-1.01.58-1.44.58-.48,0-.87-.19-1.17-.56-.3-.37-.49-.88-.56-1.53-.07-.65,0-1.37.22-2.16.28-1.02.72-1.94,1.33-2.75.62-.82,1.31-1.45,2.07-1.89.76-.46,1.46-.68,2.11-.68s1.12.22,1.48.65c.37.42.52,1,.45,1.73l-.58.13.92-2.27h1.49l-.85,2.7-2.68,10.1h-1.93l1.73-6.52ZM322.91,33.59c.31,0,.71-.25,1.21-.76.49-.52.98-1.16,1.48-1.93.5-.77.92-1.51,1.24-2.23.06-.42.04-.83-.05-1.22-.1-.41-.28-.74-.56-.99-.26-.26-.6-.4-1.01-.4-.65,0-1.25.3-1.8.9-.54.59-.94,1.36-1.21,2.32-.17.66-.25,1.33-.25,2s.08,1.22.25,1.66c.17.43.4.65.7.65ZM331.55,35.01c-.48,0-.8-.25-.97-.76-.17-.52-.1-1.36.22-2.54l.86-3.26c.07-.26.17-.56.31-.88.14-.32.28-.59.4-.79l.92.4c-1.49.42-2.71.92-3.67,1.51l-.2-.32,3.83-2.75c.17-.12.33-.18.49-.18.18,0,.31.07.4.22.1.14.11.33.05.56l-1.48,5.53c-.18.7-.25,1.19-.22,1.48.05.29.17.43.36.43.3,0,.85-.47,1.64-1.42.79-.95,1.85-2.54,3.19-4.79l.63-1.76h1.62l-1.69,6.34c-.08.31-.19.62-.32.94-.12.3-.25.56-.38.79l-.92-.41c1.49-.42,2.71-.92,3.67-1.51l.2.32-3.8,2.74c-.13.1-.27.14-.41.14-.19,0-.34-.08-.45-.23s-.14-.35-.09-.59l.88-3.28c.17-.64.43-1.39.79-2.25l.11.02c-1.15,1.86-2.23,3.38-3.24,4.57-1.01,1.18-1.91,1.76-2.72,1.76ZM344.11,35.01c-.78,0-1.42-.2-1.91-.59-.48-.41-.79-.96-.94-1.66-.13-.71-.08-1.49.14-2.36.23-.86.62-1.68,1.19-2.45.58-.77,1.24-1.38,2-1.84.77-.46,1.55-.68,2.36-.68s1.38.21,1.84.63c.47.42.76.99.88,1.71.13.71.08,1.49-.14,2.34-.24.9-.64,1.73-1.19,2.48-.55.74-1.2,1.33-1.94,1.76-.73.43-1.49.65-2.29.65ZM345.37,34.17c.37,0,.72-.12,1.04-.36.34-.25.62-.57.85-.95.24-.4.42-.81.54-1.24.19-.72.23-1.5.11-2.34-.12-.84-.38-1.54-.79-2.11-.41-.56-.91-.85-1.51-.85-.36,0-.71.13-1.04.38-.34.24-.62.56-.86.95-.23.4-.4.81-.52,1.24-.18.72-.21,1.5-.09,2.34.12.83.38,1.52.77,2.09.41.56.91.85,1.51.85ZM351.27,35.01c-.19,0-.34-.08-.45-.23s-.13-.35-.05-.59l1.69-5.74c.07-.24.18-.52.32-.85.16-.32.31-.59.45-.81l.92.4c-1.49.42-2.71.92-3.67,1.51l-.2-.32,3.83-2.75c.17-.12.33-.18.49-.18.18,0,.31.07.4.22.1.14.11.33.04.56l-1.71,5.83c-.08.28-.2.56-.34.86-.13.3-.28.58-.43.83l-.92-.41c1.48-.42,2.69-.92,3.65-1.51l.22.32-3.78,2.74c-.16.1-.31.14-.45.14ZM354.76,24.23c-.36,0-.62-.12-.77-.36-.16-.25-.19-.52-.09-.81.06-.25.2-.45.43-.59.24-.16.5-.23.77-.23.36,0,.61.13.76.38.16.24.19.51.11.81-.08.25-.24.45-.47.59-.22.14-.46.22-.74.22ZM357.09,37.32c.02-.31.15-.52.38-.63.22-.1.45-.06.7.11.68.4,1.18.56,1.49.5.31-.06.53-.35.67-.88.14-.53.29-1.51.43-2.95l.09-1.22,1.01-3.78c.08-.26.19-.56.32-.88.13-.32.26-.59.38-.79l.92.4c-1.48.42-2.69.92-3.65,1.51l-.22-.32,3.83-2.75c.17-.12.33-.18.49-.18.19,0,.33.07.41.22.1.14.11.32.04.54l-1.71,6.44c-.41,1.52-.91,2.75-1.49,3.67-.59.94-1.23,1.59-1.93,1.96-.71.37-1.47.5-2.29.38l.13-1.33ZM364.05,24.23c-.36,0-.62-.12-.77-.36-.16-.25-.19-.52-.09-.81.06-.25.2-.45.43-.59.24-.16.5-.23.77-.23.36,0,.61.13.76.38.16.24.19.51.11.81-.08.25-.24.45-.47.59-.22.14-.46.22-.74.22ZM366.21,26.93l1.75-4.75,1.17-.02c.2,0,.37.05.49.14.12.1.18.23.18.4,0,.16-.07.31-.2.45-.64.76-1.19,1.45-1.67,2.07-.47.61-.92,1.25-1.35,1.91l-.36-.2ZM369.48,35.01c-.48,0-.87-.19-1.17-.56-.3-.37-.49-.88-.56-1.53-.07-.65,0-1.37.22-2.16.28-1.02.72-1.94,1.33-2.75.62-.82,1.31-1.45,2.07-1.89.76-.46,1.46-.68,2.11-.68s1.12.22,1.48.65c.37.42.52,1,.45,1.73l-.58.13.92-2.27h1.51l-.86,2.7-1.08,3.67c-.08.28-.2.57-.34.88-.14.3-.29.57-.43.81l-.94-.41c1.49-.42,2.71-.92,3.67-1.51l.2.32-3.78,2.74c-.14.1-.29.14-.43.14-.19,0-.35-.08-.47-.23-.12-.17-.14-.37-.05-.59l.68-2.05c.2-.64.43-1.22.67-1.76.1-.24.2-.47.31-.68l.16-.22c-.62,1.26-1.25,2.31-1.89,3.15-.62.83-1.21,1.43-1.75,1.82-.53.38-1.01.58-1.44.58ZM370.6,33.59c.31,0,.71-.25,1.21-.76.49-.52.98-1.16,1.48-1.93.5-.77.92-1.51,1.24-2.23.06-.42.04-.83-.05-1.22-.1-.41-.28-.74-.56-.99-.26-.26-.6-.4-1.01-.4-.65,0-1.25.3-1.8.9-.54.59-.94,1.36-1.21,2.32-.17.66-.25,1.33-.25,2s.08,1.22.25,1.66c.17.43.4.65.7.65ZM378.71,35.01c-.19,0-.34-.08-.45-.23s-.13-.35-.05-.59l1.69-5.74c.07-.24.18-.52.32-.85.16-.32.31-.59.45-.81l.92.4c-1.49.42-2.71.92-3.67,1.51l-.2-.32,3.83-2.75c.17-.12.33-.18.49-.18.18,0,.31.07.4.22.1.14.11.33.04.56l-1.71,5.83c-.08.28-.2.56-.34.86-.13.3-.28.58-.43.83l-.92-.41c1.48-.42,2.69-.92,3.65-1.51l.22.32-3.78,2.74c-.16.1-.31.14-.45.14ZM382.2,24.23c-.36,0-.62-.12-.77-.36-.16-.25-.19-.52-.09-.81.06-.25.2-.45.43-.59.24-.16.5-.23.77-.23.36,0,.61.13.76.38.16.24.19.51.11.81-.08.25-.24.45-.47.59-.22.14-.46.22-.74.22ZM388.97,35.01c-.48,0-.87-.19-1.17-.56-.3-.37-.49-.88-.56-1.53-.07-.65,0-1.37.22-2.16.28-1.02.72-1.94,1.33-2.75.62-.82,1.31-1.45,2.07-1.89.76-.46,1.46-.68,2.11-.68s1.12.22,1.48.65c.37.42.52,1,.45,1.73l-.58.13.92-2.27h1.51l-.86,2.7-1.08,3.67c-.08.28-.2.57-.34.88-.14.3-.29.57-.43.81l-.94-.41c1.49-.42,2.71-.92,3.67-1.51l.2.32-3.78,2.74c-.14.1-.29.14-.43.14-.19,0-.35-.08-.47-.23-.12-.17-.14-.37-.05-.59l.68-2.05c.2-.64.43-1.22.67-1.76.1-.24.2-.47.31-.68l.16-.22c-.62,1.26-1.25,2.31-1.89,3.15-.62.83-1.21,1.43-1.75,1.82-.53.38-1.01.58-1.44.58ZM390.09,33.59c.31,0,.71-.25,1.21-.76.49-.52.98-1.16,1.48-1.93.5-.77.92-1.51,1.24-2.23.06-.42.04-.83-.05-1.22-.1-.41-.28-.74-.56-.99-.26-.26-.6-.4-1.01-.4-.65,0-1.25.3-1.8.9-.54.59-.94,1.36-1.21,2.32-.17.66-.25,1.33-.25,2s.08,1.22.25,1.66c.17.43.4.65.7.65ZM399.78,38.7c-.53,0-1.05-.1-1.57-.29-.5-.18-.96-.43-1.37-.74-.22-.14-.31-.33-.27-.56.02-.23.16-.41.4-.54.62-.32,1.22-.67,1.78-1.03.56-.35,1-.65,1.3-.9h.27c-.24.12-.45.21-.63.27-.17.06-.34.09-.5.09-.46,0-.83-.19-1.13-.56-.3-.37-.49-.88-.56-1.53s0-1.37.22-2.16c.28-1.02.72-1.94,1.33-2.75.62-.82,1.31-1.45,2.07-1.89.76-.46,1.46-.68,2.11-.68s1.12.22,1.48.65c.37.42.52,1,.45,1.73l-.61.22.95-2.36h1.49l-.85,2.7-1.17,4.34c-.58,2.15-1.31,3.68-2.2,4.61-.89.92-1.88,1.39-2.99,1.39ZM401.29,37.68c.31,0,.56-.1.76-.31.19-.2.37-.6.52-1.19.16-.58.3-1.43.43-2.57l.56-3.28.23.04c-.24.5-.56,1.05-.95,1.64-.38.58-.82,1.13-1.3,1.67-.95,1.03-2.08,2.08-3.4,3.13v-.72c.56.5,1.11.89,1.64,1.17.54.28,1.04.41,1.51.41ZM400.34,33.59c.31,0,.71-.25,1.21-.76.49-.52.98-1.16,1.48-1.93.5-.77.92-1.51,1.24-2.23.06-.42.04-.83-.05-1.22-.1-.41-.28-.74-.56-.99-.26-.26-.6-.4-1.01-.4-.65,0-1.25.3-1.8.9-.54.59-.94,1.36-1.21,2.32-.17.66-.25,1.33-.25,2s.08,1.22.25,1.66c.17.43.4.65.7.65ZM407.88,35.01c-.19,0-.34-.08-.45-.23s-.13-.35-.05-.59l1.69-5.74c.07-.24.18-.52.32-.85.16-.32.31-.59.45-.81l.92.4c-1.49.42-2.71.92-3.67,1.51l-.2-.32,3.83-2.75c.17-.12.33-.18.49-.18.18,0,.31.07.4.22.1.14.11.33.04.56l-1.71,5.83c-.08.28-.2.56-.34.86-.13.3-.28.58-.43.83l-.92-.41c1.48-.42,2.69-.92,3.65-1.51l.22.32-3.78,2.74c-.16.1-.31.14-.45.14ZM411.38,24.23c-.36,0-.62-.12-.77-.36-.16-.25-.19-.52-.09-.81.06-.25.2-.45.43-.59.24-.16.5-.23.77-.23.36,0,.61.13.76.38.16.24.19.51.11.81-.08.25-.24.45-.47.59-.22.14-.46.22-.74.22ZM311.58,57.01c-.83,0-1.49-.22-2-.67s-.82-1.03-.94-1.76c-.12-.74-.04-1.55.25-2.43.3-.89.76-1.69,1.37-2.39.61-.72,1.31-1.28,2.09-1.69.78-.42,1.55-.63,2.32-.63.46,0,.89.07,1.31.22.43.14.76.34.99.59l-.22,1.6c-.04.18-.12.32-.25.41-.12.08-.26.11-.41.07-.16-.04-.27-.14-.34-.31-.35-.62-.71-1.07-1.1-1.35-.38-.28-.77-.41-1.17-.41s-.79.12-1.15.36c-.36.23-.68.54-.95.94-.26.38-.47.82-.63,1.3-.23.73-.31,1.47-.23,2.21s.3,1.36.68,1.85c.4.48.93.72,1.6.72.52,0,1.04-.13,1.58-.4.54-.28,1.08-.64,1.62-1.1l.22.32c-.72.79-1.47,1.42-2.25,1.87-.78.44-1.58.67-2.39.67ZM320.12,57.01c-.78,0-1.42-.2-1.91-.59-.48-.41-.79-.96-.94-1.66-.13-.71-.08-1.49.14-2.36.23-.86.62-1.68,1.19-2.45.58-.77,1.24-1.38,2-1.84.77-.46,1.55-.68,2.36-.68s1.38.21,1.84.63c.47.42.76.99.88,1.71.13.71.08,1.49-.14,2.34-.24.9-.64,1.73-1.19,2.48-.55.74-1.2,1.33-1.94,1.76-.73.43-1.49.65-2.29.65ZM321.38,56.17c.37,0,.72-.12,1.04-.36.34-.25.62-.57.85-.95.24-.4.42-.81.54-1.24.19-.72.23-1.5.11-2.34s-.38-1.54-.79-2.11c-.41-.56-.91-.85-1.51-.85-.36,0-.71.13-1.04.38-.34.24-.62.56-.86.95-.23.4-.4.81-.52,1.24-.18.72-.21,1.5-.09,2.34.12.83.38,1.52.77,2.09.41.56.91.85,1.51.85ZM337.63,57.01c-.19,0-.34-.08-.45-.23s-.13-.35-.05-.59l1.6-5.4c.2-.7.3-1.2.29-1.51-.01-.32-.09-.49-.23-.49-.18,0-.45.18-.81.54-.35.35-.82.95-1.4,1.82-.58.86-1.27,2.01-2.07,3.44l-.59,2.2h-1.91l1.6-5.99c.13-.49.22-.88.25-1.17.04-.3.03-.51-.02-.63-.04-.13-.1-.2-.18-.2-.18,0-.45.18-.81.54-.35.35-.82.96-1.4,1.84-.58.86-1.27,2.01-2.07,3.44l-.59,2.18h-1.93l1.69-6.32c.07-.26.17-.56.31-.88.14-.32.28-.59.4-.79l.92.4c-1.49.42-2.71.92-3.67,1.51l-.2-.32,3.83-2.75c.17-.12.33-.18.49-.18.18,0,.31.07.4.22.1.14.11.33.05.56l-.88,3.33c-.16.55-.4,1.25-.72,2.09l-.11-.02c1.07-1.84,2.06-3.32,2.99-4.46.94-1.14,1.78-1.71,2.54-1.71.43,0,.73.26.88.77.17.5.1,1.34-.22,2.52l-.23.81c-.16.59-.39,1.28-.7,2.09l-.13-.02c1.07-1.84,2.06-3.32,2.99-4.46.94-1.14,1.78-1.71,2.54-1.71.44,0,.75.26.92.77.17.52.08,1.36-.27,2.52l-.97,3.31c-.08.28-.2.56-.34.86-.14.3-.29.58-.43.83l-.92-.41c1.49-.42,2.71-.92,3.67-1.51l.2.32-3.8,2.74c-.13.1-.28.14-.43.14ZM353.43,57.01c-.19,0-.34-.08-.45-.23s-.13-.35-.05-.59l1.6-5.4c.2-.7.3-1.2.29-1.51-.01-.32-.09-.49-.23-.49-.18,0-.45.18-.81.54-.35.35-.82.95-1.4,1.82-.58.86-1.27,2.01-2.07,3.44l-.59,2.2h-1.91l1.6-5.99c.13-.49.22-.88.25-1.17.04-.3.03-.51-.02-.63-.04-.13-.1-.2-.18-.2-.18,0-.45.18-.81.54-.35.35-.82.96-1.4,1.84-.58.86-1.27,2.01-2.07,3.44l-.59,2.18h-1.93l1.69-6.32c.07-.26.17-.56.31-.88.14-.32.28-.59.4-.79l.92.4c-1.49.42-2.71.92-3.67,1.51l-.2-.32,3.83-2.75c.17-.12.33-.18.49-.18.18,0,.31.07.4.22.1.14.11.33.05.56l-.88,3.33c-.16.55-.4,1.25-.72,2.09l-.11-.02c1.07-1.84,2.06-3.32,2.99-4.46.94-1.14,1.78-1.71,2.54-1.71.43,0,.73.26.88.77.17.5.1,1.34-.22,2.52l-.23.81c-.16.59-.39,1.28-.7,2.09l-.13-.02c1.07-1.84,2.06-3.32,2.99-4.46.94-1.14,1.78-1.71,2.54-1.71.44,0,.75.26.92.77.17.52.08,1.36-.27,2.52l-.97,3.31c-.08.28-.2.56-.34.86-.14.3-.29.58-.43.83l-.92-.41c1.49-.42,2.71-.92,3.67-1.51l.2.32-3.8,2.74c-.13.1-.28.14-.43.14ZM361.01,57.01c-.71,0-1.3-.19-1.76-.58-.47-.4-.78-.94-.94-1.62-.14-.7-.1-1.46.13-2.3.24-.88.65-1.7,1.22-2.48.59-.78,1.28-1.4,2.07-1.87.8-.48,1.63-.72,2.48-.72.73,0,1.33.17,1.78.52.46.34.59.82.41,1.46-.14.5-.45.95-.92,1.33-.47.37-1.04.71-1.73,1.01-.67.29-1.61.64-2.81,1.06l-1.15.4.13-.54,1.17-.41c.97-.34,1.76-.72,2.36-1.15.6-.44.97-.95,1.12-1.53.12-.42.09-.79-.09-1.1-.18-.31-.5-.47-.95-.47s-.91.17-1.31.52c-.41.35-.76.78-1.04,1.3-.29.5-.5,1.02-.65,1.55-.2.68-.29,1.37-.27,2.05.02.67.18,1.23.47,1.67.29.43.71.65,1.28.65.41,0,.88-.13,1.42-.4.54-.28,1.1-.67,1.69-1.19l.2.32c-.66.78-1.36,1.4-2.09,1.85-.73.44-1.47.67-2.21.67ZM373.51,57.01c-.83,0-1.49-.22-2-.67s-.82-1.03-.94-1.76c-.12-.74-.04-1.55.25-2.43.3-.89.76-1.69,1.37-2.39.61-.72,1.31-1.28,2.09-1.69.78-.42,1.55-.63,2.32-.63.46,0,.89.07,1.31.22.43.14.76.34.99.59l-.22,1.6c-.04.18-.12.32-.25.41-.12.08-.26.11-.41.07-.16-.04-.27-.14-.34-.31-.35-.62-.71-1.07-1.1-1.35-.38-.28-.77-.41-1.17-.41s-.79.12-1.15.36c-.36.23-.68.54-.95.94-.26.38-.47.82-.63,1.3-.23.73-.31,1.47-.23,2.21s.3,1.36.68,1.85c.4.48.93.72,1.6.72.52,0,1.04-.13,1.58-.4.54-.28,1.08-.64,1.62-1.1l.22.32c-.72.79-1.47,1.42-2.25,1.87-.78.44-1.58.67-2.39.67ZM372.47,60.7c-.52,0-.98-.17-1.4-.52l.43-.56c.1-.13.2-.2.32-.22.12-.01.25.03.38.13.18.13.36.23.54.29.18.07.34.11.49.11.1,0,.17-.02.23-.05.07-.04.12-.09.14-.16.05-.18-.11-.4-.49-.67-.37-.25-.8-.44-1.28-.56l1.26-1.71h.58l-.99,1.39-.29-.36c.36-.02.68.03.97.16.3.14.52.34.65.59.14.26.17.58.09.94-.1.38-.29.68-.59.9-.29.22-.64.32-1.04.31ZM380.79,57.01c-.48,0-.87-.19-1.17-.56-.3-.37-.49-.88-.56-1.53s0-1.37.22-2.16c.28-1.02.72-1.94,1.33-2.75.62-.82,1.31-1.45,2.07-1.89.76-.46,1.46-.68,2.11-.68s1.12.22,1.48.65c.37.42.52,1,.45,1.73l-.58.13.92-2.27h1.51l-.86,2.7-1.08,3.67c-.08.28-.2.57-.34.88-.14.3-.29.57-.43.81l-.94-.41c1.49-.42,2.71-.92,3.67-1.51l.2.32-3.78,2.74c-.14.1-.29.14-.43.14-.19,0-.35-.08-.47-.23-.12-.17-.14-.37-.05-.59l.68-2.05c.2-.64.43-1.22.67-1.76.1-.24.2-.47.31-.68l.16-.22c-.62,1.26-1.25,2.31-1.89,3.15-.62.83-1.21,1.43-1.75,1.82-.53.38-1.01.58-1.44.58ZM381.91,55.59c.31,0,.71-.25,1.21-.76.49-.52.98-1.16,1.48-1.93.5-.77.92-1.51,1.24-2.23.06-.42.04-.83-.05-1.22-.1-.41-.28-.74-.56-.99-.26-.26-.6-.4-1.01-.4-.65,0-1.25.3-1.8.9-.54.59-.94,1.36-1.21,2.32-.17.66-.25,1.33-.25,2s.08,1.22.25,1.66c.17.43.4.65.7.65Z"/>
  <path class="cls-2" d="M284.14,75.39c.39-3.64,8.7-7,11.81-5.4,1.12.58,4.21,7.12,5.45,4.88,1.33-2.39,4.66-6.47,6.81-7.95,11.14-7.64,14.93,26.06,29.02,8.93,2.05-2.49,3.67-5.65,6.16-7.74,2.94-2.47,5.75,3.91,7.07,5.45,2.03,2.39,3.87,6.35,7.47,6.49,3.76.15,4.9-3.3,7.97-4.88,5.81-2.99,11.35-1.53,17.26.21,7.58,2.23,12.3,1.13,19.98,0"/>
  <path class="cls-1" d="M3.85,20.01c-1.06,0-1.91-.31-2.56-.94-.65-.62-1.06-1.45-1.22-2.47-.16-1.02-.07-2.12.27-3.31.34-1.18.88-2.25,1.64-3.22s1.62-1.73,2.59-2.29c.97-.56,1.96-.85,2.95-.85.6,0,1.18.11,1.73.34.55.22,1.02.53,1.4.95l-.25,1.89c-.02.2-.1.35-.23.45s-.28.13-.43.09c-.16-.05-.28-.16-.38-.34-.44-.86-.94-1.49-1.48-1.87-.54-.38-1.11-.58-1.71-.58-.64,0-1.23.19-1.78.58-.55.37-1.03.88-1.44,1.51-.4.62-.7,1.31-.92,2.07-.3,1.09-.38,2.12-.23,3.1.16.97.53,1.76,1.12,2.36.59.6,1.36.9,2.3.9.59,0,1.18-.13,1.78-.38.61-.25,1.21-.61,1.8-1.06l.2.32c-.83.91-1.67,1.6-2.54,2.05-.86.46-1.73.68-2.61.68ZM11.47,11.93l1.75-4.75,1.17-.02c.2,0,.37.05.49.14.12.1.18.23.18.4,0,.16-.07.31-.2.45-.64.76-1.19,1.45-1.67,2.07-.47.61-.92,1.25-1.35,1.91l-.36-.2ZM15.84,20.01c-.71,0-1.3-.19-1.76-.58-.47-.4-.78-.94-.94-1.62-.14-.7-.1-1.46.13-2.3.24-.88.65-1.7,1.22-2.48.59-.78,1.28-1.4,2.07-1.87.8-.48,1.63-.72,2.48-.72.73,0,1.33.17,1.78.52.46.34.59.82.41,1.46-.14.5-.45.95-.92,1.33-.47.37-1.04.71-1.73,1.01-.67.29-1.61.64-2.81,1.06l-1.15.4.13-.54,1.17-.41c.97-.34,1.76-.72,2.36-1.15.6-.44.97-.95,1.12-1.53.12-.42.09-.79-.09-1.1-.18-.31-.5-.47-.95-.47s-.91.17-1.31.52c-.41.35-.76.78-1.04,1.3-.29.5-.5,1.02-.65,1.55-.2.68-.29,1.37-.27,2.05.02.67.18,1.23.47,1.67.29.43.71.65,1.28.65.41,0,.88-.13,1.42-.4.54-.28,1.1-.67,1.69-1.19l.2.32c-.66.78-1.36,1.4-2.09,1.85-.73.44-1.47.67-2.21.67ZM24.82,20.01c-.72,0-1.42-.14-2.09-.43-.67-.3-1.24-.67-1.71-1.12l.18-1.31c.02-.18.09-.31.2-.4.11-.1.23-.13.38-.11.16.01.29.08.41.22.6.66,1.27,1.19,2,1.58s1.37.59,1.91.59c.29,0,.54-.06.76-.18.23-.13.37-.3.43-.5.05-.2,0-.43-.14-.67-.13-.24-.37-.5-.72-.79-.34-.3-.8-.65-1.39-1.06-.94-.67-1.58-1.27-1.94-1.8-.36-.54-.46-1.12-.29-1.75.16-.64.49-1.1,1.01-1.4.53-.3,1.18-.45,1.94-.45.52,0,1.02.07,1.51.2.5.13,1.04.32,1.6.58l-.16,1.26c-.05.28-.17.45-.38.52-.2.06-.4-.01-.59-.22-.49-.52-1.01-.94-1.55-1.28-.54-.34-1.01-.5-1.4-.5-.25,0-.47.06-.65.18-.18.11-.29.25-.32.41-.06.22-.02.45.13.7.14.25.37.52.68.81.32.29.73.61,1.21.97.7.49,1.21.92,1.55,1.3.35.37.58.74.68,1.12.12.36.13.77.02,1.22-.19.72-.58,1.28-1.15,1.69-.56.41-1.27.61-2.11.61ZM31.11,20.01c-.64,0-1.06-.22-1.28-.65-.2-.43-.17-1.13.09-2.11l1.62-6.07h-.92l.05-.34c1.36-.42,2.43-1.29,3.22-2.61h.36l-.65,2.43h3.51l-.05.52h-3.58l-1.84,6.84c-.12.42-.2.74-.23.95-.02.2-.02.34.02.41s.1.11.2.11c.22,0,.55-.21,1.01-.63.47-.42,1.02-1.03,1.66-1.84.11-.14.23-.22.38-.22.16-.01.28.04.38.14s.13.25.09.41l-.2,1.37c-.58.35-1.23.65-1.96.9-.73.24-1.36.36-1.87.36ZM41.07,20.01c-.19,0-.34-.08-.45-.23-.11-.16-.13-.35-.05-.59l1.69-5.74c.07-.24.18-.52.32-.85.16-.32.31-.59.45-.81l.92.4c-1.49.42-2.71.92-3.67,1.51l-.2-.32,3.83-2.75c.17-.12.33-.18.49-.18.18,0,.31.07.4.22.1.14.11.33.04.56l-1.71,5.83c-.08.28-.2.56-.34.86-.13.3-.28.58-.43.83l-.92-.41c1.48-.42,2.69-.92,3.65-1.51l.22.32-3.78,2.74c-.16.1-.31.14-.45.14ZM44.57,9.23c-.36,0-.62-.12-.77-.36-.16-.25-.19-.52-.09-.81.06-.25.2-.45.43-.59.24-.16.5-.23.77-.23.36,0,.61.13.76.38.16.24.19.51.11.81-.08.25-.24.45-.47.59-.22.14-.46.22-.74.22ZM52.19,20.01c-.19,0-.34-.08-.45-.23s-.13-.35-.07-.59l1.62-5.47c.22-.68.29-1.17.23-1.46-.05-.3-.17-.45-.36-.45-.3,0-.83.44-1.58,1.33-.76.88-1.75,2.36-2.99,4.45l-.59,2.2h-1.93l1.69-6.32c.07-.26.17-.56.31-.88.14-.32.28-.59.4-.79l.92.4c-1.49.42-2.71.92-3.67,1.51l-.2-.32,3.83-2.75c.17-.12.33-.18.49-.18.18,0,.31.07.4.22.1.14.11.33.05.56l-.88,3.33c-.17.64-.43,1.39-.79,2.25l-.11-.02c1.15-1.86,2.23-3.38,3.24-4.55,1.01-1.19,1.91-1.78,2.72-1.78.48,0,.8.26.97.79.18.53.11,1.36-.22,2.5l-.97,3.31c-.08.28-.2.56-.34.86-.14.3-.29.58-.43.83l-.94-.41c1.49-.42,2.72-.92,3.69-1.51l.2.32-3.8,2.74c-.13.1-.28.14-.43.14ZM54.1,22.32c.02-.31.15-.52.38-.63.22-.1.45-.06.7.11.68.4,1.18.56,1.49.5.31-.06.53-.35.67-.88.14-.53.29-1.51.43-2.95l.09-1.22,1.01-3.78c.08-.26.19-.56.32-.88.13-.32.26-.59.38-.79l.92.4c-1.48.42-2.69.92-3.65,1.51l-.22-.32,3.83-2.75c.17-.12.33-.18.49-.18.19,0,.33.07.41.22.1.14.11.32.04.54l-1.71,6.44c-.41,1.52-.91,2.75-1.49,3.67-.59.94-1.23,1.59-1.93,1.96-.71.37-1.47.5-2.29.38l.13-1.33ZM61.07,9.23c-.36,0-.62-.12-.77-.36-.16-.25-.19-.52-.09-.81.06-.25.2-.45.43-.59.24-.16.5-.23.77-.23.36,0,.61.13.76.38.16.24.19.51.11.81-.08.25-.24.45-.47.59-.22.14-.46.22-.74.22ZM63.65,20.01c-.48,0-.8-.25-.97-.76-.17-.52-.1-1.36.22-2.54l.86-3.26c.07-.26.17-.56.31-.88.14-.32.28-.59.4-.79l.92.4c-1.49.42-2.71.92-3.67,1.51l-.2-.32,3.83-2.75c.17-.12.33-.18.49-.18.18,0,.31.07.4.22.1.14.11.33.05.56l-1.48,5.53c-.18.7-.25,1.19-.22,1.48.05.29.17.43.36.43.3,0,.85-.47,1.64-1.42s1.85-2.54,3.19-4.79l.63-1.76h1.62l-1.69,6.34c-.08.31-.19.62-.32.94-.12.3-.25.56-.38.79l-.92-.41c1.49-.42,2.71-.92,3.67-1.51l.2.32-3.8,2.74c-.13.1-.27.14-.41.14-.19,0-.34-.08-.45-.23-.11-.16-.14-.35-.09-.59l.88-3.28c.17-.64.43-1.39.79-2.25l.11.02c-1.15,1.86-2.23,3.38-3.24,4.57-1.01,1.18-1.91,1.76-2.72,1.76ZM76.55,20.01c-.72,0-1.42-.14-2.09-.43-.67-.3-1.24-.67-1.71-1.12l.18-1.31c.02-.18.09-.31.2-.4.11-.1.23-.13.38-.11.16.01.29.08.41.22.6.66,1.27,1.19,2,1.58s1.37.59,1.91.59c.29,0,.54-.06.76-.18.23-.13.37-.3.43-.5.05-.2,0-.43-.14-.67-.13-.24-.37-.5-.72-.79-.34-.3-.8-.65-1.39-1.06-.94-.67-1.58-1.27-1.94-1.8-.36-.54-.46-1.12-.29-1.75.16-.64.49-1.1,1.01-1.4.53-.3,1.18-.45,1.94-.45.52,0,1.02.07,1.51.2.5.13,1.04.32,1.6.58l-.16,1.26c-.05.28-.17.45-.38.52-.2.06-.4-.01-.59-.22-.49-.52-1.01-.94-1.55-1.28-.54-.34-1.01-.5-1.4-.5-.25,0-.47.06-.65.18-.18.11-.29.25-.32.41-.06.22-.02.45.13.7.14.25.37.52.68.81.32.29.73.61,1.21.97.7.49,1.21.92,1.55,1.3.35.37.58.74.68,1.12.12.36.13.77.02,1.22-.19.72-.58,1.28-1.15,1.69-.56.41-1.27.61-2.11.61ZM82.84,20.01c-.64,0-1.06-.22-1.28-.65-.2-.43-.17-1.13.09-2.11l1.62-6.07h-.92l.05-.34c1.36-.42,2.43-1.29,3.22-2.61h.36l-.65,2.43h3.51l-.05.52h-3.58l-1.84,6.84c-.12.42-.2.74-.23.95-.02.2-.02.34.02.41.04.07.1.11.2.11.22,0,.55-.21,1.01-.63.47-.42,1.02-1.03,1.66-1.84.11-.14.23-.22.38-.22.16-.01.28.04.38.14s.13.25.09.41l-.2,1.37c-.58.35-1.23.65-1.96.9-.73.24-1.36.36-1.87.36ZM90.76,20.01c-.71,0-1.3-.19-1.76-.58-.47-.4-.78-.94-.94-1.62-.14-.7-.1-1.46.13-2.3.24-.88.65-1.7,1.22-2.48.59-.78,1.28-1.4,2.07-1.87.8-.48,1.63-.72,2.48-.72.73,0,1.33.17,1.78.52.46.34.59.82.41,1.46-.14.5-.45.95-.92,1.33-.47.37-1.04.71-1.73,1.01-.67.29-1.61.64-2.81,1.06l-1.15.4.13-.54,1.17-.41c.97-.34,1.76-.72,2.36-1.15.6-.44.97-.95,1.12-1.53.12-.42.09-.79-.09-1.1-.18-.31-.5-.47-.95-.47s-.91.17-1.31.52c-.41.35-.76.78-1.04,1.3-.29.5-.5,1.02-.65,1.55-.2.68-.29,1.37-.27,2.05.02.67.18,1.23.47,1.67.29.43.71.65,1.28.65.41,0,.88-.13,1.42-.4.54-.28,1.1-.67,1.69-1.19l.2.32c-.66.78-1.36,1.4-2.09,1.85-.73.44-1.47.67-2.21.67ZM103.17,7.18h1.91l-2.48,9.31h-1.91l2.48-9.31ZM100.98,20c-.37,0-.64-.13-.81-.38-.17-.25-.2-.53-.11-.83.07-.26.23-.47.47-.63.24-.16.51-.23.81-.23.38,0,.65.13.81.4.17.25.2.53.11.83-.08.26-.25.47-.49.63-.24.14-.5.22-.79.22Z"/>
  <path class="cls-2" d="M18.14,31.78h54.84c5.52,0-1.04.82-3.13,1.23-9.09,1.77-18.21,3.44-27.19,5.74-2,.51-7.46,1.25-8.92,2.75-.79.8,5.88,3.07,6.47,3.37,4.47,2.26,8.42,4.69,12.21,7.96,1.48,1.28,3.01,3.09,4.7,3.95"/>
  <path class="cls-1" d="M375.74,150.01c-.55,0-1.12-.1-1.69-.29-.56-.2-1.09-.46-1.58-.76l.2-1.98c.02-.22.11-.38.27-.49.16-.12.32-.16.5-.11.19.05.34.17.43.38.48.96.92,1.66,1.31,2.09s.78.65,1.15.65c.32,0,.61-.17.85-.52.24-.35.46-.89.67-1.64l2.72-10.17h2.05l-2.3,8.66c-.37,1.45-.95,2.51-1.73,3.19-.78.66-1.73.99-2.84.99ZM384.81,150.01c-.71,0-1.3-.19-1.76-.58-.47-.4-.78-.94-.94-1.62-.14-.7-.1-1.46.13-2.3.24-.88.65-1.7,1.22-2.48.59-.78,1.28-1.4,2.07-1.87.8-.48,1.63-.72,2.48-.72.73,0,1.33.17,1.78.52.46.34.59.82.41,1.46-.14.5-.45.95-.92,1.33-.47.37-1.04.71-1.73,1.01-.67.29-1.61.64-2.81,1.06l-1.15.4.13-.54,1.17-.41c.97-.34,1.76-.72,2.36-1.15.6-.44.97-.95,1.12-1.53.12-.42.09-.79-.09-1.1-.18-.31-.5-.47-.95-.47s-.91.17-1.31.52c-.41.35-.76.78-1.04,1.3-.29.5-.5,1.02-.65,1.55-.2.68-.29,1.37-.27,2.05.02.67.18,1.23.47,1.67.29.43.71.65,1.28.65.41,0,.88-.13,1.42-.4.54-.28,1.1-.67,1.69-1.19l.2.32c-.66.78-1.36,1.4-2.09,1.85-.73.44-1.47.67-2.21.67ZM396.09,150.01c-.46,0-.76-.24-.92-.72-.16-.48-.08-1.27.22-2.36l.92-3.47c.07-.26.17-.56.31-.88.14-.32.28-.59.4-.79l.92.4c-1.49.42-2.71.92-3.67,1.51l-.2-.32,3.83-2.75c.17-.12.33-.18.49-.18.18,0,.31.07.4.22.1.14.11.33.05.56l-1.49,5.74c-.19.72-.26,1.23-.22,1.53.05.29.17.43.36.43.44,0,.98-.34,1.62-1.03.64-.68,1.21-1.6,1.71-2.74.52-1.14.83-2.35.94-3.62.01-.29.1-.5.27-.65.18-.16.4-.23.65-.23l1.57.04c-.43,1.45-1.14,2.9-2.12,4.36-.97,1.45-2.02,2.65-3.13,3.58-1.12.92-2.08,1.39-2.88,1.39ZM406.29,150.01c-.71,0-1.3-.19-1.76-.58-.47-.4-.78-.94-.94-1.62-.14-.7-.1-1.46.13-2.3.24-.88.65-1.7,1.22-2.48.59-.78,1.28-1.4,2.07-1.87.8-.48,1.63-.72,2.48-.72.73,0,1.33.17,1.78.52.46.34.59.82.41,1.46-.14.5-.45.95-.92,1.33-.47.37-1.04.71-1.73,1.01-.67.29-1.61.64-2.81,1.06l-1.15.4.13-.54,1.17-.41c.97-.34,1.76-.72,2.36-1.15.6-.44.97-.95,1.12-1.53.12-.42.09-.79-.09-1.1-.18-.31-.5-.47-.95-.47s-.91.17-1.31.52c-.41.35-.76.78-1.04,1.3-.29.5-.5,1.02-.65,1.55-.2.68-.29,1.37-.27,2.05.02.67.18,1.23.47,1.67.29.43.71.65,1.28.65.41,0,.88-.13,1.42-.4.54-.28,1.1-.67,1.69-1.19l.2.32c-.66.78-1.36,1.4-2.09,1.85-.73.44-1.47.67-2.21.67ZM413.9,150.01c-.48,0-.8-.25-.97-.76-.17-.52-.1-1.36.22-2.54l.86-3.26c.07-.26.17-.56.31-.88.14-.32.28-.59.4-.79l.92.4c-1.49.42-2.71.92-3.67,1.51l-.2-.32,3.83-2.75c.17-.12.33-.18.49-.18.18,0,.31.07.4.22.1.14.11.33.05.56l-1.48,5.53c-.18.7-.25,1.19-.22,1.48.05.29.17.43.36.43.3,0,.85-.47,1.64-1.42.79-.95,1.85-2.54,3.19-4.79l.63-1.76h1.62l-1.69,6.34c-.08.31-.19.62-.32.94-.12.3-.25.56-.38.79l-.92-.41c1.49-.42,2.71-.92,3.67-1.51l.2.32-3.8,2.74c-.13.1-.27.14-.41.14-.19,0-.34-.08-.45-.23s-.14-.35-.09-.59l.88-3.28c.17-.64.43-1.39.79-2.25l.11.02c-1.15,1.86-2.23,3.38-3.24,4.57-1.01,1.18-1.91,1.76-2.72,1.76ZM426.53,145.53l-.09-.09-1.89-4.77h2.07l1.39,3.85.07.07,2.09,5.18h-2.07l-1.57-4.25ZM422.39,149.78c.28-.89.77-1.7,1.49-2.43.73-.74,1.67-1.49,2.83-2.25l.11.32c-.47.5-.85,1.03-1.13,1.58-.29.55-.55,1.21-.77,1.98-.07.25-.2.46-.4.61-.19.14-.43.22-.7.22l-1.42-.04ZM427.66,144.63c.52-.46.93-.94,1.24-1.44.31-.52.55-1.09.72-1.73.08-.25.22-.45.4-.59.18-.16.41-.23.68-.23l1.3.04c-.16.54-.42,1.04-.79,1.51-.36.47-.81.92-1.35,1.35-.54.42-1.22.9-2.05,1.44l-.14-.34ZM437.15,150.01c-.48,0-.87-.19-1.17-.56-.3-.37-.49-.88-.56-1.53-.07-.65,0-1.37.22-2.16.28-1.02.72-1.94,1.33-2.75.62-.82,1.31-1.45,2.07-1.89.76-.46,1.46-.68,2.11-.68s1.12.22,1.48.65c.37.42.52,1,.45,1.73l-.58.13.92-2.27h1.51l-.86,2.7-1.08,3.67c-.08.28-.2.57-.34.88-.14.3-.29.57-.43.81l-.94-.41c1.49-.42,2.71-.92,3.67-1.51l.2.32-3.78,2.74c-.14.1-.29.14-.43.14-.19,0-.35-.08-.47-.23-.12-.17-.14-.37-.05-.59l.68-2.05c.2-.64.43-1.22.67-1.76.1-.24.2-.47.31-.68l.16-.22c-.62,1.26-1.25,2.31-1.89,3.15-.62.83-1.21,1.43-1.75,1.82-.53.38-1.01.58-1.44.58ZM438.27,148.59c.31,0,.71-.25,1.21-.76.49-.52.98-1.16,1.48-1.93.5-.77.92-1.51,1.24-2.23.06-.42.04-.83-.05-1.22-.1-.41-.28-.74-.56-.99-.26-.26-.6-.4-1.01-.4-.65,0-1.25.3-1.8.9-.54.59-.94,1.36-1.21,2.32-.17.66-.25,1.33-.25,2s.08,1.22.25,1.66c.17.43.4.65.7.65ZM447.37,150.01c-.46,0-.76-.24-.92-.72-.16-.48-.08-1.27.22-2.36l.92-3.47c.07-.26.17-.56.31-.88.14-.32.28-.59.4-.79l.92.4c-1.49.42-2.71.92-3.67,1.51l-.2-.32,3.83-2.75c.17-.12.33-.18.49-.18.18,0,.31.07.4.22.1.14.11.33.05.56l-1.49,5.74c-.19.72-.26,1.23-.22,1.53.05.29.17.43.36.43.44,0,.98-.34,1.62-1.03.64-.68,1.21-1.6,1.71-2.74.52-1.14.83-2.35.94-3.62.01-.29.1-.5.27-.65.18-.16.4-.23.65-.23l1.57.04c-.43,1.45-1.14,2.9-2.12,4.36-.97,1.45-2.02,2.65-3.13,3.58-1.12.92-2.08,1.39-2.88,1.39ZM456.47,150.01c-.48,0-.87-.19-1.17-.56-.3-.37-.49-.88-.56-1.53-.07-.65,0-1.37.22-2.16.28-1.02.72-1.94,1.33-2.75.62-.82,1.31-1.45,2.07-1.89.76-.46,1.46-.68,2.11-.68s1.12.22,1.48.65c.37.42.52,1,.45,1.73l-.58.13.92-2.27h1.51l-.86,2.7-1.08,3.67c-.08.28-.2.57-.34.88-.14.3-.29.57-.43.81l-.94-.41c1.49-.42,2.71-.92,3.67-1.51l.2.32-3.78,2.74c-.14.1-.29.14-.43.14-.19,0-.35-.08-.47-.23-.12-.17-.14-.37-.05-.59l.68-2.05c.2-.64.43-1.22.67-1.76.1-.24.2-.47.31-.68l.16-.22c-.62,1.26-1.25,2.31-1.89,3.15-.62.83-1.21,1.43-1.75,1.82-.53.38-1.01.58-1.44.58ZM457.58,148.59c.31,0,.71-.25,1.21-.76.49-.52.98-1.16,1.48-1.93.5-.77.92-1.51,1.24-2.23.06-.42.04-.83-.05-1.22-.1-.41-.28-.74-.56-.99-.26-.26-.6-.4-1.01-.4-.65,0-1.25.3-1.8.9-.54.59-.94,1.36-1.21,2.32-.17.66-.25,1.33-.25,2s.08,1.22.25,1.66c.17.43.4.65.7.65ZM471.38,150.01c-.19,0-.34-.08-.45-.23s-.13-.35-.07-.59l1.62-5.47c.22-.68.29-1.17.23-1.46-.05-.3-.17-.45-.36-.45-.3,0-.83.44-1.58,1.33-.76.88-1.75,2.36-2.99,4.45l-.59,2.2h-1.93l1.69-6.32c.07-.26.17-.56.31-.88.14-.32.28-.59.4-.79l.92.4c-1.49.42-2.71.92-3.67,1.51l-.2-.32,3.83-2.75c.17-.12.33-.18.49-.18.18,0,.31.07.4.22.1.14.11.33.05.56l-.88,3.33c-.17.64-.43,1.39-.79,2.25l-.11-.02c1.15-1.86,2.23-3.38,3.24-4.55,1.01-1.19,1.91-1.78,2.72-1.78.48,0,.8.26.97.79.18.53.11,1.36-.22,2.5l-.97,3.31c-.08.28-.2.56-.34.86-.14.3-.29.58-.43.83l-.94-.41c1.49-.42,2.72-.92,3.69-1.51l.2.32-3.8,2.74c-.13.1-.28.14-.43.14ZM479.17,150.01c-.83,0-1.49-.22-2-.67s-.82-1.03-.94-1.76c-.12-.74-.04-1.55.25-2.43.3-.89.76-1.69,1.37-2.39.61-.72,1.31-1.28,2.09-1.69.78-.42,1.55-.63,2.32-.63.46,0,.89.07,1.31.22.43.14.76.34.99.59l-.22,1.6c-.04.18-.12.32-.25.41-.12.08-.26.11-.41.07s-.27-.14-.34-.31c-.35-.62-.71-1.07-1.1-1.35s-.77-.41-1.17-.41-.79.12-1.15.36c-.36.23-.68.54-.95.94-.26.38-.47.82-.63,1.3-.23.73-.31,1.47-.23,2.21.07.74.3,1.36.68,1.85.4.48.93.72,1.6.72.52,0,1.04-.13,1.58-.4.54-.28,1.08-.64,1.62-1.1l.22.32c-.72.79-1.47,1.42-2.25,1.87-.78.44-1.58.67-2.39.67ZM487.55,150.01c-.71,0-1.3-.19-1.76-.58-.47-.4-.78-.94-.94-1.62-.14-.7-.1-1.46.13-2.3.24-.88.65-1.7,1.22-2.48.59-.78,1.28-1.4,2.07-1.87.8-.48,1.63-.72,2.48-.72.73,0,1.33.17,1.78.52.46.34.59.82.41,1.46-.14.5-.45.95-.92,1.33-.47.37-1.04.71-1.73,1.01-.67.29-1.61.64-2.81,1.06l-1.15.4.13-.54,1.17-.41c.97-.34,1.76-.72,2.36-1.15.6-.44.97-.95,1.12-1.53.12-.42.09-.79-.09-1.1-.18-.31-.5-.47-.95-.47s-.91.17-1.31.52c-.41.35-.76.78-1.04,1.3-.29.5-.5,1.02-.65,1.55-.2.68-.29,1.37-.27,2.05.02.67.18,1.23.47,1.67.29.43.71.65,1.28.65.41,0,.88-.13,1.42-.4.54-.28,1.1-.67,1.69-1.19l.2.32c-.66.78-1.36,1.4-2.09,1.85-.73.44-1.47.67-2.21.67ZM495.32,143.46c.07-.26.17-.56.31-.88.14-.32.28-.59.4-.79l.92.4c-1.49.42-2.71.92-3.67,1.51l-.2-.32,3.83-2.75c.17-.12.33-.18.49-.18.18,0,.31.07.4.22.1.14.11.33.05.56l-.88,3.37c-.17.6-.48,1.45-.94,2.54l-.11.07c.8-1.51,1.49-2.72,2.07-3.62.58-.91,1.18-1.66,1.82-2.25.65-.59,1.28-.86,1.91-.81l-.16,1.33c-.04.25-.13.44-.27.58-.14.13-.36.25-.65.34-.77.22-1.53.73-2.29,1.55-.74.8-1.48,1.91-2.21,3.31l-.58,2.16h-1.93l1.69-6.32Z"/>
  <path class="cls-2" d="M427.14,177.78c11.29,0,21.9-.54,32.86-3.7,18.12-5.24,36.4-12.94,53.31-21.38,10.1-5.04,19.22-10.61,28.39-17.14,2.62-1.86,6.08-6.78,9.43-6.78"/>
  <path class="cls-1" d="M509,42.01c-.55,0-1.12-.1-1.69-.29-.56-.2-1.09-.46-1.58-.76l.2-1.98c.02-.22.11-.38.27-.49.16-.12.32-.16.5-.11.19.05.34.17.43.38.48.96.92,1.66,1.31,2.09.4.43.78.65,1.15.65.32,0,.61-.17.85-.52s.46-.89.67-1.64l2.72-10.17h2.05l-2.3,8.66c-.37,1.45-.95,2.51-1.73,3.19-.78.66-1.73.99-2.84.99ZM516.74,33.93l1.75-4.75,1.17-.02c.2,0,.37.05.49.14s.18.23.18.4c0,.16-.07.31-.2.45-.64.76-1.19,1.45-1.67,2.07-.47.61-.92,1.25-1.35,1.91l-.36-.2ZM520.01,42.01c-.48,0-.87-.19-1.17-.56-.3-.37-.49-.88-.56-1.53-.07-.65,0-1.37.22-2.16.28-1.02.72-1.94,1.33-2.75.62-.82,1.31-1.45,2.07-1.89.76-.46,1.46-.68,2.11-.68s1.12.22,1.48.65c.37.42.52,1,.45,1.73l-.58.13.92-2.27h1.51l-.86,2.7-1.08,3.67c-.08.28-.2.57-.34.88-.14.3-.29.57-.43.81l-.94-.41c1.49-.42,2.71-.92,3.67-1.51l.2.32-3.78,2.74c-.14.1-.29.14-.43.14-.19,0-.35-.08-.47-.23-.12-.17-.14-.37-.05-.59l.68-2.05c.2-.64.43-1.22.67-1.76.1-.24.2-.47.31-.68l.16-.22c-.62,1.26-1.25,2.31-1.89,3.15-.62.83-1.21,1.43-1.75,1.82-.53.38-1.01.58-1.44.58ZM521.13,40.59c.31,0,.71-.25,1.21-.76.49-.52.98-1.16,1.48-1.93.5-.77.92-1.51,1.24-2.23.06-.42.04-.83-.05-1.22-.1-.41-.28-.74-.56-.99-.26-.26-.6-.4-1.01-.4-.65,0-1.25.3-1.8.9-.54.59-.94,1.36-1.21,2.32-.17.66-.25,1.33-.25,2s.08,1.22.25,1.66c.17.43.4.65.7.65ZM529.24,42.01c-.19,0-.34-.08-.45-.23-.11-.16-.13-.35-.05-.59l1.69-5.74c.07-.24.18-.52.32-.85.16-.32.31-.59.45-.81l.92.4c-1.49.42-2.71.92-3.67,1.51l-.2-.32,3.83-2.75c.17-.12.33-.18.49-.18.18,0,.31.07.4.22.1.14.11.33.04.56l-1.71,5.83c-.08.28-.2.56-.34.86-.13.3-.28.58-.43.83l-.92-.41c1.48-.42,2.69-.92,3.65-1.51l.22.32-3.78,2.74c-.16.1-.31.14-.45.14ZM532.73,31.23c-.36,0-.62-.12-.77-.36-.16-.25-.19-.52-.09-.81.06-.25.2-.45.43-.59.24-.16.5-.23.77-.23.36,0,.61.13.76.38.16.24.19.51.11.81-.08.25-.24.45-.47.59-.22.14-.46.22-.74.22ZM541.14,42.01c-.62,0-1.1-.21-1.42-.63-.31-.42-.43-1-.36-1.75l.36-.13-.85,2.27h-1.67l1.1-2.95,2.32-8.84,1.24.67-3.33.05.05-.34c1.15-.2,2.18-.59,3.08-1.15.16-.1.3-.14.43-.14.18,0,.32.08.41.23.1.14.12.32.07.54l-1.48,5.65c-.1.37-.23.77-.4,1.19-.16.42-.31.78-.47,1.08l-.2.22c.64-1.26,1.27-2.3,1.89-3.13.64-.84,1.22-1.45,1.75-1.84.54-.38,1.03-.58,1.46-.58.47,0,.85.19,1.15.56.31.37.5.88.56,1.53.07.65,0,1.37-.22,2.16-.28,1.02-.73,1.94-1.35,2.75-.61.82-1.3,1.45-2.05,1.91-.74.44-1.44.67-2.09.67ZM541.72,41.38c.64,0,1.23-.29,1.78-.88.55-.6.95-1.38,1.21-2.34.18-.66.27-1.33.27-2s-.08-1.22-.25-1.66c-.17-.43-.4-.65-.7-.65s-.72.26-1.22.77c-.49.5-.98,1.14-1.48,1.91-.49.77-.9,1.51-1.22,2.23-.07.42-.06.83.04,1.24.1.4.28.73.54.99.28.25.62.38,1.04.38ZM550.09,42.01c-.71,0-1.3-.19-1.76-.58-.47-.4-.78-.94-.94-1.62-.14-.7-.1-1.46.13-2.3.24-.88.65-1.7,1.22-2.48.59-.78,1.28-1.4,2.07-1.87.8-.48,1.63-.72,2.48-.72.73,0,1.33.17,1.78.52.46.34.59.82.41,1.46-.14.5-.45.95-.92,1.33-.47.37-1.04.71-1.73,1.01-.67.29-1.61.64-2.81,1.06l-1.15.4.13-.54,1.17-.41c.97-.34,1.76-.72,2.36-1.15.6-.44.97-.95,1.12-1.53.12-.42.09-.79-.09-1.1-.18-.31-.5-.47-.95-.47s-.91.17-1.31.52c-.41.35-.76.78-1.04,1.3-.29.5-.5,1.02-.65,1.55-.2.68-.29,1.37-.27,2.05.02.67.18,1.23.47,1.67.29.43.71.65,1.28.65.41,0,.88-.13,1.42-.4.54-.28,1.1-.67,1.69-1.19l.2.32c-.66.78-1.36,1.4-2.09,1.85-.73.44-1.47.67-2.21.67ZM559.07,42.01c-.72,0-1.42-.14-2.09-.43-.67-.3-1.24-.67-1.71-1.12l.18-1.31c.02-.18.09-.31.2-.4.11-.1.23-.13.38-.11.16.01.29.08.41.22.6.66,1.27,1.19,2,1.58s1.37.59,1.91.59c.29,0,.54-.06.76-.18.23-.13.37-.3.43-.5.05-.2,0-.43-.14-.67-.13-.24-.37-.5-.72-.79-.34-.3-.8-.65-1.39-1.06-.94-.67-1.58-1.27-1.94-1.8-.36-.54-.46-1.12-.29-1.75.16-.64.49-1.1,1.01-1.4.53-.3,1.18-.45,1.94-.45.52,0,1.02.07,1.51.2.5.13,1.04.32,1.6.58l-.16,1.26c-.05.28-.17.45-.38.52-.2.06-.4-.01-.59-.22-.49-.52-1.01-.94-1.55-1.28-.54-.34-1.01-.5-1.4-.5-.25,0-.47.06-.65.18-.18.11-.29.25-.32.41-.06.22-.02.45.13.7.14.25.37.52.68.81.32.29.73.61,1.21.97.7.49,1.21.92,1.55,1.3.35.37.58.74.68,1.12.12.36.13.77.02,1.22-.19.72-.58,1.28-1.15,1.69-.56.41-1.27.61-2.11.61ZM566.5,42.01c-.78,0-1.42-.2-1.91-.59-.48-.41-.79-.96-.94-1.66-.13-.71-.08-1.49.14-2.36.23-.86.62-1.68,1.19-2.45.58-.77,1.24-1.38,2-1.84.77-.46,1.55-.68,2.36-.68s1.38.21,1.84.63c.47.42.76.99.88,1.71.13.71.08,1.49-.14,2.34-.24.9-.64,1.73-1.19,2.48-.55.74-1.2,1.33-1.94,1.76-.73.43-1.49.65-2.29.65ZM567.76,41.17c.37,0,.72-.12,1.04-.36.34-.25.62-.57.85-.95.24-.4.42-.81.54-1.24.19-.72.23-1.5.11-2.34s-.38-1.54-.79-2.11c-.41-.56-.91-.85-1.51-.85-.36,0-.71.13-1.04.38-.34.24-.62.56-.86.95-.23.4-.4.81-.52,1.24-.18.72-.21,1.5-.09,2.34.12.83.38,1.52.77,2.09.41.56.91.85,1.51.85ZM573.66,42.01c-.19,0-.34-.08-.45-.23-.11-.16-.13-.35-.05-.59l1.69-5.74c.07-.24.18-.52.32-.85.16-.32.31-.59.45-.81l.92.4c-1.49.42-2.71.92-3.67,1.51l-.2-.32,3.83-2.75c.17-.12.33-.18.49-.18.18,0,.31.07.4.22.1.14.11.33.04.56l-1.71,5.83c-.08.28-.2.56-.34.86-.13.3-.28.58-.43.83l-.92-.41c1.48-.42,2.69-.92,3.65-1.51l.22.32-3.78,2.74c-.16.1-.31.14-.45.14ZM577.15,31.23c-.36,0-.62-.12-.77-.36-.16-.25-.19-.52-.09-.81.06-.25.2-.45.43-.59.24-.16.5-.23.77-.23.36,0,.61.13.76.38.16.24.19.51.11.81-.08.25-.24.45-.47.59-.22.14-.46.22-.74.22ZM584.77,42.01c-.19,0-.34-.08-.45-.23-.11-.16-.13-.35-.07-.59l1.62-5.47c.22-.68.29-1.17.23-1.46-.05-.3-.17-.45-.36-.45-.3,0-.83.44-1.58,1.33-.76.88-1.75,2.36-2.99,4.45l-.59,2.2h-1.93l1.69-6.32c.07-.26.17-.56.31-.88.14-.32.28-.59.4-.79l.92.4c-1.49.42-2.71.92-3.67,1.51l-.2-.32,3.83-2.75c.17-.12.33-.18.49-.18.18,0,.31.07.4.22.1.14.11.33.05.56l-.88,3.33c-.17.64-.43,1.39-.79,2.25l-.11-.02c1.15-1.86,2.23-3.38,3.24-4.55,1.01-1.19,1.91-1.78,2.72-1.78.48,0,.8.26.97.79.18.53.11,1.36-.22,2.5l-.97,3.31c-.08.28-.2.56-.34.86-.14.3-.29.58-.43.83l-.94-.41c1.49-.42,2.72-.92,3.69-1.51l.2.32-3.8,2.74c-.13.1-.28.14-.43.14ZM595.05,42.01c-.47,0-.86-.19-1.17-.56-.3-.37-.49-.88-.56-1.53-.06-.65.02-1.37.23-2.16.28-1.02.72-1.94,1.33-2.75.62-.82,1.31-1.45,2.07-1.89.76-.46,1.46-.68,2.11-.68.61,0,1.08.21,1.4.63.32.42.45,1,.38,1.75l-.43-.61,1.08-4.09,1.26.45-3.31.07.05-.34c1.14-.22,2.17-.6,3.08-1.15.14-.1.29-.14.43-.14.18,0,.32.07.41.22.11.14.13.32.05.54l-2.47,9.25c-.08.31-.19.62-.32.94-.12.3-.25.56-.4.79l-.92-.41c1.49-.42,2.71-.92,3.67-1.51l.2.32-3.78,2.74c-.14.1-.29.14-.43.14-.19,0-.34-.08-.45-.23-.11-.16-.13-.35-.07-.59l.63-2.23c.13-.43.26-.85.4-1.26.14-.42.28-.76.4-1.01l.22-.22c-.62,1.26-1.25,2.31-1.89,3.15-.64.83-1.22,1.43-1.75,1.82-.53.38-1.01.58-1.46.58ZM596.17,40.59c.32,0,.73-.25,1.22-.76.49-.52.98-1.16,1.48-1.93.5-.77.92-1.51,1.24-2.23.06-.42.04-.83-.05-1.22-.1-.41-.28-.74-.56-.99-.26-.26-.6-.4-1.01-.4-.65,0-1.25.3-1.8.9-.54.59-.94,1.36-1.21,2.32-.17.66-.25,1.33-.25,2s.08,1.22.25,1.66c.17.43.4.65.68.65ZM604.54,33.93l1.75-4.75,1.17-.02c.2,0,.37.05.49.14s.18.23.18.4c0,.16-.07.31-.2.45-.64.76-1.19,1.45-1.67,2.07-.47.61-.92,1.25-1.35,1.91l-.36-.2ZM608.91,42.01c-.71,0-1.3-.19-1.76-.58-.47-.4-.78-.94-.94-1.62-.14-.7-.1-1.46.13-2.3.24-.88.65-1.7,1.22-2.48.59-.78,1.28-1.4,2.07-1.87.8-.48,1.63-.72,2.48-.72.73,0,1.33.17,1.78.52.46.34.59.82.41,1.46-.14.5-.45.95-.92,1.33-.47.37-1.04.71-1.73,1.01-.67.29-1.61.64-2.81,1.06l-1.15.4.13-.54,1.17-.41c.97-.34,1.76-.72,2.36-1.15.6-.44.97-.95,1.12-1.53.12-.42.09-.79-.09-1.1s-.5-.47-.95-.47-.91.17-1.31.52c-.41.35-.76.78-1.04,1.3-.29.5-.5,1.02-.65,1.55-.2.68-.29,1.37-.27,2.05.02.67.18,1.23.47,1.67.29.43.71.65,1.28.65.41,0,.88-.13,1.42-.4.54-.28,1.1-.67,1.69-1.19l.2.32c-.66.78-1.36,1.4-2.09,1.85-.73.44-1.47.67-2.21.67ZM610.15,31.59l2.43-2.59.85-.02c.19,0,.34.06.43.18.11.11.14.24.09.4-.04.14-.14.26-.31.34-1.02.52-2.08,1.13-3.17,1.84l-.32-.14ZM617.42,42.01c-.83,0-1.49-.22-2-.67-.5-.44-.82-1.03-.94-1.76-.12-.74-.04-1.55.25-2.43.3-.89.76-1.69,1.37-2.39.61-.72,1.31-1.28,2.09-1.69.78-.42,1.55-.63,2.32-.63.46,0,.89.07,1.31.22.43.14.76.34.99.59l-.22,1.6c-.04.18-.12.32-.25.41-.12.08-.26.11-.41.07s-.27-.14-.34-.31c-.35-.62-.71-1.07-1.1-1.35-.38-.28-.77-.41-1.17-.41s-.79.12-1.15.36c-.36.23-.68.54-.95.94-.26.38-.47.82-.63,1.3-.23.73-.31,1.47-.23,2.21s.3,1.36.68,1.85c.4.48.93.72,1.6.72.52,0,1.04-.13,1.58-.4.54-.28,1.08-.64,1.62-1.1l.22.32c-.72.79-1.47,1.42-2.25,1.87-.78.44-1.58.67-2.39.67ZM625.97,42.01c-.78,0-1.42-.2-1.91-.59-.48-.41-.79-.96-.94-1.66-.13-.71-.08-1.49.14-2.36.23-.86.62-1.68,1.19-2.45.58-.77,1.24-1.38,2-1.84.77-.46,1.55-.68,2.36-.68s1.38.21,1.84.63c.47.42.76.99.88,1.71.13.71.08,1.49-.14,2.34-.24.9-.64,1.73-1.19,2.48-.55.74-1.2,1.33-1.94,1.76-.73.43-1.49.65-2.29.65ZM627.23,41.17c.37,0,.72-.12,1.04-.36.34-.25.62-.57.85-.95.24-.4.42-.81.54-1.24.19-.72.23-1.5.11-2.34s-.38-1.54-.79-2.11c-.41-.56-.91-.85-1.51-.85-.36,0-.71.13-1.04.38-.34.24-.62.56-.86.95-.23.4-.4.81-.52,1.24-.18.72-.21,1.5-.09,2.34.12.83.38,1.52.77,2.09.41.56.91.85,1.51.85ZM634.22,42.01c-.48,0-.8-.25-.97-.76-.17-.52-.1-1.36.22-2.54l.86-3.26c.07-.26.17-.56.31-.88.14-.32.28-.59.4-.79l.92.4c-1.49.42-2.71.92-3.67,1.51l-.2-.32,3.83-2.75c.17-.12.33-.18.49-.18.18,0,.31.07.4.22.1.14.11.33.05.56l-1.48,5.53c-.18.7-.25,1.19-.22,1.48.05.29.17.43.36.43.3,0,.85-.47,1.64-1.42.79-.95,1.85-2.54,3.19-4.79l.63-1.76h1.62l-1.69,6.34c-.08.31-.19.62-.32.94-.12.3-.25.56-.38.79l-.92-.41c1.49-.42,2.71-.92,3.67-1.51l.2.32-3.8,2.74c-.13.1-.27.14-.41.14-.19,0-.34-.08-.45-.23s-.14-.35-.09-.59l.88-3.28c.17-.64.43-1.39.79-2.25l.11.02c-1.15,1.86-2.23,3.38-3.24,4.57-1.01,1.18-1.91,1.76-2.72,1.76ZM645.48,42.01c-.64,0-1.06-.22-1.28-.65-.2-.43-.17-1.13.09-2.11l1.62-6.07h-.92l.05-.34c1.36-.42,2.43-1.29,3.22-2.61h.36l-.65,2.43h3.51l-.05.52h-3.58l-1.84,6.84c-.12.42-.2.74-.23.95-.02.2-.02.34.02.41.04.07.1.11.2.11.22,0,.55-.21,1.01-.63.47-.42,1.02-1.03,1.66-1.84.11-.14.23-.22.38-.22.16-.01.28.04.38.14.1.11.13.25.09.41l-.2,1.37c-.58.35-1.23.65-1.96.9-.73.24-1.36.36-1.87.36ZM653.4,42.01c-.71,0-1.3-.19-1.76-.58-.47-.4-.78-.94-.94-1.62-.14-.7-.1-1.46.13-2.3.24-.88.65-1.7,1.22-2.48.59-.78,1.28-1.4,2.07-1.87.8-.48,1.63-.72,2.48-.72.73,0,1.33.17,1.78.52.46.34.59.82.41,1.46-.14.5-.45.95-.92,1.33-.47.37-1.04.71-1.73,1.01-.67.29-1.61.64-2.81,1.06l-1.15.4.13-.54,1.17-.41c.97-.34,1.76-.72,2.36-1.15.6-.44.97-.95,1.12-1.53.12-.42.09-.79-.09-1.1-.18-.31-.5-.47-.95-.47s-.91.17-1.31.52c-.41.35-.76.78-1.04,1.3-.29.5-.5,1.02-.65,1.55-.2.68-.29,1.37-.27,2.05.02.67.18,1.23.47,1.67.29.43.71.65,1.28.65.41,0,.88-.13,1.42-.4.54-.28,1.1-.67,1.69-1.19l.2.32c-.66.78-1.36,1.4-2.09,1.85-.73.44-1.47.67-2.21.67Z"/>
  <path class="cls-2" d="M621.65,14.49c12.04,0,29.15-3.51,38.83,5.15,5.77,5.16,10.67,11.92,11.82,19.74.5,3.4.84,6.48.84,9.96,0,4.87-2.69,6.11-6.57,8.5-6.76,4.17-21.76,2.08-28.7-.19-8.23-2.69-15.98-4.91-24.66-4.91-11.12,0-23.99,2.91-32.07,11.05"/>
  <path class="cls-1" d="M120.02,97.47l.18.14-.2-.02c-.4,0-.95.15-1.67.45-.71.29-1.55.8-2.54,1.55-.16.13-.32.18-.49.14-.17-.05-.29-.15-.36-.31-.06-.16-.04-.32.05-.5l1.03-1.75h10.19l.02,1.84c0,.24-.06.43-.18.56-.11.12-.25.17-.43.16-.17-.02-.32-.13-.45-.31-.59-.67-1.15-1.15-1.69-1.42-.54-.28-.98-.41-1.33-.41l-.32.04.27-.16-3.31,12.31h-2.07l3.31-12.31ZM125.96,110.01c-.78,0-1.42-.2-1.91-.59-.48-.41-.79-.96-.94-1.66-.13-.71-.08-1.49.14-2.36.23-.86.62-1.68,1.19-2.45.58-.77,1.24-1.38,2-1.84.77-.46,1.55-.68,2.36-.68s1.38.21,1.84.63c.47.42.76.99.88,1.71.13.71.08,1.49-.14,2.34-.24.9-.64,1.73-1.19,2.48-.55.74-1.2,1.33-1.94,1.76-.73.43-1.49.65-2.29.65ZM127.22,109.17c.37,0,.72-.12,1.04-.36.34-.25.62-.57.85-.95.24-.4.42-.81.54-1.24.19-.72.23-1.5.11-2.34-.12-.84-.38-1.54-.79-2.11-.41-.56-.91-.85-1.51-.85-.36,0-.71.13-1.04.38-.34.24-.62.56-.86.95-.23.4-.4.81-.52,1.24-.18.72-.21,1.5-.09,2.34.12.83.38,1.52.77,2.09.41.56.91.85,1.51.85ZM134.21,110.01c-.48,0-.8-.25-.97-.76-.17-.52-.1-1.36.22-2.54l.86-3.26c.07-.26.17-.56.31-.88.14-.32.28-.59.4-.79l.92.4c-1.49.42-2.71.92-3.67,1.51l-.2-.32,3.83-2.75c.17-.12.33-.18.49-.18.18,0,.31.07.4.22.1.14.11.33.05.56l-1.48,5.53c-.18.7-.25,1.19-.22,1.48.05.29.17.43.36.43.3,0,.85-.47,1.64-1.42.79-.95,1.85-2.54,3.19-4.79l.63-1.76h1.62l-1.69,6.34c-.08.31-.19.62-.32.94-.12.3-.25.56-.38.79l-.92-.41c1.49-.42,2.71-.92,3.67-1.51l.2.32-3.8,2.74c-.13.1-.27.14-.41.14-.19,0-.34-.08-.45-.23s-.14-.35-.09-.59l.88-3.28c.17-.64.43-1.39.79-2.25l.11.02c-1.15,1.86-2.23,3.38-3.24,4.57-1.01,1.18-1.91,1.76-2.72,1.76ZM145.47,110.01c-.64,0-1.06-.22-1.28-.65-.2-.43-.17-1.13.09-2.11l1.62-6.07h-.92l.05-.34c1.36-.42,2.43-1.29,3.22-2.61h.36l-.65,2.43h3.51l-.05.52h-3.58l-1.84,6.84c-.12.42-.2.74-.23.95-.02.2-.02.34.02.41.04.07.1.11.2.11.22,0,.55-.21,1.01-.63.47-.42,1.02-1.03,1.66-1.84.11-.14.23-.22.38-.22.16-.01.28.04.38.14.1.11.13.25.09.41l-.2,1.37c-.58.35-1.23.65-1.96.9-.73.24-1.36.36-1.87.36ZM156.16,110.01c-.41,0-.73-.09-.97-.27-.24-.19-.38-.49-.43-.9-.05-.41.02-.95.2-1.64l2.47-9.31,1.26.67-3.31.07.05-.34c1.15-.22,2.18-.6,3.08-1.15.14-.1.28-.14.41-.14.19,0,.34.07.43.22.1.14.11.32.05.54l-2.75,10.35c-.13.43-.22.75-.25.95-.02.19-.02.32,0,.38.04.06.09.09.16.09.16,0,.41-.2.77-.61.36-.42.79-1.01,1.3-1.76.11-.18.24-.28.4-.31.16-.02.29.02.4.14s.15.29.13.5l-.25,1.4c-.47.32-1,.59-1.58.81-.58.2-1.09.31-1.55.31ZM163.38,110.01c-.71,0-1.3-.19-1.76-.58-.47-.4-.78-.94-.94-1.62-.14-.7-.1-1.46.13-2.3.24-.88.65-1.7,1.22-2.48.59-.78,1.28-1.4,2.07-1.87.8-.48,1.63-.72,2.48-.72.73,0,1.33.17,1.78.52.46.34.59.82.41,1.46-.14.5-.45.95-.92,1.33-.47.37-1.04.71-1.73,1.01-.67.29-1.61.64-2.81,1.06l-1.15.4.13-.54,1.17-.41c.97-.34,1.76-.72,2.36-1.15.6-.44.97-.95,1.12-1.53.12-.42.09-.79-.09-1.1-.18-.31-.5-.47-.95-.47s-.91.17-1.31.52c-.41.35-.76.78-1.04,1.3-.29.5-.5,1.02-.65,1.55-.2.68-.29,1.37-.27,2.05.02.67.18,1.23.47,1.67.29.43.71.65,1.28.65.41,0,.88-.13,1.42-.4.54-.28,1.1-.67,1.69-1.19l.2.32c-.66.78-1.36,1.4-2.09,1.85-.73.44-1.47.67-2.21.67ZM184.02,110.01c-.19,0-.34-.08-.45-.23s-.13-.35-.05-.59l1.6-5.4c.2-.7.3-1.2.29-1.51-.01-.32-.09-.49-.23-.49-.18,0-.45.18-.81.54-.35.35-.82.95-1.4,1.82-.58.86-1.27,2.01-2.07,3.44l-.59,2.2h-1.91l1.6-5.99c.13-.49.22-.88.25-1.17.04-.3.03-.51-.02-.63-.04-.13-.1-.2-.18-.2-.18,0-.45.18-.81.54-.35.35-.82.96-1.4,1.84-.58.86-1.27,2.01-2.07,3.44l-.59,2.18h-1.93l1.69-6.32c.07-.26.17-.56.31-.88.14-.32.28-.59.4-.79l.92.4c-1.49.42-2.71.92-3.67,1.51l-.2-.32,3.83-2.75c.17-.12.33-.18.49-.18.18,0,.31.07.4.22.1.14.11.33.05.56l-.88,3.33c-.16.55-.4,1.25-.72,2.09l-.11-.02c1.07-1.84,2.06-3.32,2.99-4.46.94-1.14,1.78-1.71,2.54-1.71.43,0,.73.26.88.77.17.5.1,1.34-.22,2.52l-.23.81c-.16.59-.39,1.28-.7,2.09l-.13-.02c1.07-1.84,2.06-3.32,2.99-4.46.94-1.14,1.78-1.71,2.54-1.71.44,0,.75.26.92.77s.08,1.36-.27,2.52l-.97,3.31c-.08.28-.2.56-.34.86-.14.3-.29.58-.43.83l-.92-.41c1.49-.42,2.71-.92,3.67-1.51l.2.32-3.8,2.74c-.13.1-.28.14-.43.14ZM191.75,110.01c-.78,0-1.42-.2-1.91-.59-.48-.41-.79-.96-.94-1.66-.13-.71-.08-1.49.14-2.36s.62-1.68,1.19-2.45c.58-.77,1.24-1.38,2-1.84.77-.46,1.55-.68,2.36-.68s1.38.21,1.84.63c.47.42.76.99.88,1.71.13.71.08,1.49-.14,2.34-.24.9-.64,1.73-1.19,2.48-.55.74-1.2,1.33-1.94,1.76-.73.43-1.49.65-2.29.65ZM193.01,109.17c.37,0,.72-.12,1.04-.36.34-.25.62-.57.85-.95.24-.4.42-.81.54-1.24.19-.72.23-1.5.11-2.34-.12-.84-.38-1.54-.79-2.11-.41-.56-.91-.85-1.51-.85-.36,0-.71.13-1.04.38-.34.24-.62.56-.86.95-.23.4-.4.81-.52,1.24-.18.72-.21,1.5-.09,2.34.12.83.38,1.52.77,2.09.41.56.91.85,1.51.85ZM204.6,110.01c-.19,0-.34-.08-.45-.23s-.13-.35-.07-.59l1.62-5.47c.22-.68.29-1.17.23-1.46-.05-.3-.17-.45-.36-.45-.3,0-.83.44-1.58,1.33-.76.88-1.75,2.36-2.99,4.45l-.59,2.2h-1.93l1.69-6.32c.07-.26.17-.56.31-.88.14-.32.28-.59.4-.79l.92.4c-1.49.42-2.71.92-3.67,1.51l-.2-.32,3.83-2.75c.17-.12.33-.18.49-.18.18,0,.31.07.4.22.1.14.11.33.05.56l-.88,3.33c-.17.64-.43,1.39-.79,2.25l-.11-.02c1.15-1.86,2.23-3.38,3.24-4.55,1.01-1.19,1.91-1.78,2.72-1.78.48,0,.8.26.97.79.18.53.11,1.36-.22,2.5l-.97,3.31c-.08.28-.2.56-.34.86-.14.3-.29.58-.43.83l-.94-.41c1.49-.42,2.72-.92,3.69-1.51l.2.32-3.8,2.74c-.13.1-.28.14-.43.14ZM211.06,110.01c-.47,0-.86-.19-1.17-.56-.3-.37-.49-.88-.56-1.53-.06-.65.02-1.37.23-2.16.28-1.02.72-1.94,1.33-2.75.62-.82,1.31-1.45,2.07-1.89.76-.46,1.46-.68,2.11-.68.61,0,1.08.21,1.4.63.32.42.45,1,.38,1.75l-.43-.61,1.08-4.09,1.26.45-3.31.07.05-.34c1.14-.22,2.17-.6,3.08-1.15.14-.1.29-.14.43-.14.18,0,.32.07.41.22.11.14.13.32.05.54l-2.47,9.25c-.08.31-.19.62-.32.94-.12.3-.25.56-.4.79l-.92-.41c1.49-.42,2.71-.92,3.67-1.51l.2.32-3.78,2.74c-.14.1-.29.14-.43.14-.19,0-.34-.08-.45-.23s-.13-.35-.07-.59l.63-2.23c.13-.43.26-.85.4-1.26.14-.42.28-.76.4-1.01l.22-.22c-.62,1.26-1.25,2.31-1.89,3.15-.64.83-1.22,1.43-1.75,1.82-.53.38-1.01.58-1.46.58ZM212.17,108.59c.32,0,.73-.25,1.22-.76.49-.52.98-1.16,1.48-1.93.5-.77.92-1.51,1.24-2.23.06-.42.04-.83-.05-1.22-.1-.41-.28-.74-.56-.99-.26-.26-.6-.4-1.01-.4-.65,0-1.25.3-1.8.9-.54.59-.94,1.36-1.21,2.32-.17.66-.25,1.33-.25,2s.08,1.22.25,1.66.4.65.68.65ZM222.6,110.01c-.71,0-1.3-.19-1.76-.58-.47-.4-.78-.94-.94-1.62-.14-.7-.1-1.46.13-2.3.24-.88.65-1.7,1.22-2.48.59-.78,1.28-1.4,2.07-1.87.8-.48,1.63-.72,2.48-.72.73,0,1.33.17,1.78.52.46.34.59.82.41,1.46-.14.5-.45.95-.92,1.33-.47.37-1.04.71-1.73,1.01-.67.29-1.61.64-2.81,1.06l-1.15.4.13-.54,1.17-.41c.97-.34,1.76-.72,2.36-1.15.6-.44.97-.95,1.12-1.53.12-.42.09-.79-.09-1.1-.18-.31-.5-.47-.95-.47s-.91.17-1.31.52-.76.78-1.04,1.3c-.29.5-.5,1.02-.65,1.55-.2.68-.29,1.37-.27,2.05.02.67.18,1.23.47,1.67.29.43.71.65,1.28.65.41,0,.88-.13,1.42-.4.54-.28,1.1-.67,1.69-1.19l.2.32c-.66.78-1.36,1.4-2.09,1.85-.73.44-1.47.67-2.21.67ZM118.68,132.01c-.71,0-1.3-.19-1.76-.58-.47-.4-.78-.94-.94-1.62-.14-.7-.1-1.46.13-2.3.24-.88.65-1.7,1.22-2.48.59-.78,1.28-1.4,2.07-1.87.8-.48,1.63-.72,2.48-.72.73,0,1.33.17,1.78.52.46.34.59.82.41,1.46-.14.5-.45.95-.92,1.33-.47.37-1.04.71-1.73,1.01-.67.29-1.61.64-2.81,1.06l-1.15.4.13-.54,1.17-.41c.97-.34,1.76-.72,2.36-1.15.6-.44.97-.95,1.12-1.53.12-.42.09-.79-.09-1.1s-.5-.47-.95-.47-.91.17-1.31.52c-.41.35-.76.78-1.04,1.3-.29.5-.5,1.02-.65,1.55-.2.68-.29,1.37-.27,2.05.02.67.18,1.23.47,1.67.29.43.71.65,1.28.65.41,0,.88-.13,1.42-.4.54-.28,1.1-.67,1.69-1.19l.2.32c-.66.78-1.36,1.4-2.09,1.85-.73.44-1.47.67-2.21.67ZM127.65,132.01c-.72,0-1.42-.14-2.09-.43-.67-.3-1.24-.67-1.71-1.12l.18-1.31c.02-.18.09-.31.2-.4.11-.1.23-.13.38-.11.16.01.29.08.41.22.6.66,1.27,1.19,2,1.58.73.4,1.37.59,1.91.59.29,0,.54-.06.76-.18.23-.13.37-.3.43-.5.05-.2,0-.43-.14-.67-.13-.24-.37-.5-.72-.79-.34-.3-.8-.65-1.39-1.06-.94-.67-1.58-1.27-1.94-1.8-.36-.54-.46-1.12-.29-1.75.16-.64.49-1.1,1.01-1.4.53-.3,1.18-.45,1.94-.45.52,0,1.02.07,1.51.2.5.13,1.04.32,1.6.58l-.16,1.26c-.05.28-.17.45-.38.52-.2.06-.4-.01-.59-.22-.49-.52-1.01-.94-1.55-1.28-.54-.34-1.01-.5-1.4-.5-.25,0-.47.06-.65.18-.18.11-.29.25-.32.41-.06.22-.02.45.13.7.14.25.37.52.68.81.32.29.73.61,1.21.97.7.49,1.21.92,1.55,1.3.35.37.58.74.68,1.12.12.36.13.77.02,1.22-.19.72-.58,1.28-1.15,1.69-.56.41-1.27.61-2.11.61ZM133.94,132.01c-.64,0-1.06-.22-1.28-.65-.2-.43-.17-1.13.09-2.11l1.62-6.07h-.92l.05-.34c1.36-.42,2.43-1.29,3.22-2.61h.36l-.65,2.43h3.51l-.05.52h-3.58l-1.84,6.84c-.12.42-.2.74-.23.95-.02.2-.02.34.02.41.04.07.1.11.2.11.22,0,.55-.21,1.01-.63.47-.42,1.02-1.03,1.66-1.84.11-.14.23-.22.38-.22.16-.01.28.04.38.14.1.11.13.25.09.41l-.2,1.37c-.58.35-1.23.65-1.96.9-.73.24-1.36.36-1.87.36ZM146.12,132.01c-.83,0-1.49-.22-2-.67s-.82-1.03-.94-1.76c-.12-.74-.04-1.55.25-2.43.3-.89.76-1.69,1.37-2.39.61-.72,1.31-1.28,2.09-1.69.78-.42,1.55-.63,2.32-.63.46,0,.89.07,1.31.22.43.14.76.34.99.59l-.22,1.6c-.04.18-.12.32-.25.41-.12.08-.26.11-.41.07-.16-.04-.27-.14-.34-.31-.35-.62-.71-1.07-1.1-1.35-.38-.28-.77-.41-1.17-.41s-.79.12-1.15.36c-.36.23-.68.54-.95.94-.26.38-.47.82-.63,1.3-.23.73-.31,1.47-.23,2.21.07.74.3,1.36.68,1.85.4.48.93.72,1.6.72.52,0,1.04-.13,1.58-.4.54-.28,1.08-.64,1.62-1.1l.22.32c-.72.79-1.47,1.42-2.25,1.87-.78.44-1.58.67-2.39.67ZM154.66,132.01c-.78,0-1.42-.2-1.91-.59-.48-.41-.79-.96-.94-1.66-.13-.71-.08-1.49.14-2.36.23-.86.62-1.68,1.19-2.45.58-.77,1.24-1.38,2-1.84.77-.46,1.55-.68,2.36-.68s1.38.21,1.84.63c.47.42.76.99.88,1.71.13.71.08,1.49-.14,2.34-.24.9-.64,1.73-1.19,2.48-.55.74-1.2,1.33-1.94,1.76-.73.43-1.49.65-2.29.65ZM155.92,131.17c.37,0,.72-.12,1.04-.36.34-.25.62-.57.85-.95.24-.4.42-.81.54-1.24.19-.72.23-1.5.11-2.34-.12-.84-.38-1.54-.79-2.11-.41-.56-.91-.85-1.51-.85-.36,0-.71.13-1.04.38-.34.24-.62.56-.86.95-.23.4-.4.81-.52,1.24-.18.72-.21,1.5-.09,2.34.12.83.38,1.52.77,2.09.41.56.91.85,1.51.85ZM167.51,132.01c-.19,0-.34-.08-.45-.23-.11-.16-.13-.35-.07-.59l1.62-5.47c.22-.68.29-1.17.23-1.46-.05-.3-.17-.45-.36-.45-.3,0-.83.44-1.58,1.33-.76.88-1.75,2.36-2.99,4.45l-.59,2.2h-1.93l1.69-6.32c.07-.26.17-.56.31-.88.14-.32.28-.59.4-.79l.92.4c-1.49.42-2.71.92-3.67,1.51l-.2-.32,3.83-2.75c.17-.12.33-.18.49-.18.18,0,.31.07.4.22.1.14.11.33.05.56l-.88,3.33c-.17.64-.43,1.39-.79,2.25l-.11-.02c1.15-1.86,2.23-3.38,3.24-4.55,1.01-1.19,1.91-1.78,2.72-1.78.48,0,.8.26.97.79.18.53.11,1.36-.22,2.5l-.97,3.31c-.08.28-.2.56-.34.86-.14.3-.29.58-.43.83l-.94-.41c1.49-.42,2.72-.92,3.69-1.51l.2.32-3.8,2.74c-.13.1-.28.14-.43.14ZM173.95,132.01c-.64,0-1.06-.22-1.28-.65-.2-.43-.17-1.13.09-2.11l1.62-6.07h-.92l.05-.34c1.36-.42,2.43-1.29,3.22-2.61h.36l-.65,2.43h3.51l-.05.52h-3.58l-1.84,6.84c-.12.42-.2.74-.23.95-.02.2-.02.34.02.41.04.07.1.11.2.11.22,0,.55-.21,1.01-.63.47-.42,1.02-1.03,1.66-1.84.11-.14.23-.22.38-.22.16-.01.28.04.38.14.1.11.13.25.09.41l-.2,1.37c-.58.35-1.23.65-1.96.9-.73.24-1.36.36-1.87.36ZM181.25,125.46c.07-.26.17-.56.31-.88.14-.32.28-.59.4-.79l.92.4c-1.49.42-2.71.92-3.67,1.51l-.2-.32,3.83-2.75c.17-.12.33-.18.49-.18.18,0,.31.07.4.22.1.14.11.33.05.56l-.88,3.37c-.17.6-.48,1.45-.94,2.54l-.11.07c.8-1.51,1.49-2.72,2.07-3.62.58-.91,1.18-1.66,1.82-2.25.65-.59,1.28-.86,1.91-.81l-.16,1.33c-.04.25-.13.44-.27.58s-.36.25-.65.34c-.77.22-1.53.73-2.29,1.55-.74.8-1.48,1.91-2.21,3.31l-.58,2.16h-1.93l1.69-6.32ZM189.74,132.01c-.71,0-1.3-.19-1.76-.58-.47-.4-.78-.94-.94-1.62-.14-.7-.1-1.46.13-2.3.24-.88.65-1.7,1.22-2.48.59-.78,1.28-1.4,2.07-1.87.8-.48,1.63-.72,2.48-.72.73,0,1.33.17,1.78.52.46.34.59.82.41,1.46-.14.5-.45.95-.92,1.33-.47.37-1.04.71-1.73,1.01-.67.29-1.61.64-2.81,1.06l-1.15.4.13-.54,1.17-.41c.97-.34,1.76-.72,2.36-1.15.6-.44.97-.95,1.12-1.53.12-.42.09-.79-.09-1.1-.18-.31-.5-.47-.95-.47s-.91.17-1.31.52c-.41.35-.76.78-1.04,1.3-.29.5-.5,1.02-.65,1.55-.2.68-.29,1.37-.27,2.05.02.67.18,1.23.47,1.67.29.43.71.65,1.28.65.41,0,.88-.13,1.42-.4.54-.28,1.1-.67,1.69-1.19l.2.32c-.66.78-1.36,1.4-2.09,1.85-.73.44-1.47.67-2.21.67ZM210.38,132.01c-.19,0-.34-.08-.45-.23s-.13-.35-.05-.59l1.6-5.4c.2-.7.3-1.2.29-1.51-.01-.32-.09-.49-.23-.49-.18,0-.45.18-.81.54s-.82.95-1.4,1.82c-.58.86-1.27,2.01-2.07,3.44l-.59,2.2h-1.91l1.6-5.99c.13-.49.22-.88.25-1.17.04-.3.03-.51-.02-.63-.04-.13-.1-.2-.18-.2-.18,0-.45.18-.81.54s-.82.96-1.4,1.84c-.58.86-1.27,2.01-2.07,3.44l-.59,2.18h-1.93l1.69-6.32c.07-.26.17-.56.31-.88.14-.32.28-.59.4-.79l.92.4c-1.49.42-2.71.92-3.67,1.51l-.2-.32,3.83-2.75c.17-.12.33-.18.49-.18.18,0,.31.07.4.22.1.14.11.33.05.56l-.88,3.33c-.16.55-.4,1.25-.72,2.09l-.11-.02c1.07-1.84,2.06-3.32,2.99-4.46.94-1.14,1.78-1.71,2.54-1.71.43,0,.73.26.88.77.17.5.1,1.34-.22,2.52l-.23.81c-.16.59-.39,1.28-.7,2.09l-.13-.02c1.07-1.84,2.06-3.32,2.99-4.46.94-1.14,1.78-1.71,2.54-1.71.44,0,.75.26.92.77s.08,1.36-.27,2.52l-.97,3.31c-.08.28-.2.56-.34.86-.14.3-.29.58-.43.83l-.92-.41c1.49-.42,2.71-.92,3.67-1.51l.2.32-3.8,2.74c-.13.1-.28.14-.43.14ZM218.12,132.01c-.78,0-1.42-.2-1.91-.59-.48-.41-.79-.96-.94-1.66-.13-.71-.08-1.49.14-2.36.23-.86.62-1.68,1.19-2.45.58-.77,1.24-1.38,2-1.84.77-.46,1.55-.68,2.36-.68s1.38.21,1.84.63c.47.42.76.99.88,1.71.13.71.08,1.49-.14,2.34-.24.9-.64,1.73-1.19,2.48-.55.74-1.2,1.33-1.94,1.76-.73.43-1.49.65-2.29.65ZM219.38,131.17c.37,0,.72-.12,1.04-.36.34-.25.62-.57.85-.95.24-.4.42-.81.54-1.24.19-.72.23-1.5.11-2.34-.12-.84-.38-1.54-.79-2.11-.41-.56-.91-.85-1.51-.85-.36,0-.71.13-1.04.38-.34.24-.62.56-.86.95-.23.4-.4.81-.52,1.24-.18.72-.21,1.5-.09,2.34.12.83.38,1.52.77,2.09.41.56.91.85,1.51.85ZM225.28,132.01c-.19,0-.34-.08-.45-.23s-.13-.35-.05-.59l1.69-5.74c.07-.24.18-.52.32-.85.16-.32.31-.59.45-.81l.92.4c-1.49.42-2.71.92-3.67,1.51l-.2-.32,3.83-2.75c.17-.12.33-.18.49-.18.18,0,.31.07.4.22.1.14.11.33.04.56l-1.71,5.83c-.08.28-.2.56-.34.86-.13.3-.28.58-.43.83l-.92-.41c1.48-.42,2.69-.92,3.65-1.51l.22.32-3.78,2.74c-.16.1-.31.14-.45.14ZM228.77,121.23c-.36,0-.62-.12-.77-.36-.16-.25-.19-.52-.09-.81.06-.25.2-.45.43-.59.24-.16.5-.23.77-.23.36,0,.61.13.76.38.16.24.19.51.11.81-.08.25-.24.45-.47.59-.22.14-.46.22-.74.22Z"/>
  <path class="cls-2" d="M100.64,128.08c0,2.03-.11,2.69-2.4,2.36-3.99-.57-3.8-10.31-3.95-13.08-.2-3.8-.19-7.72-.04-11.53.2-5.19,1.73,10.25,2.4,15.4.34,2.59.53,27.37,5.59,24.83,2.9-1.46,11.8-4.44,7.81,2.22-1.54,2.57-5.35,5.42-6.17,8.28-.55,1.92,13.48,1.16,15,1.16,4.56,0,9.15-.13,13.71,0,2.67.08,1.6,4.38,1.6,6.41,0,2.97,1.05-5.1,1.69-6.45,1.83-3.87,6.2-11.22,10.34-13.08,3.98-1.8,10.02.47,11.93,4.32"/>
</svg>