<?xml version="1.0" encoding="UTF-8"?>
<svg id="illu" xmlns="http://www.w3.org/2000/svg" viewBox="0 0 463.31 560.61">
  <defs>
    <style>
      .cls-1 {
        fill: #c16357;
      }

      .cls-2 {
        fill: none;
        stroke: #5863f8;
        stroke-linecap: round;
        stroke-width: 2px;
      }
    </style>
  </defs>
  <path class="cls-1" d="M85.2,79.8c-.46,0-.93-.08-1.41-.24-.47-.17-.91-.38-1.32-.63l.16-1.65c.02-.18.1-.32.23-.4.13-.1.27-.13.42-.09.16.04.28.14.36.31.4.8.76,1.38,1.09,1.74.33.36.65.54.96.54.27,0,.5-.14.7-.43.2-.29.39-.74.56-1.36l2.26-8.48h1.71l-1.92,7.22c-.31,1.21-.79,2.1-1.44,2.65-.65.55-1.44.82-2.37.82ZM91.64,73.07l1.46-3.96.97-.02c.17,0,.31.04.41.12s.15.19.15.33c0,.13-.06.26-.16.38-.53.63-1,1.2-1.4,1.72-.39.51-.76,1.04-1.12,1.59l-.3-.16ZM97.64,77.87l1.12-4.16c.14-.52.18-.9.13-1.15-.04-.25-.18-.38-.43-.38-.27,0-.64.14-1.11.44-.46.29-1.03.73-1.7,1.34-.14.13-.28.19-.42.18-.13,0-.23-.07-.3-.19-.06-.12-.07-.26-.01-.4l.25-.95c.53-.24,1.06-.43,1.58-.55.52-.14.99-.21,1.41-.21.88,0,1.49.25,1.83.75.34.49.36,1.26.06,2.32l-.77,2.74-.16,1.97h-1.62l.14-1.74ZM94.48,79.77c-.42,0-.75-.09-1-.26-.25-.18-.41-.41-.48-.7-.08-.3-.07-.62.03-.98.09-.34.26-.65.52-.93s.6-.54,1.03-.78c.43-.25.98-.52,1.65-.81l.55-.21,2.18-.87-.09.42-1.81.81c-.66.29-1.2.6-1.61.93s-.67.7-.78,1.11c-.08.31-.03.57.15.77.18.2.47.3.87.3.35,0,.72-.1,1.11-.3.39-.2.72-.45,1.01-.77v.44c-.46.55-.97.99-1.53,1.34-.56.33-1.16.49-1.8.49ZM101.78,79.8c-.16,0-.28-.06-.38-.19-.09-.13-.1-.3-.04-.49l1.41-4.78c.06-.2.15-.44.27-.7.13-.27.26-.5.38-.68l.76.33c-1.24.35-2.26.77-3.06,1.26l-.16-.27,3.19-2.3c.14-.1.27-.15.4-.15.15,0,.26.06.33.18.08.12.09.28.03.47l-1.42,4.86c-.07.23-.17.47-.28.72-.11.25-.23.48-.36.69l-.76-.35c1.23-.35,2.24-.77,3.04-1.26l.18.27-3.15,2.28c-.13.08-.25.12-.38.12ZM104.69,70.82c-.3,0-.52-.1-.65-.3-.13-.21-.16-.43-.08-.67.05-.21.17-.38.36-.5.2-.13.41-.19.65-.19.3,0,.51.11.63.31.13.2.16.42.09.67-.07.21-.2.38-.39.5-.18.12-.38.18-.61.18ZM111.7,79.8c-.52,0-.92-.17-1.19-.52-.26-.35-.36-.84-.3-1.45l.3-.11-.71,1.89h-1.4l.92-2.46,1.94-7.36,1.03.55-2.78.05.05-.29c.96-.17,1.81-.49,2.56-.96.13-.08.25-.12.36-.12.15,0,.26.06.35.19.08.12.1.27.06.45l-1.23,4.71c-.08.31-.19.64-.33.99-.13.35-.26.65-.39.9l-.17.18c.53-1.05,1.06-1.92,1.58-2.61.53-.7,1.01-1.21,1.45-1.53.45-.32.85-.48,1.22-.48.39,0,.71.15.96.46.26.31.42.74.47,1.28.06.54,0,1.14-.18,1.8-.23.85-.6,1.61-1.12,2.3-.51.68-1.08,1.21-1.71,1.59-.62.37-1.2.55-1.74.55ZM112.18,79.28c.53,0,1.02-.24,1.48-.73.46-.5.8-1.15,1.01-1.95.15-.55.23-1.1.23-1.66s-.07-1.02-.21-1.38c-.14-.36-.33-.54-.58-.54s-.6.21-1.02.64c-.41.42-.82.95-1.23,1.59-.41.64-.75,1.26-1.02,1.86-.06.35-.05.69.03,1.03.08.33.23.61.45.82.23.21.52.32.87.32ZM119.16,79.8c-.59,0-1.08-.16-1.47-.48-.39-.33-.65-.78-.78-1.35-.12-.58-.08-1.22.1-1.92.2-.73.54-1.42,1.02-2.07.49-.65,1.07-1.17,1.73-1.56.67-.4,1.36-.6,2.07-.6.61,0,1.1.14,1.49.43.38.28.49.68.34,1.21-.12.42-.38.79-.76,1.11-.39.31-.87.59-1.44.84-.56.24-1.34.54-2.34.89l-.96.33.11-.45.97-.35c.81-.28,1.47-.6,1.97-.96.5-.37.81-.8.93-1.27.1-.35.08-.66-.08-.91-.15-.26-.42-.39-.79-.39s-.76.14-1.1.43-.63.65-.87,1.08c-.24.42-.42.85-.54,1.29-.17.57-.24,1.14-.23,1.71.02.56.15,1.02.39,1.39.24.36.59.54,1.06.54.34,0,.74-.11,1.19-.33.45-.23.92-.56,1.41-.99l.16.27c-.55.65-1.13,1.16-1.74,1.55-.61.37-1.23.55-1.85.55ZM126.64,79.8c-.6,0-1.18-.12-1.74-.36-.56-.25-1.03-.56-1.42-.93l.15-1.09c.02-.15.08-.26.16-.33.09-.08.2-.11.32-.09.13,0,.24.07.35.18.5.55,1.05.99,1.66,1.32s1.14.49,1.59.49c.24,0,.45-.05.63-.15.19-.11.31-.25.36-.42.04-.17,0-.35-.12-.55-.11-.2-.31-.42-.6-.66-.28-.25-.67-.55-1.15-.89-.78-.56-1.32-1.06-1.62-1.5-.3-.45-.38-.94-.24-1.45.13-.53.41-.92.84-1.17.44-.25.98-.38,1.62-.38.43,0,.85.05,1.26.16.42.11.87.27,1.33.48l-.13,1.05c-.04.23-.15.38-.32.44-.17.05-.33-.01-.5-.18-.41-.43-.84-.78-1.29-1.07-.45-.28-.84-.42-1.17-.42-.21,0-.39.05-.54.15-.15.09-.24.2-.27.35-.05.18-.01.38.1.59.12.21.31.43.57.68.27.24.6.51,1.01.81.58.41,1.01.77,1.29,1.08.29.31.48.62.57.93.1.3.1.64.01,1.02-.16.6-.48,1.07-.96,1.41-.47.34-1.06.51-1.76.51ZM132.83,79.8c-.65,0-1.18-.16-1.59-.49-.4-.34-.66-.8-.78-1.38-.11-.59-.07-1.24.12-1.97.19-.72.52-1.4.99-2.04.48-.64,1.03-1.15,1.67-1.53.64-.38,1.29-.57,1.96-.57s1.15.17,1.53.52c.39.35.64.83.74,1.43.11.59.07,1.24-.12,1.95-.2.75-.53,1.44-.99,2.07-.46.62-1,1.11-1.62,1.47-.61.36-1.25.54-1.91.54ZM133.88,79.1c.31,0,.6-.1.87-.3.28-.21.51-.47.7-.79.2-.33.35-.68.45-1.04.16-.6.19-1.25.09-1.95-.1-.7-.32-1.28-.66-1.75-.34-.47-.76-.71-1.26-.71-.3,0-.59.11-.87.32-.28.2-.52.47-.72.8-.19.33-.34.67-.44,1.03-.15.6-.17,1.25-.07,1.95.1.69.32,1.27.64,1.74.34.47.76.7,1.26.7ZM138.8,79.8c-.16,0-.29-.06-.38-.19-.09-.13-.11-.3-.05-.49l1.41-4.78c.06-.2.15-.44.27-.7.13-.27.26-.5.38-.68l.76.33c-1.24.35-2.26.77-3.06,1.26l-.17-.27,3.19-2.3c.14-.1.28-.15.4-.15.15,0,.26.06.33.18.08.12.09.28.03.47l-1.42,4.86c-.07.23-.17.47-.29.72-.11.25-.23.48-.36.69l-.76-.35c1.23-.35,2.25-.77,3.04-1.26l.18.27-3.15,2.28c-.13.08-.26.12-.38.12ZM141.71,70.82c-.3,0-.51-.1-.64-.3-.13-.21-.16-.43-.08-.67.05-.21.17-.38.36-.5.2-.13.42-.19.65-.19.3,0,.51.11.63.31.13.2.16.42.09.67-.07.21-.2.38-.39.5-.18.12-.38.18-.61.18ZM148.06,79.8c-.16,0-.28-.06-.38-.19-.09-.13-.11-.3-.06-.49l1.35-4.56c.18-.57.25-.97.19-1.21-.04-.25-.14-.38-.3-.38-.25,0-.69.37-1.32,1.11-.63.73-1.46,1.97-2.49,3.7l-.5,1.83h-1.6l1.41-5.27c.06-.22.15-.46.26-.73.12-.27.23-.49.33-.66l.76.33c-1.24.35-2.26.77-3.06,1.26l-.17-.27,3.19-2.3c.14-.1.28-.15.41-.15.15,0,.26.06.33.18.08.12.1.28.05.47l-.74,2.78c-.14.53-.36,1.15-.66,1.88l-.09-.02c.96-1.55,1.86-2.81,2.7-3.8.84-.99,1.6-1.48,2.26-1.48.4,0,.67.22.81.66.15.44.09,1.14-.18,2.09l-.81,2.76c-.07.23-.17.47-.28.72-.12.25-.24.48-.36.69l-.78-.35c1.24-.35,2.26-.77,3.07-1.26l.17.27-3.17,2.28c-.11.08-.23.12-.36.12ZM156.63,79.8c-.39,0-.72-.15-.97-.47-.25-.31-.4-.73-.47-1.27-.05-.54.01-1.14.19-1.8.23-.85.6-1.61,1.11-2.3.52-.68,1.1-1.2,1.72-1.57.63-.38,1.22-.57,1.76-.57.51,0,.9.17,1.17.52.27.35.38.84.32,1.45l-.36-.51.9-3.4,1.05.38-2.76.06.05-.29c.95-.18,1.81-.5,2.56-.96.12-.08.24-.12.36-.12.15,0,.26.06.35.18.09.12.11.27.04.45l-2.06,7.71c-.07.26-.16.52-.27.78-.1.25-.21.47-.33.66l-.76-.35c1.24-.35,2.26-.77,3.06-1.26l.17.27-3.15,2.28c-.12.08-.24.12-.36.12-.16,0-.29-.06-.38-.19-.09-.13-.11-.3-.06-.49l.53-1.86c.11-.36.22-.71.33-1.05.12-.35.23-.63.33-.84l.18-.18c-.52,1.05-1.05,1.93-1.58,2.62-.53.69-1.01,1.2-1.46,1.52-.44.32-.84.48-1.21.48ZM157.56,78.62c.27,0,.61-.21,1.02-.63.41-.43.82-.97,1.23-1.61.42-.64.76-1.26,1.03-1.86.05-.35.04-.69-.04-1.02-.08-.34-.24-.61-.46-.82-.22-.22-.5-.33-.84-.33-.54,0-1.04.25-1.5.75-.45.49-.78,1.14-1,1.94-.14.55-.21,1.1-.21,1.66s.07,1.02.21,1.38c.14.36.33.54.57.54ZM166.24,79.8c-.59,0-1.08-.16-1.47-.48-.39-.33-.65-.78-.78-1.35-.12-.58-.08-1.22.11-1.92.2-.73.54-1.42,1.02-2.07.49-.65,1.06-1.17,1.72-1.56.67-.4,1.36-.6,2.07-.6.61,0,1.1.14,1.49.43.38.28.49.68.35,1.21-.12.42-.38.79-.76,1.11-.39.31-.87.59-1.44.84-.56.24-1.34.54-2.34.89l-.96.33.11-.45.97-.35c.81-.28,1.47-.6,1.97-.96.5-.37.81-.8.93-1.27.1-.35.08-.66-.07-.91-.15-.26-.42-.39-.79-.39s-.76.14-1.1.43-.63.65-.87,1.08c-.24.42-.42.85-.54,1.29-.17.57-.24,1.14-.22,1.71.02.56.15,1.02.39,1.39.24.36.6.54,1.07.54.34,0,.74-.11,1.18-.33.45-.23.92-.56,1.41-.99l.17.27c-.55.65-1.13,1.16-1.74,1.55-.61.37-1.22.55-1.84.55ZM175.87,74.34c.06-.22.14-.46.25-.73.12-.27.23-.49.33-.66l.76.33c-1.24.35-2.26.77-3.06,1.26l-.17-.27,3.19-2.3c.14-.1.27-.15.4-.15.15,0,.26.06.33.18.08.12.09.28.04.47l-.51,1.91c-.08.31-.19.64-.33,1.01-.13.35-.25.64-.38.88l-.17.18c.52-1.05,1.05-1.92,1.58-2.61.53-.7,1.01-1.21,1.46-1.53.45-.32.85-.48,1.21-.48.39,0,.71.15.96.46.26.31.42.74.47,1.28.05.54-.01,1.14-.18,1.8-.23.85-.61,1.61-1.12,2.3-.52.68-1.1,1.21-1.72,1.59-.62.37-1.2.55-1.74.55-.51,0-.9-.17-1.17-.52-.26-.35-.36-.84-.32-1.45l.38.51-1.17,4.35h-1.57l2.24-8.34ZM177.98,79.28c.53,0,1.02-.24,1.47-.73.46-.5.8-1.15,1.02-1.95.14-.55.21-1.1.21-1.66s-.07-1.02-.21-1.38c-.13-.36-.32-.54-.57-.54-.27,0-.61.21-1.02.64-.41.42-.83.95-1.25,1.59-.41.64-.75,1.26-1.02,1.86-.06.35-.05.69.03,1.03.09.33.24.61.46.82.23.21.52.32.87.32ZM186.9,77.87l1.12-4.16c.14-.52.18-.9.13-1.15-.04-.25-.18-.38-.43-.38-.27,0-.64.14-1.11.44-.46.29-1.03.73-1.69,1.34-.14.13-.28.19-.42.18-.13,0-.23-.07-.3-.19-.06-.12-.06-.26-.01-.4l.25-.95c.53-.24,1.06-.43,1.58-.55.52-.14.99-.21,1.41-.21.88,0,1.49.25,1.83.75.34.49.36,1.26.06,2.32l-.76,2.74-.16,1.97h-1.62l.14-1.74ZM183.73,79.77c-.42,0-.76-.09-1.01-.26-.25-.18-.41-.41-.48-.7-.08-.3-.07-.62.03-.98.09-.34.26-.65.53-.93.26-.28.6-.54,1.03-.78.43-.25.98-.52,1.65-.81l.56-.21,2.18-.87-.09.42-1.82.81c-.66.29-1.19.6-1.6.93-.41.33-.67.7-.78,1.11-.08.31-.03.57.15.77s.47.3.87.3c.35,0,.72-.1,1.11-.3s.72-.45,1-.77l.02.44c-.47.55-.99.99-1.55,1.34-.56.33-1.16.49-1.8.49ZM192.08,74.34c.06-.22.15-.46.25-.73.12-.27.23-.49.33-.66l.76.33c-1.24.35-2.26.77-3.06,1.26l-.17-.27,3.19-2.3c.14-.1.27-.15.4-.15.15,0,.26.06.33.18.08.12.1.28.04.47l-.74,2.8c-.14.5-.4,1.2-.78,2.11l-.09.06c.67-1.26,1.24-2.27,1.72-3.02.48-.76.99-1.38,1.52-1.88.54-.49,1.07-.71,1.59-.67l-.14,1.11c-.03.21-.1.37-.22.48-.12.11-.3.2-.54.28-.64.18-1.27.61-1.9,1.29-.62.67-1.24,1.59-1.84,2.76l-.48,1.8h-1.6l1.41-5.27ZM198.39,79.8c-.34,0-.61-.07-.81-.22-.2-.16-.32-.41-.36-.75-.04-.34.01-.8.16-1.37l2.06-7.75,1.05.56-2.76.06.04-.29c.96-.18,1.82-.5,2.57-.96.12-.08.24-.12.35-.12.16,0,.28.06.36.18.08.12.1.27.04.45l-2.29,8.62c-.11.36-.18.62-.21.8-.02.16-.02.27,0,.32.03.05.08.07.14.07.13,0,.35-.17.65-.51.3-.35.66-.84,1.08-1.47.09-.15.2-.24.33-.26.13-.02.24.02.33.12.09.1.12.24.1.42l-.21,1.17c-.39.27-.83.49-1.32.67-.48.17-.91.26-1.29.26ZM204.4,79.8c-.59,0-1.08-.16-1.47-.48-.39-.33-.65-.78-.78-1.35-.12-.58-.09-1.22.1-1.92.2-.73.54-1.42,1.02-2.07.49-.65,1.06-1.17,1.72-1.56.67-.4,1.36-.6,2.07-.6.61,0,1.1.14,1.49.43.38.28.49.68.35,1.21-.12.42-.38.79-.76,1.11-.39.31-.87.59-1.44.84-.56.24-1.34.54-2.34.89l-.96.33.1-.45.98-.35c.81-.28,1.46-.6,1.96-.96.5-.37.81-.8.93-1.27.1-.35.08-.66-.07-.91-.15-.26-.41-.39-.79-.39s-.76.14-1.1.43-.63.65-.87,1.08c-.24.42-.42.85-.54,1.29-.17.57-.24,1.14-.22,1.71.02.56.15,1.02.39,1.39.24.36.6.54,1.07.54.34,0,.74-.11,1.18-.33.45-.23.92-.56,1.41-.99l.16.27c-.55.65-1.13,1.16-1.74,1.55-.61.37-1.22.55-1.84.55ZM210.88,74.34c.06-.22.15-.46.26-.73.12-.27.23-.49.33-.66l.76.33c-1.24.35-2.26.77-3.06,1.26l-.17-.27,3.2-2.3c.14-.1.27-.15.4-.15.15,0,.26.06.33.18.08.12.1.28.04.47l-.74,2.8c-.14.5-.4,1.2-.78,2.11l-.09.06c.67-1.26,1.25-2.27,1.73-3.02.48-.76.99-1.38,1.51-1.88.54-.49,1.07-.71,1.59-.67l-.13,1.11c-.03.21-.1.37-.23.48-.12.11-.3.2-.54.28-.64.18-1.27.61-1.9,1.29-.62.67-1.24,1.59-1.85,2.76l-.48,1.8h-1.61l1.41-5.27Z"/>
  <path class="cls-2" d="M85.87,90.32h53.31c5.35,0,15.43-2.33,19.94,1.47,6.19,5.22,19.28,2.93,26.7,2.93h26.04"/>
  <path class="cls-1" d="M264.72,115.8c-.46,0-.93-.08-1.41-.24-.47-.17-.91-.38-1.32-.63l.16-1.65c.02-.18.1-.31.23-.4.13-.1.27-.13.42-.09.16.04.28.15.36.31.4.8.76,1.38,1.1,1.74s.65.54.96.54c.27,0,.51-.15.71-.44s.38-.74.56-1.37l2.26-8.47h1.71l-1.92,7.22c-.31,1.21-.79,2.1-1.44,2.65-.65.55-1.44.83-2.37.83ZM272.28,115.8c-.59,0-1.08-.16-1.47-.48-.39-.33-.65-.78-.78-1.35-.12-.58-.08-1.22.11-1.92.2-.73.54-1.42,1.02-2.07.49-.65,1.07-1.17,1.73-1.56.67-.4,1.36-.6,2.07-.6.61,0,1.1.15,1.49.44.38.28.49.68.34,1.22-.12.42-.38.79-.76,1.11-.39.31-.87.59-1.44.84-.56.24-1.34.53-2.34.89l-.96.33.1-.45.98-.35c.81-.28,1.46-.6,1.96-.96.5-.37.81-.8.93-1.28.1-.35.08-.65-.07-.92-.15-.26-.41-.39-.79-.39s-.76.15-1.1.44c-.34.29-.63.65-.87,1.08-.24.42-.42.85-.54,1.29-.17.57-.24,1.14-.22,1.71.02.56.15,1.03.39,1.4.24.36.6.54,1.07.54.34,0,.74-.11,1.18-.33.45-.23.92-.56,1.41-.99l.16.27c-.55.65-1.13,1.16-1.74,1.54-.61.37-1.22.56-1.85.56ZM285.59,115.8c-.16,0-.29-.06-.38-.19s-.11-.29-.06-.49l1.35-4.56c.18-.57.25-.97.2-1.22-.04-.25-.14-.38-.3-.38-.25,0-.69.37-1.32,1.11-.63.73-1.46,1.97-2.49,3.7l-.5,1.83h-1.6l1.41-5.26c.06-.22.15-.47.26-.74.12-.27.23-.49.33-.66l.77.33c-1.24.35-2.26.77-3.06,1.26l-.16-.27,3.19-2.29c.14-.1.28-.15.41-.15.15,0,.26.06.33.18.08.12.1.27.05.47l-.74,2.77c-.14.53-.36,1.16-.66,1.88h-.09c.96-1.56,1.86-2.83,2.7-3.81.84-.99,1.6-1.49,2.26-1.49.4,0,.67.22.81.66.15.44.09,1.13-.18,2.08l-.81,2.76c-.07.23-.16.47-.28.72-.12.25-.24.48-.36.69l-.78-.35c1.24-.35,2.26-.77,3.07-1.26l.16.27-3.16,2.28c-.11.08-.23.12-.36.12ZM291.9,115.8c-.59,0-1.08-.16-1.47-.48-.39-.33-.65-.78-.78-1.35-.12-.58-.08-1.22.1-1.92.2-.73.54-1.42,1.02-2.07.49-.65,1.07-1.17,1.73-1.56.67-.4,1.36-.6,2.07-.6.61,0,1.1.15,1.49.44.38.28.49.68.35,1.22-.12.42-.38.79-.76,1.11-.39.31-.87.59-1.44.84-.56.24-1.34.53-2.34.89l-.96.33.11-.45.97-.35c.81-.28,1.47-.6,1.97-.96.5-.37.81-.8.93-1.28.1-.35.07-.65-.07-.92-.15-.26-.42-.39-.79-.39s-.76.15-1.1.44c-.34.29-.63.65-.87,1.08-.24.42-.42.85-.54,1.29-.17.57-.24,1.14-.23,1.71.02.56.15,1.03.39,1.4.24.36.6.54,1.07.54.34,0,.74-.11,1.18-.33.45-.23.92-.56,1.41-.99l.17.27c-.55.65-1.13,1.16-1.74,1.54-.61.37-1.23.56-1.85.56ZM302.53,115.8c-.6,0-1.18-.12-1.74-.36-.56-.25-1.04-.56-1.43-.93l.15-1.09c.02-.15.07-.26.16-.33.09-.08.2-.11.32-.09.13.01.24.07.35.18.5.55,1.05.99,1.66,1.32.61.33,1.14.49,1.59.49.24,0,.45-.05.63-.15.19-.11.31-.25.36-.42.04-.17,0-.35-.12-.56-.11-.2-.31-.42-.6-.66-.28-.25-.66-.54-1.15-.88-.78-.56-1.32-1.06-1.62-1.5-.3-.45-.38-.94-.24-1.46.13-.53.41-.92.84-1.17.44-.25.98-.38,1.62-.38.43,0,.85.06,1.26.17.42.11.87.27,1.34.48l-.14,1.05c-.04.23-.14.38-.31.44-.17.05-.34-.01-.5-.18-.41-.43-.84-.78-1.29-1.07-.45-.28-.84-.42-1.17-.42-.21,0-.39.05-.54.15-.15.09-.24.2-.27.34-.05.18-.02.38.1.58.12.21.31.44.57.68.27.24.61.51,1.01.81.58.41,1.01.77,1.29,1.08.29.31.48.62.57.93.1.3.1.64.01,1.02-.16.6-.48,1.07-.96,1.41-.47.34-1.05.51-1.75.51ZM310.54,113.87l1.12-4.15c.14-.52.18-.9.14-1.15-.04-.25-.19-.38-.44-.38-.27,0-.64.15-1.11.43-.46.29-1.03.74-1.7,1.34-.14.13-.28.19-.42.18-.13-.01-.23-.08-.3-.19-.06-.12-.07-.26-.01-.41l.26-.94c.53-.24,1.05-.42,1.57-.56.52-.14.99-.21,1.41-.21.88,0,1.49.25,1.83.75.34.49.36,1.26.06,2.33l-.76,2.74-.17,1.97h-1.62l.13-1.74ZM307.37,115.77c-.42,0-.76-.08-1.01-.26-.25-.18-.41-.42-.48-.7-.08-.3-.07-.62.03-.98.09-.34.26-.65.52-.93.26-.28.61-.54,1.04-.78.43-.25.98-.52,1.65-.81l.55-.21,2.18-.87-.09.42-1.82.81c-.66.29-1.2.6-1.61.93-.41.33-.67.7-.78,1.11-.08.31-.03.56.15.76.18.2.47.3.87.3.35,0,.72-.1,1.11-.3s.73-.46,1.01-.76v.43c-.46.55-.97,1-1.53,1.33-.56.33-1.16.5-1.8.5ZM314.67,115.8c-.16,0-.28-.06-.38-.19-.09-.13-.1-.29-.04-.49l1.41-4.78c.06-.2.15-.44.27-.71.13-.27.25-.49.38-.67l.76.33c-1.24.35-2.26.77-3.06,1.26l-.17-.27,3.2-2.29c.14-.1.27-.15.4-.15.15,0,.26.06.33.18.08.12.09.27.03.47l-1.43,4.86c-.07.23-.17.47-.29.72-.11.25-.23.48-.36.69l-.76-.35c1.23-.35,2.24-.77,3.04-1.26l.18.27-3.15,2.28c-.13.08-.25.12-.38.12ZM317.58,106.82c-.3,0-.51-.1-.65-.3-.13-.21-.15-.44-.07-.67.05-.21.17-.38.36-.49.2-.13.42-.2.65-.2.3,0,.51.11.63.32.13.2.16.42.09.67-.07.21-.2.38-.39.49-.18.12-.39.18-.62.18ZM321.39,115.8c-.6,0-1.18-.12-1.74-.36-.56-.25-1.04-.56-1.43-.93l.15-1.09c.02-.15.08-.26.17-.33.09-.08.19-.11.32-.09.13.01.24.07.35.18.5.55,1.05.99,1.66,1.32.61.33,1.14.49,1.59.49.24,0,.45-.05.63-.15.19-.11.31-.25.36-.42.04-.17,0-.35-.12-.56-.11-.2-.31-.42-.6-.66-.28-.25-.66-.54-1.15-.88-.78-.56-1.32-1.06-1.62-1.5-.3-.45-.38-.94-.24-1.46.13-.53.41-.92.84-1.17.44-.25.98-.38,1.62-.38.43,0,.85.06,1.26.17.42.11.86.27,1.33.48l-.13,1.05c-.04.23-.15.38-.32.44-.17.05-.34-.01-.5-.18-.41-.43-.84-.78-1.29-1.07-.45-.28-.84-.42-1.17-.42-.21,0-.39.05-.54.15-.15.09-.24.2-.27.34-.05.18-.01.38.1.58.12.21.31.44.57.68.27.24.61.51,1.01.81.58.41,1.01.77,1.29,1.08.29.31.48.62.57.93.1.3.1.64.01,1.02-.16.6-.48,1.07-.96,1.41-.47.34-1.05.51-1.76.51ZM330.14,110.34c.06-.22.14-.47.26-.74.12-.27.23-.49.33-.66l.77.33c-1.24.35-2.26.77-3.06,1.26l-.17-.27,3.2-2.29c.14-.1.27-.15.4-.15.15,0,.26.06.33.18.08.12.1.27.05.47l-.51,1.9c-.08.31-.19.65-.33,1.01-.13.35-.26.65-.38.88l-.17.18c.52-1.05,1.05-1.92,1.58-2.61.53-.7,1.01-1.21,1.45-1.53.45-.32.86-.48,1.21-.48.39,0,.71.15.96.47.26.31.42.74.47,1.28.05.54-.01,1.14-.18,1.8-.23.85-.6,1.61-1.12,2.29-.52.68-1.1,1.21-1.73,1.59-.62.37-1.2.56-1.74.56-.51,0-.9-.17-1.17-.53-.26-.35-.37-.83-.32-1.45l.38.51-1.17,4.35h-1.57l2.23-8.34ZM332.25,115.28c.53,0,1.02-.24,1.47-.73.46-.5.8-1.15,1.02-1.95.14-.55.21-1.1.21-1.67s-.07-1.02-.21-1.38c-.13-.36-.32-.54-.57-.54-.27,0-.61.22-1.02.64-.41.42-.83.95-1.25,1.59-.41.64-.75,1.26-1.02,1.86-.06.35-.05.69.03,1.03.09.33.24.6.46.83.23.21.52.31.87.31ZM341.17,113.87l1.12-4.15c.14-.52.19-.9.14-1.15-.04-.25-.18-.38-.43-.38-.27,0-.64.15-1.11.43-.46.29-1.03.74-1.7,1.34-.14.13-.28.19-.42.18-.13-.01-.23-.08-.3-.19-.06-.12-.07-.26-.02-.41l.26-.94c.53-.24,1.05-.42,1.58-.56.52-.14.99-.21,1.41-.21.88,0,1.49.25,1.83.75.34.49.36,1.26.06,2.33l-.76,2.74-.17,1.97h-1.62l.13-1.74ZM338,115.77c-.42,0-.76-.08-1.01-.26-.25-.18-.41-.42-.48-.7-.08-.3-.07-.62.03-.98.09-.34.27-.65.53-.93.26-.28.6-.54,1.03-.78.43-.25.98-.52,1.65-.81l.55-.21,2.17-.87-.09.42-1.82.81c-.66.29-1.2.6-1.6.93-.41.33-.67.7-.78,1.11-.08.31-.03.56.15.76.18.2.47.3.87.3.35,0,.72-.1,1.11-.3.39-.2.73-.46,1.01-.76l.02.43c-.47.55-.99,1-1.55,1.33-.56.33-1.16.5-1.8.5ZM347.36,115.8c-.6,0-1.18-.12-1.74-.36-.56-.25-1.03-.56-1.42-.93l.15-1.09c.02-.15.08-.26.17-.33.09-.08.2-.11.32-.09.13.01.24.07.35.18.5.55,1.05.99,1.67,1.32.61.33,1.14.49,1.59.49.24,0,.45-.05.63-.15.19-.11.31-.25.36-.42.04-.17,0-.35-.12-.56-.11-.2-.31-.42-.6-.66-.28-.25-.67-.54-1.15-.88-.78-.56-1.32-1.06-1.62-1.5-.3-.45-.38-.94-.24-1.46.13-.53.41-.92.84-1.17.44-.25.98-.38,1.62-.38.43,0,.85.06,1.26.17.42.11.87.27,1.34.48l-.14,1.05c-.04.23-.14.38-.32.44-.17.05-.33-.01-.49-.18-.41-.43-.84-.78-1.29-1.07-.45-.28-.84-.42-1.17-.42-.21,0-.39.05-.54.15-.15.09-.24.2-.27.34-.05.18-.02.38.1.58.12.21.31.44.57.68.27.24.61.51,1.01.81.58.41,1.01.77,1.29,1.08.29.31.48.62.57.93.1.3.11.64.02,1.02-.16.6-.48,1.07-.96,1.41-.47.34-1.06.51-1.76.51ZM257.03,133.8c-.69,0-1.24-.18-1.66-.56s-.68-.86-.78-1.47c-.1-.62-.03-1.29.21-2.03.25-.74.63-1.4,1.14-1.99.51-.6,1.09-1.07,1.74-1.41.65-.35,1.29-.53,1.93-.53.38,0,.74.06,1.1.18.36.12.63.28.82.49l-.18,1.33c-.03.15-.1.27-.21.35-.1.07-.21.09-.35.06-.13-.03-.22-.12-.29-.26-.29-.52-.59-.9-.91-1.12s-.65-.35-.98-.35-.66.1-.96.3c-.3.19-.57.45-.79.78-.22.32-.4.68-.53,1.08-.19.61-.25,1.23-.19,1.85.06.62.25,1.13.57,1.54.33.4.78.6,1.34.6.43,0,.87-.11,1.32-.33.45-.23.9-.53,1.35-.92l.18.27c-.6.66-1.22,1.18-1.88,1.56-.65.37-1.31.56-1.99.56ZM264.15,133.8c-.65,0-1.18-.17-1.59-.5-.4-.34-.66-.8-.78-1.38-.11-.59-.07-1.25.12-1.96.19-.72.52-1.4.99-2.04.48-.64,1.04-1.15,1.66-1.53.64-.38,1.3-.57,1.97-.57s1.15.17,1.53.53c.39.35.63.82.74,1.42.11.59.07,1.24-.12,1.95-.2.75-.53,1.44-.99,2.07-.46.62-1,1.11-1.62,1.47-.61.36-1.24.54-1.9.54ZM265.2,133.1c.31,0,.6-.1.87-.3.28-.21.51-.48.7-.8.2-.33.35-.67.45-1.03.16-.6.19-1.25.09-1.95-.1-.7-.32-1.28-.66-1.76-.34-.47-.76-.7-1.26-.7-.3,0-.59.1-.87.31-.28.2-.52.47-.72.8-.19.33-.33.67-.43,1.03-.15.6-.17,1.25-.07,1.95.1.69.32,1.27.65,1.74.34.47.76.7,1.26.7ZM278.74,133.8c-.16,0-.29-.07-.38-.19-.09-.13-.11-.29-.05-.5l1.34-4.5c.17-.58.25-1,.24-1.26-.01-.27-.08-.4-.2-.4-.15,0-.38.15-.68.45-.29.29-.68.79-1.17,1.51-.48.72-1.05,1.68-1.72,2.86l-.5,1.83h-1.59l1.34-4.99c.11-.41.18-.74.21-.98.03-.25.03-.42-.01-.52-.03-.11-.08-.17-.15-.17-.15,0-.38.15-.68.45-.29.29-.68.8-1.17,1.53-.48.72-1.06,1.68-1.73,2.86l-.49,1.82h-1.6l1.41-5.26c.06-.22.15-.47.26-.74.12-.27.23-.49.33-.66l.76.33c-1.24.35-2.26.77-3.06,1.26l-.17-.27,3.2-2.29c.14-.1.27-.15.4-.15.15,0,.26.06.33.18.08.12.1.27.04.47l-.74,2.77c-.13.46-.33,1.04-.6,1.74h-.09c.89-1.54,1.72-2.78,2.49-3.74.78-.95,1.49-1.42,2.11-1.42.36,0,.61.22.74.65.14.42.08,1.12-.18,2.1l-.2.67c-.13.49-.32,1.07-.58,1.74h-.1c.89-1.54,1.72-2.78,2.49-3.74.78-.95,1.49-1.42,2.12-1.42.37,0,.62.22.76.65s.07,1.13-.23,2.1l-.81,2.76c-.07.23-.16.47-.29.72-.12.25-.24.48-.36.69l-.76-.34c1.24-.35,2.26-.77,3.06-1.26l.16.27-3.16,2.28c-.11.08-.23.12-.36.12ZM291.91,133.8c-.16,0-.29-.07-.38-.19s-.1-.29-.04-.5l1.34-4.5c.17-.58.25-1,.24-1.26,0-.27-.07-.4-.19-.4-.15,0-.38.15-.68.45-.29.29-.68.79-1.17,1.51-.48.72-1.06,1.68-1.73,2.86l-.49,1.83h-1.59l1.33-4.99c.11-.41.18-.74.21-.98.03-.25.02-.42-.01-.52-.03-.11-.08-.17-.15-.17-.15,0-.38.15-.67.45-.29.29-.68.8-1.17,1.53-.48.72-1.05,1.68-1.72,2.86l-.5,1.82h-1.6l1.41-5.26c.06-.22.15-.47.26-.74.12-.27.23-.49.33-.66l.76.33c-1.24.35-2.26.77-3.06,1.26l-.16-.27,3.19-2.29c.14-.1.28-.15.41-.15.15,0,.26.06.33.18.08.12.1.27.05.47l-.74,2.77c-.13.46-.33,1.04-.6,1.74h-.09c.89-1.54,1.72-2.78,2.49-3.74.78-.95,1.49-1.42,2.12-1.42.36,0,.6.22.74.65.14.42.08,1.12-.18,2.1l-.2.67c-.13.49-.32,1.07-.59,1.74h-.1c.89-1.54,1.72-2.78,2.49-3.74.78-.95,1.49-1.42,2.11-1.42.37,0,.62.22.76.65.14.43.07,1.13-.22,2.1l-.81,2.76c-.07.23-.17.47-.29.72s-.24.48-.36.69l-.76-.34c1.24-.35,2.26-.77,3.06-1.26l.17.27-3.17,2.28c-.11.08-.23.12-.36.12ZM298.22,133.8c-.59,0-1.08-.16-1.47-.48-.39-.33-.65-.78-.78-1.35-.12-.58-.08-1.22.11-1.92.2-.73.54-1.42,1.02-2.07.49-.65,1.07-1.17,1.73-1.56.67-.4,1.36-.6,2.07-.6.61,0,1.1.15,1.48.44.38.28.5.68.35,1.22-.12.42-.38.79-.76,1.11-.39.31-.87.59-1.44.84-.56.24-1.34.53-2.34.88l-.96.33.1-.45.98-.35c.81-.28,1.46-.6,1.96-.96.5-.37.81-.8.93-1.28.1-.35.08-.65-.07-.92-.15-.26-.41-.39-.79-.39s-.76.15-1.1.44c-.34.29-.63.65-.87,1.08-.24.42-.42.85-.54,1.29-.17.57-.24,1.14-.22,1.71.02.56.15,1.03.39,1.4.24.36.6.54,1.07.54.34,0,.74-.11,1.18-.33.45-.23.92-.56,1.41-.99l.16.27c-.55.65-1.13,1.17-1.74,1.54-.61.37-1.22.56-1.85.56ZM308.38,133.8c-.16,0-.29-.07-.38-.19s-.11-.29-.06-.5l1.35-4.56c.18-.57.25-.97.2-1.22-.04-.25-.14-.38-.3-.38-.25,0-.69.37-1.32,1.11-.63.73-1.46,1.97-2.49,3.7l-.49,1.83h-1.61l1.41-5.26c.06-.22.15-.47.26-.74.12-.27.23-.49.33-.66l.76.33c-1.24.35-2.26.77-3.06,1.26l-.16-.27,3.2-2.29c.14-.1.27-.15.4-.15.15,0,.26.06.33.18.08.12.1.27.05.47l-.74,2.77c-.14.53-.36,1.16-.66,1.88h-.09c.96-1.57,1.86-2.83,2.7-3.81.84-.99,1.6-1.49,2.26-1.49.4,0,.67.22.81.66.15.44.09,1.13-.18,2.08l-.81,2.76c-.07.23-.16.47-.28.72-.12.25-.24.48-.36.69l-.78-.34c1.24-.35,2.26-.77,3.07-1.26l.16.27-3.16,2.28c-.11.08-.23.12-.36.12ZM313.75,133.8c-.53,0-.89-.18-1.07-.54-.17-.36-.15-.94.07-1.75l1.35-5.06h-.76l.04-.28c1.13-.35,2.02-1.08,2.68-2.18h.3l-.54,2.03h2.93l-.04.44h-2.99l-1.53,5.7c-.1.35-.17.62-.2.79-.02.17-.01.29.01.35.03.06.09.09.17.09.18,0,.46-.18.84-.53.39-.35.85-.86,1.38-1.53.09-.12.19-.18.32-.18.13-.01.23.03.31.12.08.09.11.2.08.34l-.17,1.14c-.48.29-1.02.54-1.63.75-.61.2-1.13.3-1.56.3ZM322.66,133.8c-.34,0-.61-.07-.81-.22-.2-.16-.32-.41-.36-.75-.04-.34.02-.79.17-1.36l2.05-7.76,1.05.56-2.76.06.04-.28c.96-.18,1.82-.5,2.57-.96.12-.08.24-.12.35-.12.16,0,.28.06.36.18.08.12.1.27.04.45l-2.29,8.63c-.11.36-.18.62-.21.79-.02.16-.02.26,0,.31.03.05.08.08.14.08.13,0,.35-.17.64-.51.3-.35.66-.84,1.08-1.47.09-.15.2-.24.33-.25s.24.02.33.12c.09.1.12.24.1.42l-.21,1.17c-.39.27-.83.5-1.32.68-.48.17-.91.25-1.29.25ZM326.16,127.07l1.45-3.96h.98c.17-.01.3.03.4.1.1.08.15.19.15.33,0,.13-.05.25-.17.38-.53.63-.99,1.2-1.39,1.72-.39.51-.77,1.04-1.12,1.59l-.3-.17ZM332.16,131.87l1.12-4.16c.14-.52.18-.9.13-1.15-.04-.25-.18-.38-.43-.38-.27,0-.64.15-1.11.43-.46.29-1.03.74-1.7,1.34-.14.13-.28.19-.42.18-.13-.01-.23-.08-.3-.19-.06-.12-.07-.26-.02-.41l.26-.94c.53-.24,1.06-.42,1.58-.56.52-.14.99-.21,1.41-.21.88,0,1.49.25,1.83.75.34.49.36,1.26.06,2.33l-.76,2.75-.17,1.96h-1.62l.14-1.74ZM328.99,133.77c-.42,0-.76-.08-1.01-.25-.25-.18-.41-.42-.48-.71-.08-.3-.07-.62.03-.97.09-.34.27-.65.53-.93.26-.28.6-.54,1.03-.78.43-.25.98-.52,1.65-.81l.55-.21,2.17-.87-.09.42-1.82.81c-.66.29-1.19.6-1.6.93s-.67.7-.78,1.11c-.08.31-.03.56.15.76.18.2.47.3.87.3.35,0,.72-.1,1.11-.3.39-.2.73-.46,1.01-.76l.02.43c-.47.55-.99,1-1.55,1.33-.56.33-1.16.5-1.8.5ZM336.29,133.8c-.16,0-.29-.07-.38-.19-.09-.13-.11-.29-.05-.5l1.41-4.78c.06-.2.15-.44.27-.71.13-.27.26-.49.38-.67l.77.33c-1.24.35-2.26.77-3.06,1.26l-.17-.27,3.2-2.29c.14-.1.27-.15.4-.15.15,0,.26.06.33.18.08.12.09.27.03.47l-1.42,4.86c-.07.23-.17.47-.29.72-.11.25-.23.48-.36.69l-.76-.34c1.23-.35,2.24-.77,3.05-1.26l.18.27-3.15,2.28c-.13.08-.26.12-.38.12ZM339.2,124.82c-.3,0-.51-.1-.64-.3-.13-.21-.15-.44-.08-.67.05-.21.17-.38.36-.49.2-.13.42-.2.64-.2.3,0,.51.11.63.32.13.2.16.42.09.67-.07.21-.2.38-.39.49-.18.12-.39.18-.62.18ZM341.66,133.8c-.39,0-.71-.15-.98-.46-.25-.31-.4-.74-.46-1.28-.05-.54.02-1.14.2-1.8.23-.85.6-1.61,1.11-2.29.52-.68,1.1-1.21,1.73-1.58.63-.38,1.21-.57,1.76-.57.51,0,.9.17,1.17.53.27.35.38.83.32,1.45l-.36-.51.9-3.41,1.05.38-2.76.06.05-.28c.95-.18,1.8-.5,2.56-.96.12-.08.24-.12.36-.12.15,0,.26.06.35.18.09.12.11.27.04.45l-2.05,7.71c-.07.26-.16.52-.27.78-.1.25-.21.47-.33.66l-.76-.34c1.24-.35,2.26-.77,3.06-1.26l.17.27-3.15,2.28c-.12.08-.24.12-.36.12-.16,0-.29-.07-.38-.19s-.11-.29-.06-.5l.52-1.86c.11-.36.22-.71.33-1.05.12-.35.23-.63.33-.84l.18-.18c-.52,1.05-1.04,1.92-1.57,2.62-.53.69-1.02,1.19-1.46,1.51-.44.32-.85.48-1.21.48ZM342.59,132.62c.27,0,.61-.21,1.02-.63.41-.43.82-.96,1.23-1.6.42-.64.77-1.26,1.04-1.86.05-.35.04-.69-.04-1.02-.08-.34-.24-.62-.46-.83-.22-.22-.5-.33-.84-.33-.54,0-1.04.25-1.5.75-.45.49-.78,1.13-1,1.93-.14.55-.21,1.1-.21,1.66s.07,1.02.21,1.38c.14.36.33.54.57.54ZM351.28,133.8c-.59,0-1.08-.16-1.47-.48-.39-.33-.65-.78-.78-1.35-.12-.58-.08-1.22.11-1.92.2-.73.54-1.42,1.02-2.07.49-.65,1.07-1.17,1.73-1.56.67-.4,1.36-.6,2.07-.6.61,0,1.1.15,1.48.44.38.28.49.68.35,1.22-.12.42-.38.79-.77,1.11-.39.31-.87.59-1.44.84-.56.24-1.34.53-2.34.88l-.96.33.11-.45.98-.35c.81-.28,1.46-.6,1.96-.96.5-.37.81-.8.93-1.28.1-.35.08-.65-.08-.92-.15-.26-.41-.39-.79-.39s-.76.15-1.1.44c-.34.29-.63.65-.87,1.08-.24.42-.42.85-.54,1.29-.17.57-.24,1.14-.23,1.71.02.56.15,1.03.39,1.4.24.36.6.54,1.07.54.34,0,.73-.11,1.18-.33.45-.23.92-.56,1.41-.99l.16.27c-.55.65-1.13,1.17-1.74,1.54-.61.37-1.23.56-1.85.56ZM357.75,128.34c.06-.22.14-.47.26-.74.12-.27.23-.49.33-.66l.77.33c-1.24.35-2.26.77-3.06,1.26l-.17-.27,3.2-2.29c.14-.1.27-.15.4-.15.15,0,.26.06.33.18.08.12.1.27.05.47l-.74,2.81c-.14.5-.4,1.21-.78,2.11l-.09.06c.67-1.26,1.24-2.26,1.73-3.01.48-.76.98-1.39,1.51-1.88.54-.49,1.07-.72,1.59-.67l-.14,1.11c-.03.21-.11.37-.23.48-.12.11-.3.2-.54.28-.64.18-1.27.61-1.9,1.29-.62.67-1.23,1.59-1.85,2.76l-.48,1.8h-1.61l1.41-5.26Z"/>
  <path class="cls-2" d="M248.87,144.11c2.94,0,5.66-.02,8.52-.89,3.41-1.04,7.16-.61,10.7-.61,6.37,0,11.2,4.09,17.87,3.39,5.69-.6,11.17-4.39,16.86-4.39,3.55,0,6.6,1.31,9.69,3,3.21,1.76,6.32,2.53,9.86,3.28,7.6,1.6,13.56.61,19.97-3.5,2.83-1.81,7.24-3.03,10.5-1.78,5.15,1.97,9.52,4.01,15.02,5"/>
  <path class="cls-1" d="M77.46,186.8c-.46,0-.93-.08-1.41-.24-.47-.17-.91-.38-1.32-.63l.17-1.65c.02-.18.09-.32.22-.41.13-.1.27-.13.42-.09.16.04.28.14.36.32.4.8.76,1.38,1.09,1.74s.65.54.96.54c.27,0,.51-.15.7-.44.2-.29.39-.74.56-1.36l2.27-8.47h1.71l-1.92,7.21c-.31,1.21-.79,2.1-1.44,2.66-.65.55-1.44.82-2.37.82ZM85.01,186.8c-.59,0-1.08-.16-1.47-.48-.39-.33-.65-.78-.78-1.35-.12-.58-.08-1.22.1-1.92.2-.73.54-1.42,1.02-2.07.49-.65,1.07-1.17,1.73-1.56.67-.4,1.36-.6,2.07-.6.61,0,1.1.15,1.49.44.38.28.49.68.34,1.21-.12.42-.38.79-.76,1.11-.39.31-.87.59-1.44.84-.56.24-1.34.53-2.34.88l-.96.33.1-.45.98-.35c.81-.28,1.47-.6,1.97-.96.5-.37.81-.79.93-1.28.1-.35.08-.65-.07-.92s-.42-.39-.8-.39-.76.14-1.1.43c-.34.29-.63.65-.87,1.08-.24.42-.42.85-.54,1.29-.17.57-.24,1.14-.22,1.71.02.56.15,1.03.39,1.4.24.36.59.54,1.07.54.34,0,.73-.11,1.18-.33.45-.23.92-.56,1.41-.99l.17.27c-.55.65-1.13,1.17-1.74,1.54-.61.37-1.22.56-1.84.56ZM98.33,186.8c-.16,0-.28-.07-.38-.19s-.11-.29-.06-.5l1.35-4.56c.18-.57.24-.97.19-1.21-.04-.25-.14-.38-.3-.38-.25,0-.69.37-1.32,1.11-.63.73-1.46,1.97-2.49,3.71l-.5,1.83h-1.6l1.41-5.26c.06-.22.15-.47.25-.74.12-.27.23-.49.33-.66l.76.33c-1.24.35-2.26.77-3.06,1.26l-.17-.27,3.19-2.3c.14-.1.27-.15.41-.15.15,0,.26.06.33.18.08.12.09.28.05.47l-.74,2.78c-.14.53-.36,1.15-.66,1.88h-.09c.96-1.57,1.86-2.83,2.7-3.81.84-.99,1.6-1.49,2.27-1.49.4,0,.67.22.81.66.15.44.09,1.14-.18,2.08l-.81,2.76c-.07.23-.17.47-.28.72-.12.25-.24.48-.36.69l-.78-.34c1.24-.35,2.27-.77,3.08-1.26l.17.27-3.17,2.28c-.11.08-.23.12-.36.12ZM104.64,186.8c-.59,0-1.08-.16-1.47-.48-.39-.33-.65-.78-.78-1.35-.12-.58-.08-1.22.1-1.92.2-.73.54-1.42,1.02-2.07.49-.65,1.06-1.17,1.72-1.56.67-.4,1.36-.6,2.07-.6.61,0,1.1.15,1.49.44.38.28.49.68.35,1.21-.12.42-.38.79-.76,1.11-.39.31-.87.59-1.44.84-.56.24-1.34.53-2.34.88l-.96.33.1-.45.98-.35c.81-.28,1.47-.6,1.97-.96.5-.37.81-.79.93-1.28.1-.35.07-.65-.08-.92-.15-.26-.42-.39-.8-.39s-.75.14-1.09.43-.63.65-.87,1.08c-.24.42-.42.85-.54,1.29-.17.57-.25,1.14-.23,1.71.02.56.15,1.03.39,1.4.24.36.6.54,1.07.54.34,0,.74-.11,1.18-.33.45-.23.92-.56,1.41-.99l.17.27c-.55.65-1.13,1.17-1.74,1.54-.61.37-1.23.56-1.85.56ZM115.06,186.8c-.69,0-1.24-.18-1.67-.56-.42-.37-.68-.86-.78-1.47-.1-.62-.03-1.29.21-2.03.25-.74.63-1.4,1.14-1.99.51-.6,1.09-1.07,1.74-1.41.65-.35,1.29-.53,1.93-.53.38,0,.75.06,1.1.18.36.12.63.29.83.5l-.18,1.33c-.03.15-.1.26-.21.35-.1.07-.22.09-.35.06-.13-.03-.22-.11-.28-.25-.29-.52-.6-.89-.92-1.12s-.65-.35-.97-.35-.66.1-.96.3c-.3.19-.57.45-.8.78-.22.32-.4.68-.53,1.08-.19.61-.25,1.22-.19,1.85.06.62.25,1.13.57,1.54.33.4.78.6,1.34.6.43,0,.87-.11,1.32-.33.45-.23.9-.53,1.35-.92l.18.27c-.6.66-1.22,1.18-1.88,1.56-.65.37-1.31.56-1.99.56ZM122.18,186.8c-.65,0-1.18-.17-1.59-.5-.4-.34-.66-.8-.78-1.38-.11-.59-.07-1.25.12-1.96.19-.72.52-1.4.99-2.04.48-.64,1.03-1.15,1.66-1.53.64-.38,1.3-.57,1.97-.57s1.15.18,1.53.53c.39.35.63.83.74,1.43.11.59.07,1.24-.12,1.95-.2.75-.53,1.44-.99,2.07-.46.62-1,1.11-1.62,1.47-.61.36-1.24.54-1.9.54ZM123.23,186.1c.31,0,.6-.1.87-.3.28-.21.51-.48.7-.8.2-.33.35-.67.45-1.03.16-.6.19-1.25.09-1.95-.1-.7-.32-1.29-.66-1.76s-.76-.71-1.26-.71c-.3,0-.59.11-.87.32-.28.2-.52.47-.72.79-.19.33-.33.68-.43,1.04-.15.6-.17,1.25-.08,1.95.1.69.31,1.27.65,1.74.34.47.76.7,1.26.7ZM136.77,186.8c-.16,0-.29-.07-.38-.19-.09-.13-.11-.29-.05-.5l1.33-4.5c.17-.58.25-1,.24-1.26-.01-.27-.08-.41-.19-.41-.15,0-.38.15-.68.45s-.68.79-1.17,1.51c-.48.72-1.06,1.68-1.72,2.86l-.5,1.83h-1.59l1.34-5c.11-.41.18-.74.21-.97.03-.25.03-.42-.01-.53-.03-.11-.08-.17-.15-.17-.15,0-.38.15-.68.45s-.68.8-1.17,1.53c-.48.72-1.06,1.68-1.72,2.86l-.5,1.82h-1.6l1.41-5.26c.06-.22.15-.47.25-.74.12-.27.23-.49.33-.66l.76.33c-1.24.35-2.26.77-3.06,1.26l-.17-.27,3.19-2.3c.14-.1.28-.15.4-.15.15,0,.26.06.33.18.08.12.1.28.04.47l-.74,2.78c-.13.46-.33,1.04-.6,1.74h-.09c.89-1.54,1.72-2.79,2.49-3.74.78-.95,1.49-1.43,2.11-1.43.36,0,.61.22.74.65.14.42.08,1.12-.18,2.1l-.19.68c-.13.49-.32,1.07-.58,1.74h-.1c.89-1.54,1.72-2.79,2.49-3.74.78-.95,1.49-1.43,2.11-1.43.37,0,.62.22.76.65s.07,1.13-.22,2.1l-.81,2.76c-.07.23-.17.47-.29.72s-.24.48-.36.69l-.76-.34c1.24-.35,2.26-.77,3.06-1.26l.17.27-3.17,2.28c-.11.08-.23.12-.36.12ZM142.36,181.34c.06-.22.15-.47.26-.74.12-.27.23-.49.33-.66l.76.33c-1.24.35-2.26.77-3.06,1.26l-.17-.27,3.19-2.3c.14-.1.28-.15.4-.15.15,0,.26.06.33.18.08.12.1.28.04.47l-.51,1.9c-.08.31-.19.65-.33,1-.13.35-.25.65-.38.89l-.17.18c.52-1.05,1.04-1.92,1.58-2.61.53-.7,1.01-1.21,1.45-1.53.45-.32.86-.48,1.22-.48.39,0,.71.16.96.47.26.31.42.74.46,1.28.05.54,0,1.14-.18,1.8-.23.85-.6,1.62-1.12,2.3-.52.68-1.09,1.21-1.72,1.59-.62.37-1.2.56-1.74.56-.51,0-.9-.18-1.17-.53-.26-.35-.37-.83-.32-1.46l.38.51-1.17,4.35h-1.58l2.24-8.34ZM144.48,186.28c.53,0,1.02-.24,1.47-.74.46-.5.8-1.15,1.02-1.95.14-.55.21-1.11.21-1.67s-.07-1.02-.21-1.38c-.13-.36-.32-.54-.57-.54-.27,0-.61.21-1.02.64-.41.42-.82.95-1.24,1.59-.41.64-.75,1.26-1.02,1.86-.06.35-.05.69.03,1.03.09.33.25.61.47.83.23.21.52.31.87.31ZM150.99,181.34c.06-.22.15-.47.26-.74.12-.27.23-.49.33-.66l.76.33c-1.24.35-2.26.77-3.06,1.26l-.17-.27,3.19-2.3c.14-.1.28-.15.41-.15.15,0,.26.06.33.18.08.12.1.28.05.47l-.74,2.81c-.14.5-.4,1.21-.78,2.11l-.09.06c.67-1.26,1.25-2.26,1.72-3.01.48-.76.99-1.38,1.51-1.88.54-.49,1.07-.71,1.59-.67l-.14,1.11c-.03.21-.1.37-.22.48s-.3.21-.54.29c-.64.18-1.28.61-1.9,1.29-.62.67-1.24,1.59-1.85,2.76l-.48,1.8h-1.6l1.41-5.26ZM158.06,186.8c-.59,0-1.08-.16-1.47-.48-.39-.33-.65-.78-.78-1.35-.12-.58-.08-1.22.1-1.92.2-.73.54-1.42,1.02-2.07.49-.65,1.06-1.17,1.72-1.56.67-.4,1.36-.6,2.07-.6.61,0,1.11.15,1.49.44.38.28.5.68.35,1.21-.12.42-.38.79-.76,1.11-.39.31-.87.59-1.44.84-.56.24-1.34.53-2.34.88l-.96.33.11-.45.97-.35c.81-.28,1.47-.6,1.97-.96.5-.37.81-.79.93-1.28.1-.35.07-.65-.08-.92s-.42-.39-.79-.39-.75.14-1.1.43c-.34.29-.63.65-.87,1.08-.24.42-.42.85-.54,1.29-.17.57-.25,1.14-.23,1.71.02.56.15,1.03.39,1.4.24.36.59.54,1.06.54.34,0,.74-.11,1.19-.33.45-.23.92-.56,1.41-.99l.17.27c-.55.65-1.13,1.17-1.74,1.54-.61.37-1.23.56-1.85.56ZM168.23,186.8c-.16,0-.29-.07-.38-.19-.09-.13-.11-.29-.06-.5l1.35-4.56c.18-.57.25-.97.19-1.21-.04-.25-.14-.38-.3-.38-.25,0-.69.37-1.32,1.11-.63.73-1.46,1.97-2.49,3.71l-.5,1.83h-1.61l1.41-5.26c.06-.22.14-.47.25-.74.12-.27.23-.49.33-.66l.76.33c-1.24.35-2.26.77-3.06,1.26l-.17-.27,3.2-2.3c.14-.1.28-.15.4-.15.15,0,.26.06.33.18.08.12.1.28.04.47l-.74,2.78c-.14.53-.36,1.15-.66,1.88h-.09c.96-1.57,1.86-2.83,2.7-3.81.84-.99,1.59-1.49,2.26-1.49.4,0,.67.22.81.66.15.44.09,1.14-.18,2.08l-.81,2.76c-.07.23-.17.47-.29.72-.12.25-.24.48-.36.69l-.78-.34c1.24-.35,2.26-.77,3.07-1.26l.17.27-3.17,2.28c-.11.08-.23.12-.36.12ZM173.61,186.8c-.39,0-.71-.15-.97-.46-.25-.31-.4-.74-.46-1.28-.05-.54.01-1.14.19-1.8.23-.85.6-1.61,1.11-2.29.52-.68,1.09-1.21,1.72-1.57.63-.38,1.21-.57,1.75-.57.51,0,.9.18,1.17.53.27.35.38.83.32,1.46l-.36-.51.9-3.4,1.05.38-2.76.06.04-.28c.95-.18,1.81-.5,2.57-.96.12-.08.24-.12.36-.12.15,0,.26.06.34.18.09.12.11.27.05.45l-2.06,7.71c-.07.26-.16.52-.27.78-.1.25-.21.47-.33.66l-.77-.34c1.24-.35,2.26-.77,3.06-1.26l.17.27-3.15,2.28c-.12.08-.24.12-.36.12-.16,0-.29-.07-.38-.19-.09-.13-.11-.29-.06-.5l.52-1.86c.11-.36.22-.71.33-1.05.12-.35.23-.63.33-.84l.18-.18c-.52,1.05-1.04,1.93-1.57,2.62-.53.69-1.02,1.19-1.46,1.51-.44.32-.85.48-1.22.48ZM174.54,185.62c.27,0,.61-.21,1.02-.63.41-.43.82-.96,1.23-1.6.42-.64.76-1.26,1.04-1.86.05-.35.03-.69-.04-1.02-.08-.34-.24-.61-.47-.82-.22-.22-.5-.33-.84-.33-.54,0-1.04.25-1.5.75-.45.49-.79,1.14-1.01,1.94-.14.55-.21,1.1-.21,1.66s.07,1.02.21,1.38.33.54.57.54ZM183.65,186.8c-.6,0-1.18-.12-1.74-.36-.56-.25-1.04-.56-1.43-.93l.15-1.1c.02-.15.07-.26.17-.33.09-.08.19-.11.31-.09.13.01.25.07.35.18.5.55,1.06.99,1.67,1.32s1.14.5,1.59.5c.24,0,.45-.05.63-.15.19-.11.31-.25.36-.42.04-.17,0-.36-.12-.56-.11-.2-.31-.42-.6-.66-.28-.25-.67-.54-1.15-.89-.78-.56-1.32-1.06-1.62-1.5-.3-.45-.38-.93-.24-1.45.13-.53.41-.92.84-1.17.44-.25.98-.38,1.62-.38.43,0,.85.06,1.26.17.42.11.86.27,1.33.48l-.14,1.05c-.04.23-.14.38-.32.43-.17.05-.33-.01-.49-.18-.41-.43-.84-.79-1.29-1.07-.45-.28-.84-.42-1.17-.42-.21,0-.39.05-.54.15-.15.09-.24.21-.27.35-.05.18-.01.38.11.58s.31.43.57.67c.27.24.6.51,1,.81.58.41,1.01.77,1.29,1.08.29.31.48.62.57.93.1.3.11.64.01,1.02-.16.6-.48,1.07-.96,1.41-.47.34-1.06.51-1.75.51ZM192.4,181.34c.06-.22.14-.47.25-.74.12-.27.23-.49.33-.66l.77.33c-1.24.35-2.26.77-3.06,1.26l-.17-.27,3.19-2.3c.14-.1.28-.15.41-.15.15,0,.26.06.33.18.08.12.1.28.05.47l-.51,1.9c-.08.31-.19.65-.33,1-.13.35-.25.65-.38.89l-.16.18c.52-1.05,1.04-1.92,1.57-2.61.53-.7,1.01-1.21,1.46-1.53.45-.32.85-.48,1.21-.48.39,0,.71.16.96.47.26.31.41.74.46,1.28s0,1.14-.18,1.8c-.23.85-.6,1.62-1.12,2.3-.52.68-1.09,1.21-1.72,1.59-.62.37-1.2.56-1.74.56-.51,0-.9-.18-1.17-.53-.26-.35-.36-.83-.31-1.46l.37.51-1.17,4.35h-1.57l2.24-8.34ZM194.52,186.28c.53,0,1.02-.24,1.47-.74.46-.5.8-1.15,1.02-1.95.14-.55.21-1.11.21-1.67s-.07-1.02-.21-1.38c-.13-.36-.32-.54-.57-.54-.27,0-.61.21-1.02.64-.41.42-.82.95-1.24,1.59-.41.64-.75,1.26-1.02,1.86-.06.35-.05.69.03,1.03.09.33.24.61.46.83.23.21.52.31.87.31ZM203.43,184.87l1.12-4.15c.14-.52.18-.91.13-1.16-.04-.25-.18-.38-.43-.38-.27,0-.64.15-1.11.44-.46.29-1.02.74-1.69,1.33-.14.13-.28.19-.42.18-.13-.01-.23-.08-.3-.19-.06-.12-.07-.26-.01-.4l.25-.94c.53-.24,1.06-.43,1.58-.56.52-.14.99-.21,1.41-.21.88,0,1.49.25,1.83.75.34.49.36,1.27.06,2.33l-.76,2.75-.16,1.96h-1.62l.13-1.74ZM200.26,186.77c-.42,0-.76-.08-1.01-.25-.25-.18-.41-.42-.48-.71-.08-.3-.07-.62.03-.97.09-.34.26-.65.52-.93.26-.28.6-.54,1.04-.78.43-.25.98-.52,1.65-.81l.56-.21,2.17-.87-.09.42-1.82.81c-.66.29-1.19.6-1.6.93s-.67.7-.78,1.11c-.08.31-.03.56.15.76.18.2.47.3.87.3.35,0,.72-.1,1.11-.3.39-.2.72-.46,1-.76v.43c-.45.55-.97,1-1.53,1.33-.56.33-1.16.5-1.8.5ZM209.62,186.8c-.6,0-1.18-.12-1.74-.36-.56-.25-1.04-.56-1.43-.93l.15-1.1c.02-.15.08-.26.17-.33.09-.08.19-.11.32-.09.13.01.24.07.35.18.5.55,1.05.99,1.66,1.32s1.14.5,1.59.5c.24,0,.45-.05.63-.15.19-.11.31-.25.36-.42.04-.17,0-.36-.12-.56-.11-.2-.31-.42-.6-.66-.28-.25-.66-.54-1.15-.89-.78-.56-1.32-1.06-1.62-1.5-.3-.45-.38-.93-.24-1.45.13-.53.41-.92.84-1.17.44-.25.98-.38,1.62-.38.43,0,.85.06,1.26.17.42.11.86.27,1.33.48l-.13,1.05c-.04.23-.15.38-.32.43-.17.05-.33-.01-.49-.18-.41-.43-.84-.79-1.29-1.07-.45-.28-.84-.42-1.17-.42-.21,0-.39.05-.54.15-.15.09-.24.21-.27.35-.05.18-.01.38.1.58.12.21.31.43.57.67.27.24.6.51,1.01.81.58.41,1.01.77,1.29,1.08.29.31.48.62.57.93.1.3.1.64.01,1.02-.16.6-.48,1.07-.96,1.41-.47.34-1.05.51-1.76.51ZM66.82,204.8c-.34,0-.61-.08-.81-.23-.2-.16-.32-.41-.36-.75s.01-.79.17-1.37l2.06-7.75,1.05.55-2.76.06.05-.29c.96-.18,1.82-.5,2.57-.96.12-.08.24-.12.34-.12.16,0,.28.06.36.18s.09.27.05.45l-2.3,8.62c-.11.36-.18.62-.21.79-.02.16-.02.26,0,.32.03.05.08.07.13.07.13,0,.35-.17.64-.51.3-.35.66-.84,1.08-1.47.09-.15.2-.24.33-.26.13-.02.24.02.33.12.09.1.12.24.11.42l-.21,1.17c-.39.27-.83.49-1.32.68-.48.17-.91.26-1.29.26ZM72.84,204.8c-.59,0-1.08-.16-1.47-.48-.39-.33-.65-.78-.78-1.35-.12-.58-.09-1.22.11-1.92.2-.73.54-1.42,1.02-2.07.49-.65,1.07-1.17,1.72-1.56.67-.4,1.36-.6,2.07-.6.61,0,1.11.15,1.48.43.38.28.5.69.35,1.22-.12.42-.38.79-.77,1.11-.39.31-.87.59-1.44.84-.56.24-1.34.54-2.34.88l-.96.33.11-.45.97-.35c.81-.28,1.47-.6,1.97-.96.5-.37.81-.79.93-1.27.1-.35.07-.65-.07-.91-.15-.26-.41-.39-.8-.39s-.76.14-1.1.43c-.34.29-.63.65-.87,1.08-.24.42-.42.85-.54,1.29-.17.57-.24,1.14-.22,1.71.02.56.15,1.02.39,1.39.24.36.59.54,1.07.54.34,0,.73-.11,1.18-.33.45-.23.92-.56,1.41-.99l.16.27c-.55.65-1.13,1.16-1.74,1.54-.61.37-1.22.56-1.84.56ZM82.24,204.8c-.38,0-.64-.2-.76-.6-.13-.4-.07-1.06.18-1.96l.77-2.9c.06-.22.14-.46.25-.74.12-.27.23-.49.33-.66l.76.33c-1.24.35-2.26.77-3.06,1.26l-.16-.27,3.2-2.29c.14-.1.27-.15.4-.15.15,0,.26.06.33.18.08.12.09.27.04.46l-1.24,4.79c-.16.6-.22,1.02-.18,1.27.04.24.14.36.3.36.37,0,.82-.29,1.35-.85.53-.57,1.01-1.33,1.43-2.28.43-.95.69-1.96.78-3.01.01-.24.09-.42.23-.54.15-.13.33-.19.54-.19l1.3.03c-.36,1.21-.95,2.42-1.77,3.63-.81,1.21-1.68,2.21-2.61,2.99-.93.77-1.73,1.16-2.4,1.16ZM90.88,204.8c-.65,0-1.18-.17-1.59-.5-.4-.34-.66-.8-.78-1.38-.11-.59-.07-1.25.12-1.97s.52-1.4.99-2.04c.48-.64,1.03-1.15,1.66-1.53.64-.38,1.3-.57,1.97-.57s1.15.18,1.53.53c.39.35.64.82.74,1.42.11.59.07,1.24-.12,1.95-.2.75-.53,1.44-.99,2.07-.46.62-1,1.11-1.62,1.47-.61.36-1.24.54-1.9.54ZM91.93,204.1c.31,0,.6-.1.87-.3.28-.21.51-.48.7-.79.2-.33.35-.68.45-1.04.16-.6.19-1.25.09-1.95-.1-.7-.32-1.29-.66-1.76s-.76-.71-1.26-.71c-.3,0-.59.1-.87.32-.28.2-.52.46-.72.79-.19.33-.33.68-.43,1.04-.15.6-.17,1.25-.07,1.95.1.69.31,1.27.64,1.74.34.47.76.71,1.26.71ZM98.52,204.8c-.69,0-1.24-.19-1.66-.56s-.68-.86-.78-1.47c-.1-.62-.03-1.29.21-2.02.25-.74.63-1.4,1.14-2,.51-.6,1.09-1.07,1.74-1.41.65-.35,1.3-.53,1.94-.53.38,0,.74.06,1.09.18.36.12.64.28.83.49l-.18,1.34c-.03.15-.1.26-.21.35-.1.07-.22.09-.35.06-.13-.03-.22-.12-.28-.26-.29-.52-.59-.9-.91-1.12-.32-.23-.65-.35-.98-.35s-.66.1-.96.3c-.3.19-.56.45-.8.78-.22.32-.39.68-.52,1.08-.19.61-.26,1.22-.19,1.85.06.62.25,1.13.57,1.54.33.4.77.6,1.33.6.43,0,.87-.11,1.32-.33.45-.23.9-.54,1.35-.92l.18.27c-.6.66-1.22,1.18-1.88,1.56-.65.37-1.31.56-1.99.56ZM107.44,202.87l1.12-4.15c.14-.52.19-.9.14-1.15-.04-.25-.19-.38-.44-.38-.27,0-.64.15-1.11.43-.46.29-1.03.74-1.69,1.34-.14.13-.28.19-.42.18-.13,0-.23-.07-.3-.19-.06-.12-.06-.26-.01-.4l.26-.95c.53-.24,1.06-.43,1.58-.55.52-.14.99-.21,1.41-.21.88,0,1.49.25,1.83.75.34.49.36,1.26.06,2.32l-.76,2.75-.17,1.96h-1.62l.13-1.74ZM104.27,204.77c-.42,0-.75-.08-1-.25-.25-.18-.41-.42-.48-.71-.08-.3-.07-.62.03-.98.09-.34.26-.65.52-.93.26-.28.61-.54,1.03-.78.43-.25.98-.52,1.65-.81l.56-.21,2.17-.87-.09.42-1.81.81c-.66.29-1.19.6-1.6.93-.41.33-.67.7-.78,1.11-.08.31-.03.57.15.76.18.2.47.3.87.3.35,0,.72-.1,1.11-.3.39-.2.73-.45,1.01-.76v.44c-.46.55-.97.99-1.53,1.33-.56.33-1.16.49-1.8.49ZM113.69,204.8c-.52,0-.91-.18-1.18-.53-.26-.35-.36-.83-.3-1.46l.3-.1-.71,1.89h-1.4l.92-2.46,1.94-7.36,1.03.55-2.78.04.05-.28c.96-.17,1.81-.49,2.56-.96.13-.08.25-.12.36-.12.15,0,.26.07.34.19.08.12.1.27.06.45l-1.23,4.71c-.08.31-.19.64-.33.99-.13.35-.26.65-.39.9l-.16.18c.53-1.05,1.05-1.92,1.57-2.61.53-.7,1.01-1.21,1.46-1.53.45-.32.85-.48,1.22-.48.39,0,.71.15.96.46.26.31.42.74.47,1.28.06.54,0,1.14-.18,1.8-.23.85-.6,1.61-1.12,2.29-.51.68-1.08,1.21-1.71,1.59-.62.37-1.2.56-1.74.56ZM114.17,204.28c.53,0,1.03-.24,1.49-.74.46-.5.8-1.15,1.01-1.95.15-.55.22-1.1.22-1.66s-.07-1.02-.21-1.38-.33-.54-.58-.54-.6.22-1.02.65c-.41.42-.82.95-1.23,1.59s-.75,1.26-1.02,1.86c-.06.35-.05.7.03,1.04.08.33.23.6.45.82.23.21.52.32.87.32ZM120.56,204.8c-.4,0-.67-.21-.81-.63-.14-.43-.08-1.14.18-2.12l.72-2.71c.06-.22.15-.46.26-.74.12-.27.23-.49.33-.66l.77.33c-1.24.35-2.26.77-3.06,1.26l-.17-.27,3.19-2.29c.14-.1.28-.15.41-.15.15,0,.26.06.33.18.08.12.1.27.05.46l-1.23,4.6c-.15.58-.21.99-.18,1.23.04.24.14.36.3.36.25,0,.7-.39,1.36-1.18.66-.79,1.55-2.12,2.66-3.99l.52-1.47h1.35l-1.41,5.28c-.07.26-.16.52-.27.78-.1.25-.21.47-.32.66l-.76-.35c1.24-.35,2.26-.77,3.06-1.26l.17.27-3.17,2.28c-.11.08-.23.12-.35.12-.16,0-.28-.07-.38-.2s-.11-.29-.08-.49l.74-2.73c.14-.53.36-1.15.66-1.88h.09c-.96,1.57-1.86,2.84-2.7,3.83-.84.98-1.59,1.47-2.26,1.47ZM129.74,204.8c-.34,0-.61-.08-.81-.23-.2-.16-.32-.41-.36-.75-.04-.34.01-.79.16-1.37l2.06-7.75,1.05.55-2.76.06.04-.29c.96-.18,1.82-.5,2.57-.96.12-.08.24-.12.35-.12.16,0,.28.06.36.18.08.12.1.27.04.45l-2.29,8.62c-.11.36-.18.62-.21.79-.02.16-.02.26,0,.32.03.05.07.07.13.07.13,0,.35-.17.65-.51.3-.35.66-.84,1.08-1.47.09-.15.2-.24.33-.26.13-.02.24.02.33.12.09.1.12.24.11.42l-.21,1.17c-.39.27-.83.49-1.32.68-.48.17-.91.26-1.29.26ZM137.54,202.87l1.12-4.15c.14-.52.19-.9.14-1.15-.04-.25-.18-.38-.43-.38-.27,0-.64.15-1.11.43-.46.29-1.03.74-1.69,1.34-.14.13-.28.19-.42.18-.13,0-.23-.07-.3-.19-.06-.12-.07-.26-.01-.4l.25-.95c.53-.24,1.06-.43,1.58-.55.52-.14.99-.21,1.41-.21.88,0,1.49.25,1.83.75.34.49.36,1.26.06,2.32l-.76,2.75-.17,1.96h-1.62l.13-1.74ZM134.37,204.77c-.42,0-.76-.08-1.01-.25-.25-.18-.41-.42-.48-.71-.08-.3-.07-.62.03-.98.09-.34.26-.65.53-.93.26-.28.6-.54,1.03-.78.43-.25.98-.52,1.65-.81l.56-.21,2.17-.87-.09.42-1.82.81c-.66.29-1.19.6-1.6.93-.41.33-.67.7-.78,1.11-.08.31-.03.57.15.76.18.2.47.3.87.3.35,0,.72-.1,1.11-.3.39-.2.72-.45,1-.76v.44c-.45.55-.97.99-1.53,1.33-.56.33-1.16.49-1.8.49ZM141.68,204.8c-.16,0-.28-.07-.38-.2-.09-.13-.1-.29-.04-.49l1.41-4.79c.06-.2.15-.43.27-.71.13-.27.25-.49.38-.68l.76.33c-1.24.35-2.26.77-3.06,1.26l-.17-.27,3.19-2.29c.14-.1.28-.15.4-.15.15,0,.26.06.33.18.08.12.09.27.03.46l-1.43,4.86c-.07.23-.17.47-.28.72-.11.25-.23.48-.36.69l-.76-.35c1.23-.35,2.24-.77,3.04-1.26l.18.27-3.15,2.28c-.13.08-.25.12-.38.12ZM144.59,195.82c-.3,0-.51-.1-.65-.3-.13-.21-.15-.43-.07-.68.05-.21.17-.38.36-.49.2-.13.42-.2.64-.2.3,0,.51.1.63.32.13.2.16.43.09.68-.07.21-.2.38-.39.49-.18.12-.39.18-.61.18ZM147.25,199.34c.06-.22.15-.46.26-.74.12-.27.23-.49.33-.66l.76.33c-1.24.35-2.26.77-3.06,1.26l-.17-.27,3.19-2.29c.14-.1.28-.15.4-.15.15,0,.26.06.33.18.08.12.1.27.04.46l-.74,2.8c-.14.5-.4,1.21-.78,2.12l-.09.06c.67-1.26,1.24-2.26,1.72-3.01.48-.76.99-1.38,1.51-1.88.54-.49,1.07-.71,1.59-.68l-.14,1.11c-.03.21-.11.37-.22.48-.12.11-.3.21-.54.28-.64.18-1.28.61-1.9,1.29-.62.67-1.24,1.59-1.85,2.76l-.48,1.8h-1.6l1.41-5.26ZM154.33,204.8c-.59,0-1.08-.16-1.47-.48-.39-.33-.65-.78-.78-1.35-.12-.58-.08-1.22.11-1.92.2-.73.54-1.42,1.02-2.07.49-.65,1.07-1.17,1.73-1.56.67-.4,1.36-.6,2.07-.6.61,0,1.1.15,1.49.43.38.28.49.69.34,1.22-.12.42-.38.79-.76,1.11-.39.31-.87.59-1.44.84-.56.24-1.34.54-2.34.88l-.96.33.11-.45.97-.35c.81-.28,1.46-.6,1.96-.96.5-.37.81-.79.93-1.27.1-.35.08-.65-.07-.91-.15-.26-.42-.39-.79-.39s-.76.14-1.1.43c-.34.29-.63.65-.87,1.08-.24.42-.42.85-.54,1.29-.17.57-.24,1.14-.22,1.71.02.56.15,1.02.39,1.39.24.36.6.54,1.07.54.34,0,.74-.11,1.18-.33.45-.23.92-.56,1.41-.99l.17.27c-.55.65-1.13,1.16-1.74,1.54-.61.37-1.22.56-1.85.56ZM159.95,206.72c.02-.26.12-.44.32-.53.18-.08.38-.05.58.09.57.33.99.47,1.25.42.26-.05.44-.3.56-.74.12-.44.24-1.26.36-2.46l.07-1.02.84-3.15c.07-.22.16-.46.27-.74s.21-.49.32-.66l.76.33c-1.23.35-2.25.77-3.05,1.26l-.18-.27,3.19-2.29c.14-.1.27-.15.4-.15.16,0,.28.06.35.18.08.12.09.27.03.45l-1.43,5.37c-.34,1.27-.75,2.29-1.25,3.06-.49.78-1.02,1.33-1.6,1.64-.59.31-1.22.41-1.9.32l.1-1.11ZM165.75,195.82c-.3,0-.51-.1-.64-.3-.13-.21-.15-.43-.08-.68.05-.21.17-.38.36-.49.2-.13.42-.2.65-.2.3,0,.51.1.63.32.13.2.16.43.09.68-.07.21-.2.38-.39.49-.18.12-.39.18-.62.18ZM167.91,204.8c-.4,0-.67-.21-.81-.63-.14-.43-.08-1.14.18-2.12l.72-2.71c.06-.22.14-.46.25-.74.12-.27.23-.49.33-.66l.76.33c-1.24.35-2.26.77-3.06,1.26l-.17-.27,3.19-2.29c.14-.1.28-.15.4-.15.15,0,.26.06.33.18.08.12.1.27.04.46l-1.23,4.6c-.15.58-.21.99-.18,1.23.04.24.14.36.3.36.25,0,.71-.39,1.36-1.18.66-.79,1.55-2.12,2.65-3.99l.53-1.47h1.35l-1.41,5.28c-.07.26-.16.52-.27.78-.1.25-.2.47-.31.66l-.76-.35c1.24-.35,2.26-.77,3.06-1.26l.17.27-3.17,2.28c-.11.08-.22.12-.35.12-.16,0-.28-.07-.38-.2-.09-.13-.11-.29-.07-.49l.74-2.73c.14-.53.36-1.15.66-1.88h.09c-.96,1.57-1.86,2.84-2.7,3.83-.84.98-1.6,1.47-2.26,1.47ZM177.31,204.8c-.39,0-.71-.16-.97-.47-.25-.31-.4-.74-.47-1.27-.05-.54.01-1.14.19-1.8.23-.85.6-1.62,1.11-2.29.52-.68,1.1-1.21,1.73-1.57.63-.38,1.21-.57,1.75-.57.51,0,.9.18,1.17.53.27.35.38.83.32,1.46l-.36-.51.9-3.4,1.05.38-2.76.06.04-.29c.95-.18,1.81-.5,2.56-.96.12-.08.24-.12.36-.12.15,0,.26.06.35.18.09.12.11.27.04.45l-2.05,7.71c-.07.26-.16.52-.27.78-.1.25-.21.47-.33.66l-.76-.35c1.24-.35,2.26-.77,3.06-1.26l.16.27-3.15,2.28c-.12.08-.24.12-.36.12-.16,0-.29-.07-.38-.2-.09-.13-.11-.29-.06-.49l.53-1.86c.11-.36.22-.71.33-1.05.12-.35.23-.63.33-.84l.18-.18c-.52,1.05-1.05,1.93-1.58,2.62-.53.69-1.01,1.2-1.45,1.51-.44.32-.85.48-1.22.48ZM178.24,203.62c.27,0,.61-.21,1.02-.63.41-.43.82-.97,1.23-1.61.42-.64.76-1.26,1.04-1.86.05-.35.03-.69-.05-1.02-.08-.34-.24-.62-.46-.82-.22-.22-.5-.33-.84-.33-.54,0-1.04.25-1.5.75-.45.49-.78,1.13-1,1.93-.14.55-.21,1.1-.21,1.66s.07,1.02.21,1.38.33.54.57.54ZM185.15,204.8c-.16,0-.28-.07-.38-.2-.09-.13-.1-.29-.04-.49l1.41-4.79c.06-.2.15-.43.27-.71.13-.27.25-.49.38-.68l.76.33c-1.24.35-2.26.77-3.06,1.26l-.17-.27,3.19-2.29c.14-.1.28-.15.4-.15.15,0,.26.06.33.18.08.12.09.27.03.46l-1.43,4.86c-.07.23-.17.47-.28.72-.11.25-.23.48-.36.69l-.76-.35c1.23-.35,2.24-.77,3.04-1.26l.18.27-3.15,2.28c-.13.08-.25.12-.38.12ZM188.06,195.82c-.3,0-.51-.1-.65-.3-.13-.21-.15-.43-.07-.68.05-.21.17-.38.36-.49.2-.13.42-.2.64-.2.3,0,.51.1.63.32.13.2.16.43.09.68-.07.21-.2.38-.39.49-.18.12-.39.18-.61.18ZM191.63,204.8c-.69,0-1.24-.19-1.67-.56-.42-.37-.68-.86-.78-1.47-.1-.62-.03-1.29.21-2.02.25-.74.63-1.4,1.14-2,.51-.6,1.09-1.07,1.74-1.41.65-.35,1.29-.53,1.93-.53.38,0,.74.06,1.1.18.36.12.63.28.82.49l-.18,1.34c-.03.15-.1.26-.21.35-.1.07-.21.09-.35.06-.13-.03-.22-.12-.29-.26-.29-.52-.59-.9-.91-1.12s-.65-.35-.98-.35-.66.1-.96.3c-.3.19-.57.45-.8.78-.22.32-.39.68-.52,1.08-.19.61-.26,1.22-.19,1.85.06.62.25,1.13.57,1.54.33.4.77.6,1.33.6.43,0,.87-.11,1.32-.33.45-.23.9-.54,1.35-.92l.18.27c-.6.66-1.22,1.18-1.88,1.56-.65.37-1.31.56-1.99.56ZM197.09,204.8c-.16,0-.29-.07-.38-.2s-.1-.29-.04-.49l1.41-4.79c.06-.2.15-.43.27-.71.13-.27.26-.49.38-.68l.76.33c-1.24.35-2.26.77-3.06,1.26l-.16-.27,3.19-2.29c.14-.1.28-.15.4-.15.15,0,.26.06.33.18.08.12.09.27.03.46l-1.43,4.86c-.07.23-.16.47-.28.72-.11.25-.23.48-.36.69l-.76-.35c1.23-.35,2.24-.77,3.04-1.26l.18.27-3.15,2.28c-.13.08-.26.12-.38.12ZM200,195.82c-.3,0-.51-.1-.65-.3-.13-.21-.15-.43-.07-.68.05-.21.17-.38.36-.49.2-.13.41-.2.64-.2.3,0,.51.1.63.32.13.2.16.43.09.68-.07.21-.2.38-.39.49-.18.12-.38.18-.61.18ZM205.2,202.87l1.12-4.15c.14-.52.18-.9.14-1.15-.04-.25-.19-.38-.44-.38-.27,0-.64.15-1.11.43-.46.29-1.03.74-1.7,1.34-.14.13-.28.19-.42.18-.13,0-.23-.07-.3-.19-.06-.12-.07-.26-.01-.4l.26-.95c.53-.24,1.05-.43,1.57-.55.52-.14.99-.21,1.41-.21.88,0,1.49.25,1.83.75.34.49.36,1.26.06,2.32l-.76,2.75-.17,1.96h-1.62l.13-1.74ZM202.04,204.77c-.42,0-.76-.08-1.01-.25-.25-.18-.41-.42-.48-.71-.08-.3-.07-.62.03-.98.09-.34.26-.65.52-.93.26-.28.61-.54,1.04-.78.43-.25.98-.52,1.65-.81l.55-.21,2.18-.87-.09.42-1.82.81c-.66.29-1.2.6-1.61.93-.41.33-.67.7-.78,1.11-.08.31-.03.57.15.76.18.2.47.3.87.3.35,0,.72-.1,1.11-.3.39-.2.73-.45,1.01-.76v.44c-.46.55-.97.99-1.53,1.33-.56.33-1.16.49-1.8.49ZM209.34,204.8c-.16,0-.29-.07-.38-.2s-.1-.29-.04-.49l1.41-4.79c.06-.2.15-.43.27-.71.13-.27.25-.49.38-.68l.76.33c-1.24.35-2.26.77-3.06,1.26l-.16-.27,3.2-2.29c.14-.1.27-.15.4-.15.15,0,.26.06.33.18.08.12.09.27.03.46l-1.43,4.86c-.07.23-.17.47-.29.72-.11.25-.23.48-.36.69l-.76-.35c1.23-.35,2.24-.77,3.04-1.26l.18.27-3.15,2.28c-.13.08-.25.12-.38.12ZM212.25,195.82c-.3,0-.51-.1-.65-.3-.13-.21-.15-.43-.07-.68.05-.21.17-.38.36-.49.2-.13.41-.2.65-.2.3,0,.51.1.63.32.13.2.16.43.09.68-.07.21-.2.38-.39.49-.18.12-.39.18-.62.18ZM214.92,199.34c.06-.22.15-.46.26-.74.12-.27.23-.49.33-.66l.76.33c-1.24.35-2.26.77-3.06,1.26l-.16-.27,3.19-2.29c.14-.1.28-.15.41-.15.15,0,.26.06.33.18.08.12.1.27.05.46l-.74,2.8c-.14.5-.4,1.21-.78,2.12l-.09.06c.67-1.26,1.25-2.26,1.73-3.01.48-.76.99-1.38,1.51-1.88.54-.49,1.07-.71,1.59-.68l-.13,1.11c-.03.21-.1.37-.23.48-.12.11-.3.21-.54.28-.64.18-1.28.61-1.9,1.29-.62.67-1.24,1.59-1.85,2.76l-.48,1.8h-1.6l1.41-5.26ZM221.99,204.8c-.59,0-1.08-.16-1.47-.48-.39-.33-.65-.78-.78-1.35-.12-.58-.08-1.22.1-1.92.2-.73.54-1.42,1.02-2.07.49-.65,1.07-1.17,1.73-1.56.67-.4,1.36-.6,2.07-.6.61,0,1.11.15,1.49.43.38.28.5.69.35,1.22-.12.42-.38.79-.76,1.11-.39.31-.87.59-1.44.84-.56.24-1.34.54-2.34.88l-.96.33.11-.45.97-.35c.81-.28,1.47-.6,1.97-.96.5-.37.81-.79.93-1.27.1-.35.07-.65-.07-.91-.15-.26-.42-.39-.79-.39s-.76.14-1.1.43c-.34.29-.63.65-.87,1.08-.24.42-.42.85-.54,1.29-.17.57-.24,1.14-.23,1.71.02.56.15,1.02.39,1.39.24.36.59.54,1.06.54.34,0,.74-.11,1.19-.33.45-.23.92-.56,1.41-.99l.17.27c-.55.65-1.13,1.16-1.74,1.54-.61.37-1.23.56-1.85.56Z"/>
  <path class="cls-2" d="M247.87,181.89c-4.15,0-8.87-.65-12.97.03-1.46.24-.57,13-.57,14.45,0,5.64,1.42,14.34-2.71,18.9-3.66,4.04-10.71,4.06-15.68,4.25-6.73.25-13.42,0-20.1-.75-4.31-.49-8.64-.81-12.97-.81"/>
  <path class="cls-1" d="M270.44,272.8c-.46,0-.93-.08-1.41-.24-.47-.17-.91-.38-1.32-.63l.17-1.65c.02-.18.1-.32.22-.4.13-.1.27-.13.42-.09.16.04.28.15.36.32.4.8.76,1.38,1.1,1.74s.65.54.96.54c.27,0,.5-.14.71-.43.2-.29.38-.74.55-1.36l2.26-8.48h1.71l-1.92,7.21c-.31,1.21-.79,2.1-1.44,2.65-.65.55-1.44.83-2.37.83ZM278,272.8c-.59,0-1.08-.16-1.47-.48-.39-.33-.65-.78-.78-1.35-.12-.58-.08-1.22.11-1.92.2-.73.54-1.42,1.02-2.07.49-.65,1.07-1.17,1.73-1.56.67-.4,1.36-.6,2.07-.6.61,0,1.1.15,1.49.43.38.28.49.69.34,1.22-.12.42-.38.79-.76,1.11-.39.31-.87.59-1.44.84-.56.24-1.34.54-2.34.88l-.96.33.1-.45.98-.35c.81-.28,1.46-.6,1.96-.96.5-.37.81-.79.93-1.27.1-.35.08-.65-.07-.91-.15-.26-.41-.39-.79-.39s-.76.14-1.1.43c-.34.29-.63.65-.87,1.08-.24.42-.42.85-.54,1.29-.17.57-.24,1.14-.22,1.71.02.56.15,1.02.39,1.39.24.36.6.54,1.07.54.34,0,.74-.11,1.18-.33.45-.23.92-.56,1.41-.99l.16.27c-.55.65-1.13,1.16-1.74,1.54-.61.37-1.22.56-1.85.56ZM291.31,272.8c-.16,0-.29-.07-.38-.2s-.11-.29-.06-.49l1.35-4.56c.18-.57.25-.98.2-1.22-.04-.25-.14-.38-.3-.38-.25,0-.69.37-1.32,1.11-.63.73-1.46,1.96-2.49,3.71l-.5,1.83h-1.6l1.41-5.26c.06-.22.15-.46.26-.74.12-.27.23-.49.33-.66l.77.33c-1.24.35-2.26.77-3.06,1.26l-.16-.27,3.19-2.29c.14-.1.28-.15.41-.15.15,0,.26.06.33.18.08.12.1.27.05.46l-.74,2.77c-.14.53-.36,1.15-.66,1.88h-.09c.96-1.56,1.86-2.83,2.7-3.81.84-.99,1.6-1.49,2.26-1.49.4,0,.67.22.81.66.15.44.09,1.13-.18,2.09l-.81,2.76c-.07.23-.16.47-.28.72-.12.25-.24.48-.36.69l-.78-.35c1.24-.35,2.26-.77,3.07-1.26l.16.27-3.16,2.28c-.11.08-.23.12-.36.12ZM297.63,272.8c-.59,0-1.08-.16-1.47-.48-.39-.33-.65-.78-.78-1.35-.12-.58-.09-1.22.1-1.92.2-.73.54-1.42,1.02-2.07.49-.65,1.06-1.17,1.72-1.56.67-.4,1.36-.6,2.07-.6.61,0,1.1.15,1.49.43.38.28.49.69.35,1.22-.12.42-.38.79-.76,1.11-.39.31-.87.59-1.44.84-.56.24-1.34.54-2.34.88l-.96.33.1-.45.98-.35c.81-.28,1.46-.6,1.96-.96.5-.37.81-.79.93-1.27.1-.35.07-.65-.08-.91-.15-.26-.41-.39-.79-.39s-.75.14-1.1.43c-.34.29-.63.65-.87,1.08-.24.42-.42.85-.54,1.29-.17.57-.25,1.14-.23,1.71.02.56.15,1.02.39,1.39.24.36.6.54,1.07.54.34,0,.74-.11,1.18-.33.45-.23.92-.56,1.41-.99l.16.27c-.55.65-1.13,1.16-1.74,1.54-.61.37-1.23.56-1.85.56ZM308.05,272.8c-.69,0-1.24-.19-1.66-.56s-.68-.86-.78-1.47c-.1-.62-.03-1.29.21-2.02.25-.74.63-1.4,1.14-2,.51-.6,1.09-1.07,1.74-1.41.65-.35,1.29-.53,1.93-.53.38,0,.74.06,1.1.18.36.12.63.28.82.49l-.18,1.34c-.03.15-.1.26-.21.35-.1.07-.21.09-.35.06-.13-.03-.22-.12-.29-.26-.29-.52-.59-.9-.91-1.12-.32-.23-.65-.35-.98-.35s-.66.1-.96.3c-.3.19-.57.45-.79.78-.22.32-.4.68-.53,1.08-.19.61-.25,1.22-.19,1.85.06.62.25,1.13.57,1.54.33.4.78.6,1.34.6.43,0,.87-.11,1.32-.33.45-.23.9-.54,1.35-.92l.18.27c-.6.66-1.23,1.18-1.88,1.56-.65.37-1.32.56-2,.56ZM315.16,272.8c-.65,0-1.18-.17-1.59-.5-.4-.34-.66-.8-.78-1.38-.11-.59-.07-1.25.12-1.97.19-.72.52-1.4.99-2.04.48-.64,1.04-1.15,1.67-1.53.64-.38,1.29-.57,1.96-.57s1.15.18,1.53.53c.39.35.63.82.74,1.42.11.59.07,1.24-.12,1.95-.2.75-.53,1.44-.99,2.07-.46.62-1,1.11-1.62,1.47-.61.36-1.25.54-1.91.54ZM316.21,272.1c.31,0,.6-.1.87-.3.28-.21.51-.48.7-.79.2-.33.35-.68.45-1.04.16-.6.19-1.25.09-1.95-.1-.7-.32-1.29-.66-1.76s-.76-.71-1.26-.71c-.3,0-.59.1-.87.32-.28.2-.52.46-.72.79-.19.33-.34.68-.44,1.04-.15.6-.17,1.25-.07,1.95.1.69.32,1.27.65,1.74.34.47.76.71,1.26.71ZM329.75,272.8c-.16,0-.29-.07-.38-.2s-.11-.29-.04-.49l1.33-4.5c.17-.58.25-1,.24-1.26-.01-.27-.07-.4-.2-.4-.15,0-.38.15-.67.45s-.68.8-1.17,1.51c-.48.72-1.05,1.68-1.72,2.87l-.5,1.83h-1.59l1.34-4.99c.11-.41.18-.74.21-.98.03-.25.02-.43-.02-.52-.03-.11-.08-.17-.15-.17-.15,0-.38.15-.67.45s-.68.8-1.17,1.53c-.48.72-1.05,1.67-1.73,2.86l-.49,1.82h-1.6l1.41-5.26c.06-.22.15-.46.26-.74.12-.27.23-.49.33-.66l.76.33c-1.24.35-2.26.77-3.06,1.26l-.16-.27,3.19-2.29c.14-.1.27-.15.4-.15.15,0,.26.06.33.18.08.12.1.27.04.46l-.73,2.77c-.13.46-.33,1.04-.6,1.74h-.09c.89-1.54,1.72-2.79,2.49-3.74.78-.95,1.49-1.43,2.12-1.43.36,0,.6.21.73.65.14.42.08,1.12-.18,2.1l-.2.67c-.13.49-.33,1.07-.58,1.74h-.11c.89-1.54,1.72-2.79,2.49-3.74.78-.95,1.49-1.43,2.12-1.43.37,0,.62.21.76.65.14.43.07,1.13-.23,2.1l-.81,2.76c-.07.23-.16.47-.29.72-.12.25-.24.48-.36.69l-.77-.35c1.24-.35,2.26-.77,3.06-1.26l.16.27-3.16,2.28c-.11.08-.23.12-.36.12ZM335.35,267.34c.06-.22.15-.46.26-.74.12-.27.23-.49.33-.66l.76.33c-1.24.35-2.26.77-3.06,1.26l-.17-.27,3.2-2.29c.14-.1.27-.15.4-.15.15,0,.26.06.33.18.08.12.09.27.04.46l-.51,1.9c-.08.31-.19.65-.33,1.01-.13.35-.26.64-.38.88l-.17.18c.52-1.05,1.05-1.92,1.58-2.61.53-.7,1.01-1.21,1.45-1.53.45-.32.86-.48,1.21-.48.39,0,.71.15.96.46.26.31.41.74.46,1.28.05.54-.01,1.14-.18,1.8-.23.85-.61,1.61-1.12,2.29-.52.68-1.1,1.21-1.73,1.59-.62.37-1.2.56-1.74.56-.51,0-.9-.18-1.17-.53-.26-.35-.36-.83-.32-1.46l.38.51-1.17,4.35h-1.57l2.23-8.34ZM337.46,272.28c.53,0,1.02-.24,1.47-.74.46-.5.8-1.15,1.02-1.95.14-.55.21-1.1.21-1.66s-.07-1.02-.21-1.38c-.13-.36-.32-.54-.57-.54-.27,0-.61.22-1.02.65-.41.42-.83.95-1.24,1.59-.41.64-.75,1.26-1.02,1.86-.06.35-.05.7.03,1.04.09.33.24.6.46.82.23.21.52.32.87.32ZM343.98,267.34c.06-.22.14-.46.25-.74.12-.27.23-.49.33-.66l.76.33c-1.24.35-2.26.77-3.06,1.26l-.16-.27,3.19-2.29c.14-.1.28-.15.4-.15.15,0,.26.06.33.18.08.12.1.27.04.46l-.73,2.8c-.14.5-.4,1.21-.78,2.12l-.09.06c.67-1.26,1.24-2.26,1.73-3.01.48-.76.98-1.38,1.51-1.88.54-.49,1.07-.71,1.59-.68l-.14,1.11c-.03.21-.1.37-.22.48s-.3.21-.54.28c-.64.18-1.27.61-1.9,1.29-.62.67-1.24,1.59-1.85,2.76l-.48,1.8h-1.6l1.41-5.26ZM351.05,272.8c-.59,0-1.08-.16-1.47-.48-.39-.33-.65-.78-.78-1.35-.12-.58-.08-1.22.11-1.92.2-.73.54-1.42,1.02-2.07.49-.65,1.07-1.17,1.73-1.56.67-.4,1.36-.6,2.07-.6.61,0,1.1.15,1.48.43.38.28.49.69.35,1.22-.12.42-.38.79-.76,1.11-.39.31-.87.59-1.44.84-.56.24-1.34.54-2.34.88l-.96.33.11-.45.98-.35c.81-.28,1.46-.6,1.96-.96.5-.37.81-.79.93-1.27.1-.35.08-.65-.07-.91-.15-.26-.42-.39-.8-.39s-.76.14-1.1.43c-.34.29-.63.65-.87,1.08-.24.42-.42.85-.54,1.29-.17.57-.24,1.14-.23,1.71.02.56.15,1.02.39,1.39.24.36.6.54,1.07.54.34,0,.73-.11,1.18-.33.45-.23.92-.56,1.41-.99l.16.27c-.55.65-1.13,1.16-1.74,1.54-.61.37-1.23.56-1.85.56ZM361.22,272.8c-.16,0-.29-.07-.38-.2s-.11-.29-.06-.49l1.35-4.56c.18-.57.24-.98.19-1.22-.04-.25-.14-.38-.3-.38-.25,0-.69.37-1.32,1.11-.63.73-1.46,1.96-2.49,3.71l-.49,1.83h-1.61l1.41-5.26c.06-.22.14-.46.26-.74.12-.27.23-.49.33-.66l.77.33c-1.24.35-2.26.77-3.06,1.26l-.17-.27,3.2-2.29c.14-.1.27-.15.4-.15.15,0,.26.06.33.18.08.12.1.27.05.46l-.74,2.77c-.14.53-.36,1.15-.66,1.88h-.09c.96-1.56,1.86-2.83,2.7-3.81.84-.99,1.6-1.49,2.26-1.49.4,0,.67.22.81.66.15.44.09,1.13-.18,2.09l-.81,2.76c-.07.23-.17.47-.29.72s-.24.48-.36.69l-.78-.35c1.24-.35,2.26-.77,3.07-1.26l.17.27-3.17,2.28c-.11.08-.23.12-.36.12ZM366.6,272.8c-.39,0-.71-.16-.98-.47-.25-.31-.4-.74-.46-1.27-.05-.54.01-1.14.2-1.8.23-.85.6-1.62,1.11-2.29.52-.68,1.1-1.21,1.73-1.57.63-.38,1.21-.57,1.76-.57.51,0,.9.18,1.17.53.27.35.38.83.32,1.46l-.36-.51.9-3.4,1.05.38-2.76.06.04-.29c.95-.18,1.8-.5,2.57-.96.12-.08.24-.12.36-.12.15,0,.26.06.35.18.09.12.1.27.04.45l-2.05,7.71c-.07.26-.16.52-.27.78-.1.25-.21.47-.33.66l-.76-.35c1.24-.35,2.26-.77,3.06-1.26l.16.27-3.15,2.28c-.12.08-.24.12-.36.12-.16,0-.29-.07-.38-.2s-.11-.29-.06-.49l.52-1.86c.11-.36.22-.71.33-1.05.12-.35.23-.63.33-.84l.18-.18c-.52,1.05-1.05,1.93-1.58,2.62-.53.69-1.01,1.2-1.45,1.51-.44.32-.85.48-1.21.48ZM367.53,271.62c.27,0,.61-.21,1.02-.63.41-.43.82-.97,1.23-1.61.42-.64.77-1.26,1.04-1.86.05-.35.04-.69-.05-1.02-.08-.34-.23-.62-.46-.82-.22-.22-.5-.33-.84-.33-.54,0-1.04.25-1.5.75-.45.49-.79,1.13-1.01,1.93-.14.55-.21,1.1-.21,1.66s.07,1.02.21,1.38c.14.36.33.54.57.54ZM376.64,272.8c-.6,0-1.18-.12-1.74-.36-.56-.25-1.04-.56-1.42-.93l.15-1.1c.02-.15.08-.26.17-.33.09-.08.19-.11.32-.09.13,0,.24.07.35.18.5.55,1.05.99,1.66,1.32.61.33,1.14.49,1.59.49.24,0,.45-.05.63-.15.19-.11.31-.25.36-.42.04-.17,0-.35-.12-.56-.11-.2-.31-.42-.6-.66-.28-.25-.67-.55-1.15-.89-.78-.56-1.32-1.06-1.62-1.5-.3-.45-.38-.93-.24-1.46.13-.53.41-.92.84-1.17.44-.25.98-.38,1.62-.38.43,0,.85.06,1.26.17.42.11.86.27,1.33.48l-.13,1.05c-.04.23-.15.38-.32.43-.17.05-.33,0-.49-.18-.41-.43-.84-.78-1.29-1.06s-.84-.42-1.17-.42c-.21,0-.39.05-.54.15-.15.09-.24.21-.27.35-.05.18-.01.38.11.58.12.21.31.44.57.68.27.24.6.51,1.01.81.58.41,1.01.77,1.29,1.08.29.31.48.62.57.93.1.3.11.64.02,1.02-.16.6-.48,1.07-.96,1.41-.47.34-1.05.51-1.76.51ZM273.82,285.34c.06-.22.15-.46.26-.74.12-.27.23-.49.33-.66l.76.33c-1.24.35-2.26.77-3.06,1.26l-.17-.27,3.2-2.29c.14-.1.27-.15.4-.15.15,0,.26.06.33.18.08.12.1.27.04.46l-.74,2.8c-.14.5-.4,1.21-.78,2.12l-.09.06c.67-1.26,1.24-2.26,1.72-3.01.48-.76.99-1.38,1.51-1.88.54-.49,1.07-.71,1.59-.68l-.13,1.11c-.03.21-.1.37-.23.48-.12.11-.3.21-.54.28-.64.18-1.27.61-1.9,1.29-.62.67-1.24,1.59-1.85,2.76l-.48,1.8h-1.61l1.41-5.26ZM279.53,290.8c-.16,0-.29-.07-.38-.2s-.1-.29-.04-.49l1.41-4.79c.06-.2.15-.43.27-.71.13-.27.26-.49.38-.68l.76.33c-1.24.35-2.26.77-3.06,1.26l-.16-.27,3.19-2.29c.14-.1.28-.15.4-.15.15,0,.26.06.33.18.08.12.09.27.03.46l-1.42,4.86c-.07.23-.17.47-.29.72-.11.25-.23.48-.36.69l-.76-.35c1.23-.35,2.24-.77,3.04-1.26l.18.27-3.15,2.28c-.13.08-.26.12-.38.12ZM282.44,281.82c-.3,0-.51-.1-.65-.3-.13-.21-.15-.43-.07-.68.05-.21.17-.38.36-.49.2-.13.41-.2.65-.2.3,0,.51.1.63.32.13.2.16.43.09.68-.07.21-.2.38-.39.49-.18.12-.38.18-.61.18ZM285.82,290.8c-.59,0-1.08-.16-1.47-.48-.39-.33-.65-.78-.78-1.35-.12-.58-.09-1.22.1-1.92.2-.73.54-1.42,1.02-2.07.49-.65,1.07-1.17,1.73-1.56.67-.4,1.36-.6,2.07-.6.61,0,1.1.15,1.49.43.38.28.49.69.35,1.22-.12.42-.38.79-.76,1.11-.39.31-.87.59-1.44.84-.56.24-1.34.54-2.34.88l-.96.33.11-.45.97-.35c.81-.28,1.46-.6,1.96-.96.5-.37.81-.79.93-1.27.1-.35.07-.65-.07-.91-.15-.26-.42-.39-.79-.39s-.76.14-1.1.43c-.34.29-.63.65-.87,1.08-.24.42-.42.85-.54,1.29-.17.57-.24,1.14-.23,1.71.02.56.15,1.02.39,1.39.24.36.6.54,1.07.54.34,0,.74-.11,1.18-.33.45-.23.92-.56,1.41-.99l.17.27c-.55.65-1.13,1.16-1.74,1.54-.61.37-1.23.56-1.85.56ZM295.99,290.8c-.16,0-.28-.07-.38-.2-.09-.13-.11-.29-.06-.49l1.35-4.56c.18-.57.24-.98.19-1.22-.04-.25-.14-.38-.3-.38-.25,0-.69.37-1.32,1.11-.63.73-1.46,1.96-2.49,3.71l-.49,1.83h-1.6l1.41-5.26c.06-.22.14-.46.25-.74.12-.27.23-.49.33-.66l.76.33c-1.24.35-2.26.77-3.06,1.26l-.16-.27,3.19-2.29c.14-.1.28-.15.4-.15.15,0,.26.06.33.18.08.12.1.27.04.46l-.74,2.77c-.14.53-.36,1.15-.66,1.88h-.09c.96-1.56,1.86-2.83,2.7-3.81.84-.99,1.6-1.49,2.27-1.49.4,0,.67.22.81.66.15.44.09,1.13-.18,2.09l-.81,2.76c-.07.23-.16.47-.29.72-.12.25-.24.48-.36.69l-.78-.35c1.24-.35,2.26-.77,3.07-1.26l.17.27-3.17,2.28c-.11.08-.23.12-.36.12ZM307.26,288.87l1.12-4.15c.14-.52.18-.9.13-1.15-.04-.25-.18-.38-.43-.38-.27,0-.64.15-1.11.43-.46.29-1.02.74-1.69,1.34-.14.13-.28.19-.42.18-.13,0-.23-.07-.3-.19-.06-.12-.07-.26-.01-.4l.25-.95c.53-.24,1.06-.43,1.58-.55.52-.14.99-.21,1.41-.21.88,0,1.49.25,1.83.75.34.49.36,1.26.06,2.32l-.76,2.75-.16,1.96h-1.62l.13-1.74ZM304.1,290.77c-.42,0-.76-.08-1.01-.25-.25-.18-.41-.42-.48-.71-.08-.3-.07-.62.03-.98.09-.34.26-.65.52-.93s.6-.54,1.04-.78c.43-.25.98-.52,1.65-.81l.56-.21,2.18-.87-.09.42-1.82.81c-.66.29-1.19.6-1.6.93-.41.33-.67.7-.78,1.11-.08.31-.03.57.15.76.18.2.47.3.87.3.35,0,.72-.1,1.11-.3.39-.2.72-.45,1-.76l.02.44c-.47.55-.99.99-1.55,1.33-.56.33-1.16.49-1.8.49ZM312.32,290.8c-.4,0-.67-.21-.81-.63-.14-.43-.08-1.14.18-2.12l.72-2.71c.06-.22.14-.46.25-.74.12-.27.23-.49.33-.66l.76.33c-1.24.35-2.26.77-3.06,1.26l-.16-.27,3.19-2.29c.14-.1.28-.15.4-.15.15,0,.26.06.33.18.08.12.1.27.04.46l-1.23,4.6c-.15.58-.21.99-.18,1.23.04.24.14.36.3.36.25,0,.71-.39,1.37-1.18.66-.79,1.54-2.12,2.65-3.99l.52-1.47h1.35l-1.41,5.28c-.07.26-.16.52-.27.78-.1.25-.21.47-.32.66l-.76-.35c1.24-.35,2.26-.77,3.06-1.26l.16.27-3.16,2.28c-.11.08-.23.12-.35.12-.16,0-.29-.07-.38-.2s-.12-.29-.07-.49l.74-2.73c.14-.53.36-1.15.66-1.88h.09c-.96,1.57-1.86,2.84-2.7,3.83-.84.98-1.59,1.47-2.26,1.47ZM322.84,287.07l-.08-.08-1.58-3.97h1.73l1.15,3.21.06.06,1.74,4.32h-1.73l-1.3-3.54ZM319.39,290.61c.23-.74.65-1.41,1.24-2.02.61-.62,1.4-1.25,2.36-1.88l.09.27c-.39.42-.7.86-.95,1.32-.24.46-.45,1.01-.64,1.65-.06.21-.17.38-.33.51-.16.12-.35.18-.58.18l-1.18-.03ZM323.79,286.32c.43-.38.78-.78,1.04-1.2.26-.43.46-.91.6-1.44.07-.21.18-.38.33-.5.15-.13.34-.19.57-.19l1.08.03c-.13.45-.35.87-.66,1.26-.3.39-.68.76-1.12,1.12-.45.35-1.02.75-1.71,1.2l-.12-.28ZM331.99,285.34c.06-.22.15-.46.26-.74.12-.27.23-.49.33-.66l.76.33c-1.24.35-2.26.77-3.06,1.26l-.17-.27,3.2-2.29c.14-.1.27-.15.4-.15.15,0,.26.06.33.18.08.12.1.27.04.46l-.51,1.9c-.08.31-.19.65-.33,1.01-.13.35-.26.64-.38.88l-.17.18c.52-1.05,1.05-1.92,1.58-2.61.53-.7,1.01-1.21,1.45-1.53.45-.32.86-.48,1.22-.48.39,0,.71.15.96.46.26.31.42.74.46,1.28.05.54-.01,1.14-.18,1.8-.23.85-.61,1.61-1.12,2.29-.52.68-1.1,1.21-1.73,1.59-.62.37-1.2.56-1.74.56-.51,0-.9-.18-1.17-.53-.26-.35-.36-.83-.32-1.46l.38.51-1.17,4.35h-1.58l2.23-8.34ZM334.11,290.28c.53,0,1.02-.24,1.47-.74.46-.5.8-1.15,1.02-1.95.14-.55.21-1.1.21-1.66s-.07-1.02-.21-1.38c-.13-.36-.32-.54-.57-.54-.27,0-.61.22-1.02.65-.41.42-.83.95-1.24,1.59-.41.64-.75,1.26-1.02,1.86-.06.35-.05.7.03,1.04.09.33.25.6.47.82.23.21.52.32.87.32ZM343.02,288.87l1.12-4.15c.14-.52.18-.9.14-1.15-.04-.25-.18-.38-.43-.38-.27,0-.64.15-1.11.43-.46.29-1.02.74-1.7,1.34-.14.13-.28.19-.42.18-.13,0-.23-.07-.3-.19-.06-.12-.07-.26-.02-.4l.26-.95c.53-.24,1.05-.43,1.57-.55.52-.14.99-.21,1.41-.21.88,0,1.49.25,1.83.75.34.49.36,1.26.06,2.32l-.77,2.75-.16,1.96h-1.62l.14-1.74ZM339.86,290.77c-.42,0-.75-.08-1-.25-.25-.18-.41-.42-.48-.71-.08-.3-.07-.62.03-.98.09-.34.26-.65.52-.93s.61-.54,1.04-.78c.43-.25.98-.52,1.65-.81l.55-.21,2.18-.87-.09.42-1.82.81c-.66.29-1.2.6-1.61.93-.41.33-.67.7-.78,1.11-.08.31-.03.57.15.76.18.2.47.3.87.3.35,0,.72-.1,1.11-.3.39-.2.73-.45,1.01-.76v.44c-.46.55-.97.99-1.53,1.33-.56.33-1.16.49-1.8.49ZM348.21,285.34c.06-.22.14-.46.25-.74.12-.27.23-.49.33-.66l.76.33c-1.24.35-2.26.77-3.06,1.26l-.16-.27,3.19-2.29c.14-.1.27-.15.4-.15.15,0,.26.06.33.18.08.12.1.27.04.46l-.51,1.9c-.08.31-.19.65-.33,1.01-.13.35-.26.64-.38.88l-.17.18c.52-1.05,1.05-1.92,1.58-2.61.53-.7,1.02-1.21,1.46-1.53.45-.32.85-.48,1.21-.48.39,0,.71.15.96.46.26.31.42.74.46,1.28.05.54-.01,1.14-.18,1.8-.23.85-.61,1.61-1.12,2.29-.52.68-1.1,1.21-1.73,1.59-.62.37-1.2.56-1.74.56-.51,0-.9-.18-1.17-.53-.26-.35-.36-.83-.32-1.46l.38.51-1.17,4.35h-1.58l2.24-8.34ZM350.32,290.28c.53,0,1.02-.24,1.47-.74.46-.5.8-1.15,1.02-1.95.14-.55.21-1.1.21-1.66s-.07-1.02-.21-1.38c-.13-.36-.32-.54-.57-.54-.27,0-.61.22-1.02.65-.41.42-.83.95-1.24,1.59-.41.64-.75,1.26-1.02,1.86-.06.35-.05.7.03,1.04.09.33.24.6.46.82.23.21.52.32.87.32ZM355.79,290.8c-.16,0-.28-.07-.38-.2-.09-.13-.1-.29-.04-.49l1.41-4.79c.06-.2.15-.43.27-.71.13-.27.26-.49.38-.68l.77.33c-1.24.35-2.26.77-3.06,1.26l-.17-.27,3.2-2.29c.14-.1.27-.15.4-.15.15,0,.26.06.33.18.08.12.09.27.03.46l-1.42,4.86c-.07.23-.17.47-.29.72-.11.25-.23.48-.36.69l-.76-.35c1.23-.35,2.24-.77,3.04-1.26l.18.27-3.15,2.28c-.13.08-.25.12-.38.12ZM358.7,281.82c-.3,0-.51-.1-.64-.3-.13-.21-.15-.43-.08-.68.05-.21.17-.38.36-.49.2-.13.42-.2.64-.2.3,0,.51.1.63.32.13.2.16.43.09.68-.07.21-.2.38-.39.49-.18.12-.39.18-.62.18ZM362.08,290.8c-.59,0-1.08-.16-1.47-.48-.39-.33-.65-.78-.78-1.35-.12-.58-.08-1.22.11-1.92.2-.73.54-1.42,1.02-2.07.49-.65,1.07-1.17,1.73-1.56.67-.4,1.36-.6,2.07-.6.61,0,1.1.15,1.48.43.38.28.49.69.35,1.22-.12.42-.38.79-.76,1.11-.39.31-.87.59-1.44.84-.56.24-1.34.54-2.34.88l-.96.33.11-.45.98-.35c.81-.28,1.46-.6,1.96-.96.5-.37.81-.79.93-1.27.1-.35.08-.65-.07-.91-.15-.26-.42-.39-.8-.39s-.76.14-1.1.43c-.34.29-.63.65-.87,1.08-.24.42-.42.85-.54,1.29-.17.57-.24,1.14-.23,1.71.02.56.15,1.02.39,1.39.24.36.6.54,1.07.54.34,0,.73-.11,1.18-.33.45-.23.92-.56,1.41-.99l.16.27c-.55.65-1.13,1.16-1.74,1.54-.61.37-1.23.56-1.85.56ZM368.56,285.34c.06-.22.14-.46.26-.74.12-.27.23-.49.33-.66l.77.33c-1.24.35-2.26.77-3.06,1.26l-.17-.27,3.2-2.29c.14-.1.27-.15.4-.15.15,0,.26.06.33.18.08.12.1.27.05.46l-.74,2.8c-.14.5-.4,1.21-.78,2.12l-.09.06c.67-1.26,1.24-2.26,1.73-3.01.48-.76.98-1.38,1.51-1.88.54-.49,1.07-.71,1.59-.68l-.14,1.11c-.03.21-.11.37-.23.48s-.3.21-.54.28c-.64.18-1.27.61-1.9,1.29-.62.67-1.23,1.59-1.85,2.76l-.48,1.8h-1.61l1.41-5.26ZM376.31,290.8c-.6,0-1.18-.12-1.74-.36-.56-.25-1.04-.56-1.43-.93l.15-1.1c.02-.15.07-.26.16-.33.09-.08.2-.11.32-.09.13,0,.24.07.35.18.5.55,1.05.99,1.67,1.32.61.33,1.14.49,1.59.49.24,0,.45-.05.63-.15.19-.11.31-.25.36-.42.04-.17,0-.35-.12-.56-.11-.2-.31-.42-.6-.66-.28-.25-.66-.55-1.15-.89-.78-.56-1.32-1.06-1.62-1.5-.3-.45-.38-.93-.24-1.46.13-.53.41-.92.84-1.17.44-.25.98-.38,1.62-.38.43,0,.85.06,1.26.17.42.11.86.27,1.33.48l-.14,1.05c-.04.23-.14.38-.31.43-.17.05-.34,0-.5-.18-.41-.43-.84-.78-1.29-1.06-.45-.28-.84-.42-1.17-.42-.21,0-.39.05-.54.15-.15.09-.24.21-.27.35-.05.18-.01.38.11.58.12.21.31.44.57.68.27.24.61.51,1.01.81.58.41,1.01.77,1.29,1.08.29.31.48.62.57.93.1.3.1.64.01,1.02-.16.6-.48,1.07-.96,1.41-.47.34-1.05.51-1.76.51Z"/>
  <path class="cls-2" d="M264.18,280.61c0,3.8-1.18,9.7,1.09,12.92,3.68,5.21,13.58,5.2,19.09,5.66,4.15.35,8.38.45,12.47-.41,4.35-.92,8.95-2.7,13.39-2.87,2.83-.11,5.56-.48,8.4-.44,2.36.03,3.8,1.47,5.73,2.72,2.92,1.88,5.87,4.24,9.31,4.9,8.2,1.59,16.74,2.43,25.07,2.43,2.02,0,4.22.26,6.21-.1,2.06-.37,3.94-1.38,6.05-1.75,4.3-.74,8.75-.48,12.88.97"/>
  <path class="cls-1" d="M95.3,291.8c-.46,0-.93-.08-1.41-.24-.47-.17-.91-.38-1.32-.63l.17-1.65c.02-.18.09-.32.22-.4.13-.1.27-.13.42-.09.16.04.28.15.36.32.4.8.77,1.38,1.1,1.74s.65.54.96.54c.27,0,.51-.14.7-.43.2-.29.39-.74.56-1.36l2.26-8.48h1.71l-1.92,7.21c-.31,1.21-.79,2.1-1.44,2.65-.65.55-1.44.83-2.37.83ZM102.86,291.8c-.59,0-1.08-.16-1.47-.48-.39-.33-.65-.78-.78-1.35-.12-.58-.08-1.22.1-1.92.2-.73.54-1.42,1.02-2.07.49-.65,1.06-1.17,1.72-1.56.67-.4,1.36-.6,2.07-.6.61,0,1.1.15,1.49.43.38.28.49.69.35,1.22-.12.42-.38.79-.76,1.11-.39.31-.87.59-1.44.84-.56.24-1.34.54-2.34.88l-.96.33.1-.45.98-.35c.81-.28,1.47-.6,1.97-.96.5-.37.81-.79.93-1.27.1-.35.07-.65-.08-.91-.15-.26-.42-.39-.8-.39s-.75.14-1.09.43c-.34.29-.63.65-.87,1.08-.24.42-.42.85-.54,1.29-.17.57-.25,1.14-.23,1.71.02.56.15,1.02.39,1.39.24.36.6.54,1.07.54.34,0,.73-.11,1.18-.33.45-.23.92-.56,1.41-.99l.17.27c-.55.65-1.13,1.16-1.74,1.54-.61.37-1.23.56-1.85.56ZM113.49,291.8c-.6,0-1.18-.12-1.74-.36-.56-.25-1.03-.56-1.42-.93l.15-1.1c.02-.15.08-.26.17-.33.09-.08.19-.11.31-.09.13,0,.24.07.35.18.5.55,1.06.99,1.66,1.32.61.33,1.14.49,1.59.49.24,0,.45-.05.63-.15.19-.11.31-.25.36-.42.04-.17,0-.35-.12-.56-.11-.2-.31-.42-.6-.66-.28-.25-.66-.55-1.15-.89-.78-.56-1.32-1.06-1.62-1.5-.3-.45-.38-.93-.24-1.46.13-.53.41-.92.84-1.17.44-.25.98-.38,1.62-.38.43,0,.85.06,1.26.17.42.11.86.27,1.33.48l-.13,1.05c-.04.23-.15.38-.32.43-.17.05-.33,0-.49-.18-.41-.43-.84-.78-1.29-1.06s-.84-.42-1.17-.42c-.21,0-.39.05-.54.15-.15.09-.24.21-.27.35-.05.18-.01.38.1.58.12.21.31.44.57.68.27.24.6.51,1.01.81.58.41,1.01.77,1.29,1.08.29.31.48.62.57.93.1.3.1.64.01,1.02-.16.6-.48,1.07-.96,1.41-.47.34-1.06.51-1.76.51ZM119.68,291.8c-.65,0-1.18-.17-1.59-.5-.4-.34-.66-.8-.78-1.38-.11-.59-.07-1.25.12-1.97s.52-1.4.99-2.04c.48-.64,1.03-1.15,1.66-1.53.64-.38,1.3-.57,1.97-.57s1.15.18,1.53.53c.39.35.63.82.74,1.42.11.59.07,1.24-.12,1.95-.2.75-.53,1.44-.99,2.07-.46.62-1,1.11-1.62,1.47-.61.36-1.24.54-1.9.54ZM120.73,291.1c.31,0,.6-.1.87-.3.28-.21.51-.48.7-.79.2-.33.35-.68.45-1.04.16-.6.19-1.25.09-1.95-.1-.7-.32-1.29-.66-1.76s-.76-.71-1.26-.71c-.3,0-.59.1-.87.32-.28.2-.52.46-.72.79-.19.33-.33.68-.43,1.04-.15.6-.17,1.25-.08,1.95.1.69.31,1.27.65,1.74.34.47.76.71,1.26.71ZM126.56,291.8c-.4,0-.67-.21-.81-.63-.14-.43-.08-1.14.18-2.12l.72-2.71c.06-.22.15-.46.25-.74.12-.27.23-.49.33-.66l.76.33c-1.24.35-2.26.77-3.06,1.26l-.17-.27,3.19-2.29c.14-.1.27-.15.4-.15.15,0,.26.06.33.18.08.12.09.27.04.46l-1.23,4.6c-.15.58-.21.99-.18,1.23.04.24.14.36.3.36.25,0,.71-.39,1.36-1.18.66-.79,1.55-2.12,2.66-3.99l.52-1.47h1.35l-1.41,5.28c-.07.26-.16.52-.27.78-.1.25-.21.47-.32.66l-.76-.35c1.24-.35,2.26-.77,3.06-1.26l.17.27-3.17,2.28c-.11.08-.22.12-.35.12-.16,0-.28-.07-.38-.2-.09-.13-.11-.29-.07-.49l.74-2.73c.14-.53.36-1.15.66-1.88h.09c-.96,1.57-1.86,2.84-2.7,3.83-.84.98-1.6,1.47-2.26,1.47ZM131.86,293.72c.02-.26.12-.44.31-.53.18-.08.38-.05.6.09.56.33.97.47,1.23.42.26-.05.44-.3.56-.74.12-.44.24-1.26.36-2.46l.07-1.02,1.37-5.04h-.84l.06-.43h.9l.08-.33c.17-.64.46-1.17.88-1.57.43-.42.89-.72,1.37-.9.49-.19.92-.28,1.31-.28l-.09,1.06c-.02.23-.12.41-.3.54-.18.13-.39.18-.62.13-.48-.07-.92-.07-1.31,0-.38.07-.6.24-.66.49-.04.15.02.31.18.48.16.16.38.29.64.38h2.79l.09-.33c.17-.64.46-1.17.88-1.57.42-.42.87-.72,1.35-.9.49-.19.92-.28,1.31-.28l-.09,1.06c-.02.23-.12.41-.3.54-.17.13-.37.18-.6.13-.48-.07-.92-.07-1.31,0-.38.07-.6.24-.67.49-.03.15.03.31.19.48.16.16.38.29.64.38h1.43l-.04.43h-1.4l-1.44,5.37c-.34,1.27-.75,2.29-1.24,3.06-.49.78-1.03,1.33-1.62,1.64-.58.31-1.21.41-1.88.32l.09-1.11c.02-.26.12-.44.3-.53.18-.08.39-.05.61.09.56.33.97.47,1.23.42.26-.05.44-.3.56-.74.12-.44.24-1.26.36-2.46l.07-1.02,1.35-5.04h-2.69l-1.44,5.37c-.34,1.27-.76,2.29-1.25,3.06-.48.78-1.01,1.33-1.61,1.64-.59.31-1.22.41-1.89.32l.09-1.11ZM144.9,286.34c.06-.22.15-.46.26-.74.12-.27.23-.49.33-.66l.76.33c-1.24.35-2.26.77-3.06,1.26l-.17-.27,3.19-2.29c.14-.1.28-.15.4-.15.15,0,.26.06.33.18.08.12.1.27.04.46l-.74,2.8c-.14.5-.4,1.21-.78,2.12l-.09.06c.67-1.26,1.24-2.26,1.72-3.01.48-.76.99-1.38,1.51-1.88.54-.49,1.07-.71,1.59-.68l-.14,1.11c-.03.21-.11.37-.22.48-.12.11-.3.21-.54.28-.64.18-1.28.61-1.9,1.29-.62.67-1.24,1.59-1.85,2.76l-.48,1.8h-1.6l1.41-5.26ZM151.98,291.8c-.59,0-1.08-.16-1.47-.48-.39-.33-.65-.78-.78-1.35-.12-.58-.08-1.22.11-1.92.2-.73.54-1.42,1.02-2.07.49-.65,1.07-1.17,1.73-1.56.67-.4,1.36-.6,2.07-.6.61,0,1.1.15,1.49.43.38.28.49.69.34,1.22-.12.42-.38.79-.76,1.11-.39.31-.87.59-1.44.84-.56.24-1.34.54-2.34.88l-.96.33.11-.45.97-.35c.81-.28,1.46-.6,1.96-.96.5-.37.81-.79.93-1.27.1-.35.08-.65-.07-.91-.15-.26-.42-.39-.79-.39s-.76.14-1.1.43c-.34.29-.63.65-.87,1.08-.24.42-.42.85-.54,1.29-.17.57-.24,1.14-.22,1.71.02.56.15,1.02.39,1.39.24.36.6.54,1.07.54.34,0,.74-.11,1.18-.33.45-.23.92-.56,1.41-.99l.17.27c-.55.65-1.13,1.16-1.74,1.54-.61.37-1.22.56-1.85.56ZM161.28,291.8c-.39,0-.71-.16-.97-.47-.25-.31-.4-.74-.47-1.27-.05-.54.01-1.14.19-1.8.23-.85.6-1.62,1.11-2.29.52-.68,1.1-1.21,1.73-1.57.63-.38,1.21-.57,1.75-.57.51,0,.9.18,1.17.53.27.35.38.83.31,1.46l-.36-.51.9-3.4,1.05.38-2.76.06.04-.29c.95-.18,1.81-.5,2.57-.96.12-.08.24-.12.36-.12.15,0,.26.06.35.18.09.12.1.27.04.45l-2.06,7.71c-.07.26-.16.52-.27.78-.1.25-.21.47-.33.66l-.76-.35c1.24-.35,2.26-.77,3.06-1.26l.17.27-3.15,2.28c-.12.08-.24.12-.36.12-.16,0-.29-.07-.38-.2-.09-.13-.11-.29-.06-.49l.53-1.86c.11-.36.22-.71.33-1.05.12-.35.23-.63.33-.84l.18-.18c-.52,1.05-1.04,1.93-1.57,2.62-.53.69-1.01,1.2-1.45,1.51-.44.32-.85.48-1.22.48ZM162.21,290.62c.27,0,.61-.21,1.02-.63.41-.43.82-.97,1.23-1.61.42-.64.76-1.26,1.03-1.86.05-.35.04-.69-.04-1.02-.08-.34-.24-.62-.47-.82-.22-.22-.5-.33-.84-.33-.54,0-1.04.25-1.5.75-.45.49-.78,1.13-1,1.93-.14.55-.21,1.1-.21,1.66s.07,1.02.21,1.38.33.54.57.54ZM170.9,291.8c-.59,0-1.08-.16-1.47-.48-.39-.33-.65-.78-.78-1.35-.12-.58-.08-1.22.11-1.92.2-.73.54-1.42,1.02-2.07.49-.65,1.07-1.17,1.72-1.56.67-.4,1.36-.6,2.07-.6.61,0,1.11.15,1.49.43.38.28.5.69.35,1.22-.12.42-.38.79-.76,1.11-.39.31-.87.59-1.44.84-.56.24-1.34.54-2.34.88l-.96.33.1-.45.97-.35c.81-.28,1.47-.6,1.97-.96.5-.37.81-.79.93-1.27.1-.35.07-.65-.08-.91-.15-.26-.41-.39-.79-.39s-.75.14-1.1.43c-.34.29-.63.65-.87,1.08-.24.42-.42.85-.54,1.29-.17.57-.25,1.14-.22,1.71.02.56.15,1.02.39,1.39.24.36.6.54,1.06.54.34,0,.74-.11,1.19-.33.45-.23.92-.56,1.41-.99l.17.27c-.55.65-1.13,1.16-1.74,1.54-.61.37-1.22.56-1.85.56ZM98.71,309.8c-.34,0-.61-.08-.81-.23-.2-.16-.32-.41-.36-.75s.01-.79.17-1.37l2.06-7.75,1.05.55-2.76.06.05-.29c.96-.18,1.81-.5,2.56-.96.12-.08.24-.12.35-.12.16,0,.28.06.36.18.08.12.09.27.04.45l-2.29,8.62c-.11.36-.18.62-.21.79-.02.16-.02.26,0,.32.03.05.07.07.13.07.13,0,.35-.17.65-.51.3-.35.66-.84,1.08-1.47.09-.15.2-.24.33-.26.13-.02.24.02.33.12.09.1.12.24.11.42l-.21,1.17c-.39.27-.83.49-1.32.68-.48.17-.91.26-1.29.26ZM106.51,307.87l1.12-4.15c.14-.52.19-.9.14-1.15-.04-.25-.19-.38-.44-.38-.27,0-.64.15-1.11.43-.46.29-1.02.74-1.69,1.34-.14.13-.28.19-.42.18-.13,0-.23-.07-.3-.19-.06-.12-.06-.26-.01-.4l.26-.95c.53-.24,1.06-.43,1.58-.55.52-.14.99-.21,1.41-.21.88,0,1.49.25,1.83.75.34.49.36,1.26.06,2.32l-.76,2.75-.17,1.96h-1.62l.13-1.74ZM103.35,309.77c-.42,0-.75-.08-1-.25-.25-.18-.41-.42-.48-.71-.08-.3-.07-.62.03-.98.09-.34.26-.65.53-.93.26-.28.6-.54,1.03-.78.43-.25.98-.52,1.65-.81l.56-.21,2.17-.87-.09.42-1.81.81c-.66.29-1.19.6-1.6.93-.41.33-.67.7-.78,1.11-.08.31-.03.57.15.76.18.2.47.3.87.3.35,0,.72-.1,1.11-.3.39-.2.73-.45,1.01-.76v.44c-.46.55-.97.99-1.53,1.33-.56.33-1.16.49-1.8.49ZM115.85,309.8c-.6,0-1.18-.12-1.74-.36-.56-.25-1.03-.56-1.43-.93l.15-1.1c.02-.15.08-.26.17-.33.09-.08.19-.11.31-.09.13,0,.24.07.35.18.5.55,1.06.99,1.67,1.32.61.33,1.14.49,1.59.49.24,0,.45-.05.63-.15.19-.11.31-.25.36-.42.04-.17,0-.35-.12-.56-.11-.2-.31-.42-.6-.66-.28-.25-.66-.55-1.15-.89-.78-.56-1.32-1.06-1.62-1.5-.3-.45-.38-.93-.24-1.46.13-.53.41-.92.84-1.17.44-.25.98-.38,1.62-.38.43,0,.85.06,1.26.17.42.11.86.27,1.33.48l-.13,1.05c-.04.23-.15.38-.32.43-.17.05-.33,0-.49-.18-.41-.43-.84-.78-1.29-1.06s-.84-.42-1.17-.42c-.21,0-.39.05-.54.15-.15.09-.24.21-.27.35-.05.18-.01.38.1.58.12.21.31.44.57.68.27.24.6.51,1.01.81.58.41,1.01.77,1.29,1.08.29.31.48.62.57.93.1.3.1.64.01,1.02-.16.6-.48,1.07-.96,1.41-.47.34-1.06.51-1.76.51ZM120.41,309.8c-.16,0-.28-.07-.38-.2s-.1-.29-.04-.49l1.41-4.79c.06-.2.15-.43.27-.71.13-.27.25-.49.38-.68l.76.33c-1.24.35-2.26.77-3.06,1.26l-.16-.27,3.19-2.29c.14-.1.27-.15.4-.15.15,0,.26.06.33.18.08.12.09.27.03.46l-1.42,4.86c-.07.23-.17.47-.28.72-.11.25-.23.48-.36.69l-.76-.35c1.23-.35,2.24-.77,3.04-1.26l.18.27-3.15,2.28c-.13.08-.25.12-.38.12ZM123.32,300.82c-.3,0-.51-.1-.65-.3-.13-.21-.15-.43-.07-.68.05-.21.17-.38.36-.49.2-.13.41-.2.64-.2.3,0,.51.1.63.32.13.2.16.43.09.68-.07.21-.2.38-.39.49-.18.12-.39.18-.62.18ZM125.75,309.8c-.53,0-.89-.18-1.06-.54-.17-.36-.15-.94.07-1.76l1.35-5.05h-.76l.04-.29c1.13-.35,2.03-1.07,2.69-2.18h.3l-.54,2.03h2.93l-.05.43h-2.98l-1.53,5.7c-.1.35-.17.62-.19.79-.02.17-.02.29.01.35.03.06.08.09.17.09.18,0,.46-.17.84-.52.39-.35.85-.86,1.38-1.53.09-.12.19-.18.32-.18.13,0,.24.03.31.12.08.09.11.21.08.35l-.17,1.14c-.48.29-1.03.54-1.63.75-.61.2-1.13.3-1.56.3ZM131.71,309.8c-.4,0-.67-.21-.81-.63-.14-.43-.08-1.14.18-2.12l.72-2.71c.06-.22.14-.46.25-.74.12-.27.23-.49.33-.66l.76.33c-1.24.35-2.26.77-3.06,1.26l-.16-.27,3.19-2.29c.14-.1.27-.15.4-.15.15,0,.26.06.33.18.08.12.09.27.04.46l-1.23,4.6c-.15.58-.21.99-.18,1.23.04.24.14.36.3.36.25,0,.71-.39,1.36-1.18.66-.79,1.54-2.12,2.65-3.99l.53-1.47h1.35l-1.41,5.28c-.07.26-.16.52-.27.78-.1.25-.2.47-.31.66l-.76-.35c1.24-.35,2.26-.77,3.06-1.26l.17.27-3.17,2.28c-.11.08-.22.12-.35.12-.16,0-.28-.07-.38-.2-.09-.13-.11-.29-.07-.49l.74-2.73c.14-.53.36-1.15.66-1.88h.09c-.96,1.57-1.86,2.84-2.7,3.83-.84.98-1.6,1.47-2.26,1.47ZM143.85,307.87l1.12-4.15c.14-.52.18-.9.14-1.15-.04-.25-.19-.38-.44-.38-.27,0-.64.15-1.11.43-.46.29-1.03.74-1.69,1.34-.14.13-.28.19-.42.18-.13,0-.23-.07-.3-.19-.06-.12-.06-.26-.01-.4l.26-.95c.53-.24,1.06-.43,1.57-.55.52-.14.99-.21,1.41-.21.88,0,1.49.25,1.83.75.34.49.36,1.26.06,2.32l-.76,2.75-.17,1.96h-1.62l.14-1.74ZM140.69,309.77c-.42,0-.75-.08-1-.25-.25-.18-.41-.42-.48-.71-.08-.3-.07-.62.03-.98.09-.34.26-.65.53-.93s.61-.54,1.03-.78c.43-.25.98-.52,1.65-.81l.56-.21,2.18-.87-.09.42-1.81.81c-.66.29-1.19.6-1.61.93-.41.33-.67.7-.78,1.11-.08.31-.03.57.15.76.18.2.47.3.87.3.35,0,.72-.1,1.11-.3.39-.2.73-.45,1.01-.76v.44c-.46.55-.97.99-1.53,1.33-.56.33-1.16.49-1.8.49ZM148.68,309.8c-.53,0-.88-.18-1.06-.54-.17-.36-.15-.94.07-1.76l1.35-5.05h-.76l.04-.29c1.13-.35,2.03-1.07,2.69-2.18h.3l-.54,2.03h2.93l-.04.43h-2.99l-1.53,5.7c-.1.35-.17.62-.19.79-.02.17-.01.29.01.35s.08.09.17.09c.18,0,.46-.17.84-.52.39-.35.85-.86,1.38-1.53.09-.12.2-.18.32-.18.13,0,.24.03.32.12s.1.21.07.35l-.17,1.14c-.48.29-1.02.54-1.63.75-.61.2-1.13.3-1.56.3ZM153.72,309.8c-.16,0-.29-.07-.38-.2-.09-.13-.11-.29-.05-.49l1.41-4.79c.06-.2.15-.43.27-.71.13-.27.26-.49.38-.68l.76.33c-1.24.35-2.26.77-3.06,1.26l-.17-.27,3.19-2.29c.14-.1.28-.15.4-.15.15,0,.26.06.33.18.08.12.09.27.03.46l-1.42,4.86c-.07.23-.17.47-.29.72-.11.25-.23.48-.36.69l-.76-.35c1.23-.35,2.25-.77,3.04-1.26l.18.27-3.15,2.28c-.13.08-.26.12-.38.12ZM156.63,300.82c-.3,0-.51-.1-.64-.3-.13-.21-.15-.43-.08-.68.05-.21.17-.38.36-.49.2-.13.42-.2.65-.2.3,0,.51.1.63.32.13.2.16.43.09.68-.07.21-.2.38-.39.49-.18.12-.38.18-.61.18ZM160.15,309.8c-.65,0-1.18-.17-1.59-.5-.4-.34-.66-.8-.78-1.38-.11-.59-.07-1.25.12-1.97.19-.72.52-1.4.99-2.04.48-.64,1.03-1.15,1.67-1.53.64-.38,1.29-.57,1.96-.57s1.15.18,1.53.53c.39.35.64.82.74,1.42.11.59.07,1.24-.12,1.95-.2.75-.53,1.44-.99,2.07-.46.62-1,1.11-1.62,1.47-.61.36-1.25.54-1.91.54ZM161.2,309.1c.31,0,.6-.1.87-.3.28-.21.51-.48.7-.79.2-.33.35-.68.45-1.04.16-.6.19-1.25.09-1.95s-.32-1.29-.66-1.76c-.34-.47-.76-.71-1.26-.71-.3,0-.59.1-.87.32-.28.2-.52.46-.72.79-.19.33-.34.68-.44,1.04-.15.6-.17,1.25-.07,1.95.1.69.32,1.27.64,1.74.34.47.76.71,1.26.71ZM170.85,309.8c-.16,0-.28-.07-.38-.2-.09-.13-.11-.29-.06-.49l1.35-4.56c.18-.57.25-.98.19-1.22-.04-.25-.14-.38-.3-.38-.25,0-.69.37-1.32,1.11-.63.73-1.46,1.96-2.49,3.71l-.49,1.83h-1.61l1.41-5.26c.06-.22.14-.46.25-.74.12-.27.23-.49.33-.66l.76.33c-1.24.35-2.26.77-3.06,1.26l-.16-.27,3.19-2.29c.14-.1.27-.15.4-.15.15,0,.26.06.33.18.08.12.1.27.05.46l-.74,2.77c-.14.53-.36,1.15-.66,1.88h-.09c.96-1.56,1.86-2.83,2.7-3.81.84-.99,1.6-1.49,2.26-1.49.4,0,.67.22.81.66.15.44.09,1.13-.18,2.09l-.81,2.76c-.07.23-.17.47-.28.72-.12.25-.24.48-.36.69l-.78-.35c1.24-.35,2.26-.77,3.07-1.26l.17.27-3.17,2.28c-.11.08-.23.12-.36.12Z"/>
  <path class="cls-2" d="M143.32,326.14c-.57-2.57-8.97-3.11-11.02-3.18-5.53-.18-11.2-.23-16.73.03-3.84.18-5.55,3.48-5.66,6.98-.16,5.29.03,8.84,5.27,11.69,10.54,5.73,25.08,3.43,28.13-9.45,1.06-4.48,1.21-9.85-4.12-11.66-2.45-.83-6.28-1.24-8.81-.68-6.41,1.42-3.05,11.95-.32,14.75,4.15,4.26,17.09,12.24,20.03,2.65,1.45-4.73,1.93-11.46-3.71-13.13-2.48-.74-1.01,2.16-.03,3.03,4.53,4.02,10.32,7.1,15.53,10.1"/>
</svg>